<svg width="53" height="60" viewBox="0 0 53 60" fill="none" xmlns="http://www.w3.org/2000/svg">
<g clip-path="url(#clip0_820_27918)">
<path d="M4.82456 60C4.44989 60 4.09714 59.855 3.83093 59.5922L1.03848 56.827C0.774465 56.5653 0.623285 56.2033 0.623285 55.8336V42.8525C0.623285 42.0794 1.25539 41.4502 2.03211 41.4502H6.47548V26.9382H4.72486C4.34801 26.9382 3.99307 26.7921 3.72686 26.526L0.94646 23.7477C0.681347 23.4827 0.535645 23.1316 0.535645 22.7587V14.5578C0.535645 14.1806 0.692302 13.8131 0.965083 13.5503L14.6326 0.393632C14.8966 0.13957 15.2439 0 15.612 0H42.2646C42.6371 0 42.9876 0.142842 43.2528 0.403446L46.0463 3.14251C46.3136 3.40421 46.4659 3.7684 46.4659 4.14131V41.4513H48.2976C48.6722 41.4513 49.025 41.5963 49.2901 41.8591L52.0836 44.6222C52.3477 44.8839 52.4988 45.2459 52.4988 45.6166V58.601C52.4988 59.3741 51.8667 60.0033 51.09 60.0033H4.82456V60Z" fill="#FFF014"/>
<path d="M51.879 58.5988V45.6144C51.879 45.4062 51.7957 45.2055 51.6467 45.0583L48.8543 42.2953C48.7064 42.1492 48.507 42.0674 48.2988 42.0674H45.846V4.14023C45.846 3.92978 45.7617 3.72915 45.6116 3.58194L42.8169 0.842876C42.6701 0.698944 42.4707 0.617165 42.2648 0.617165H15.6122C15.4084 0.617165 15.2112 0.695673 15.0644 0.837424L1.3969 13.9941C1.24353 14.1413 1.15698 14.3452 1.15698 14.5578V22.7587C1.15698 22.9659 1.23915 23.1654 1.38704 23.3115L4.16744 26.0888C4.31533 26.236 4.51581 26.3188 4.72505 26.3188H7.09682V42.0674H2.03229C1.59738 42.0674 1.24462 42.4185 1.24462 42.8514V55.8325C1.24462 56.0408 1.32788 56.2414 1.47687 56.3875L4.26932 59.1528C4.41721 59.2989 4.61659 59.3807 4.82474 59.3807H51.0924C51.5273 59.3807 51.8801 59.0296 51.8801 58.5967L51.879 58.5988Z" fill="black"/>
<path d="M2.39599 55.7006H48.1729V43.197H42.141V1.74681H15.7393L2.30835 14.6789V22.6377H8.24819V43.197H2.39599V55.7006Z" fill="#FFF014"/>
<path d="M39.1457 12.4239L38.8631 12.2746C34.6738 10.0534 29.9391 8.87907 25.1681 8.87907C20.3972 8.87907 15.6613 10.0534 11.4732 12.2746L11.1895 12.4239V20.8047C11.1895 29.9858 15.4148 36.6797 24.891 42.5112L25.1725 42.6845L25.4541 42.5112C34.9302 36.6797 39.1567 29.9858 39.1567 20.8036L39.1457 12.4229V12.4239ZM38.0809 21.2681C38.0108 25.4967 36.9722 29.1746 34.8524 32.4796V22.7336L38.0809 21.2692V21.2681ZM12.2587 13.064C16.2233 11.0217 20.6798 9.94221 25.1681 9.94221C29.2993 9.94221 33.402 10.8581 37.1201 12.5973L12.4307 23.7967C12.3167 22.8296 12.2587 21.834 12.2587 20.8058V13.0651V13.064ZM15.0303 31.7228L18.7167 30.0512V36.4311C17.2191 34.9406 15.9943 33.3791 15.0303 31.7228ZM21.944 39.2171V28.5879L25.1703 27.1246V41.4328C24.0113 40.7098 22.9377 39.9716 21.944 39.2182V39.2171ZM28.3977 39.2204V25.6591L31.625 24.1958V36.4355C30.6632 37.3918 29.5885 38.3175 28.3977 39.2204Z" fill="black"/>
<path d="M25.5298 53.6735V52.9735H24.8276V53.6735H25.5298Z" fill="black"/>
<path d="M17.1972 51.6334H16.7393V53.6757H17.1972V51.6334Z" fill="black"/>
<path d="M19.0805 51.6367V52.0663C19.0805 52.244 19.029 52.2898 18.9666 52.2898C18.8976 52.2898 18.8461 52.2473 18.8461 52.0663V51.6367H18.455V52.0685C18.455 52.2528 18.409 52.2898 18.3345 52.2898C18.26 52.2898 18.2019 52.2506 18.2019 52.0663V51.6356H17.7363V53.6757H18.2019V52.6704C18.249 52.6846 18.3038 52.6922 18.3619 52.6922C18.5098 52.6922 18.6215 52.6529 18.6916 52.5755C18.7738 52.6584 18.8724 52.6922 19.0115 52.6922C19.1583 52.6922 19.2909 52.6497 19.3752 52.5646C19.4431 52.4959 19.5242 52.3651 19.5231 52.1208V51.6356H19.0805V51.6367Z" fill="black"/>
<path d="M20.6799 52.0499H21.1258V51.6356H20.6164C20.1091 51.6356 19.8517 51.833 19.8517 52.2211C19.8517 52.376 19.9065 52.5068 20.0073 52.5951C19.8572 52.6867 19.7695 52.8536 19.7695 53.0455C19.7695 53.4217 20.0566 53.6735 20.4838 53.6735H21.1247V53.257H20.5561C20.3469 53.257 20.2603 53.1981 20.2603 53.0542C20.2603 52.895 20.3501 52.8339 20.5813 52.8339H21.1247V52.4196H20.6383C20.3578 52.4196 20.337 52.3411 20.337 52.2299C20.337 52.0979 20.3666 52.0489 20.6799 52.0489V52.0499Z" fill="black"/>
<path d="M21.519 51.6367V52.0488H22.2596V53.6757H22.723V51.6367H21.519Z" fill="black"/>
<path d="M27.8303 51.6378L27.1697 52.1742L27.449 52.5046L27.7645 52.2462V53.6757H28.2279V51.6378H27.8303Z" fill="black"/>
<path d="M30.1013 52.0281C30.0629 51.9409 30.0081 51.8635 29.938 51.7981C29.869 51.7326 29.7869 51.6814 29.6937 51.6454C29.6006 51.6094 29.4987 51.5909 29.3925 51.5909C29.2862 51.5909 29.1876 51.6083 29.0956 51.6421C29.0014 51.677 28.9192 51.7261 28.8513 51.7904C28.7834 51.8548 28.7286 51.9333 28.6881 52.0238C28.6486 52.1143 28.6289 52.2157 28.6289 52.3247C28.6289 52.4196 28.6464 52.509 28.6815 52.5919C28.7165 52.6736 28.7658 52.7467 28.8272 52.8067C28.8885 52.8677 28.9619 52.9157 29.043 52.9495C29.1252 52.9844 29.2139 53.0018 29.307 53.0018C29.3235 53.0018 29.341 53.0018 29.3596 52.9997L28.8907 53.6746H29.4549L29.9523 52.9081C29.984 52.859 30.0114 52.811 30.0366 52.7652C30.0618 52.7183 30.0837 52.6704 30.1024 52.6246C30.121 52.5766 30.1352 52.5264 30.1451 52.4752C30.1549 52.425 30.1593 52.3694 30.1593 52.3105C30.1593 52.2102 30.1396 52.1143 30.1013 52.027V52.0281ZM29.1197 52.4338C29.1055 52.3967 29.0989 52.3542 29.0989 52.3095C29.0989 52.2146 29.1252 52.1404 29.1799 52.0826C29.2347 52.0259 29.3037 51.9987 29.3947 51.9987C29.4396 51.9987 29.4812 52.0074 29.5163 52.0227C29.5524 52.039 29.5842 52.0619 29.6094 52.0892C29.6357 52.1175 29.6554 52.1503 29.6696 52.1862C29.6839 52.2233 29.6905 52.2626 29.6905 52.304C29.6905 52.3509 29.6828 52.3934 29.6685 52.4316C29.6543 52.4686 29.6335 52.5014 29.6072 52.5264C29.5809 52.5526 29.5491 52.5733 29.513 52.5875C29.4757 52.6017 29.4341 52.6093 29.3892 52.6093C29.3443 52.6093 29.3048 52.6017 29.2709 52.5875C29.2347 52.5722 29.204 52.5515 29.1778 52.5253C29.1526 52.5003 29.1328 52.4697 29.1197 52.4338Z" fill="black"/>
<path d="M31.1256 53.2417L31.5474 52.8405C31.5923 52.799 31.635 52.7565 31.6723 52.7129C31.7117 52.6682 31.7468 52.6202 31.7764 52.5701C31.807 52.5188 31.8311 52.4643 31.8487 52.4065C31.8673 52.3476 31.8761 52.2833 31.8761 52.2157C31.8761 52.1143 31.8563 52.0227 31.8158 51.9442C31.7764 51.8667 31.7227 51.8002 31.6559 51.7468C31.5901 51.6945 31.5134 51.6541 31.4291 51.629C31.3469 51.604 31.2593 51.5909 31.1706 51.5909C31.0741 51.5909 30.9832 51.6061 30.9022 51.6367C30.82 51.6672 30.7477 51.7097 30.6852 51.7632C30.6239 51.8166 30.5724 51.8809 30.533 51.954C30.4935 52.027 30.4672 52.1088 30.4574 52.196L30.4497 52.2626L30.9011 52.3323L30.9109 52.2615C30.9219 52.183 30.9504 52.1175 30.9964 52.0674C31.038 52.0205 31.0939 51.9976 31.1651 51.9976C31.2363 51.9976 31.2889 52.0172 31.3349 52.0587C31.3787 52.0979 31.3995 52.1503 31.3995 52.22C31.3995 52.2822 31.3853 52.3367 31.3568 52.3836C31.3261 52.4359 31.2823 52.4894 31.2264 52.5428L30.4705 53.281V53.6746H31.8782V53.2406H31.1245L31.1256 53.2417Z" fill="black"/>
<path d="M32.2168 51.6378V52.0663H33.1294L32.3274 53.6757H32.8642L33.6508 52.0107V51.6378H32.2168Z" fill="black"/>
<path d="M15.8696 19.4352C15.8696 19.6075 15.9562 19.7656 16.1019 19.8583C16.1851 19.9106 16.2793 19.9379 16.3736 19.9379C16.4448 19.9379 16.5171 19.9226 16.585 19.8921L17.4636 19.4897V19.011L16.4031 19.4962C16.3736 19.5093 16.3506 19.4995 16.3385 19.4919C16.3265 19.4842 16.3078 19.4668 16.3078 19.4352V19.1386L17.1141 18.77C17.3267 18.673 17.4636 18.4604 17.4636 18.227V17.8683C17.4636 17.6644 17.3606 17.4757 17.1875 17.3656C17.0144 17.2555 16.7997 17.2402 16.6135 17.3264L16.3034 17.4681C16.0405 17.5881 15.8707 17.8519 15.8707 18.1398V18.8595V19.4352H15.8696ZM16.3067 18.1398C16.3067 18.0209 16.3768 17.913 16.4842 17.8639L16.7942 17.7222C16.8183 17.7113 16.8413 17.7069 16.8622 17.7069C16.9038 17.7069 16.9356 17.7233 16.9498 17.7331C16.9728 17.7473 17.0243 17.7898 17.0243 17.8694V18.2281C17.0243 18.2914 16.987 18.3491 16.9301 18.3753L16.3056 18.661V18.1409L16.3067 18.1398Z" fill="black"/>
<path d="M16.4183 15.9045C16.5049 15.9045 16.5892 15.8859 16.6692 15.85L17.3386 15.5425C17.5511 15.4454 17.688 15.2328 17.688 14.9995V13.522L16.1686 14.2176C15.956 14.3147 15.8191 14.5273 15.8191 14.7596V15.3069C15.8191 15.6362 16.0886 15.9045 16.4183 15.9045ZM16.2551 14.7596C16.2551 14.6963 16.2924 14.6385 16.3493 14.6124L17.2487 14.2002V14.9995C17.2487 15.0627 17.2126 15.1205 17.1545 15.1467L16.4852 15.4541C16.4632 15.464 16.4402 15.4694 16.4172 15.4694C16.3395 15.4694 16.2551 15.4073 16.2551 15.3069V14.7596Z" fill="black"/>
<path d="M18.1295 18.8823C18.228 18.9445 18.3398 18.9761 18.4515 18.9761C18.537 18.9761 18.6235 18.9576 18.7035 18.9205L19.0968 18.7395C19.3082 18.6425 19.4441 18.4298 19.4441 18.1987V16.3723V15.0529L19.007 15.2535V16.2327L18.2839 16.562C18.021 16.6819 17.8501 16.9458 17.8501 17.2337V18.3797C17.8501 18.5847 17.9542 18.7722 18.1273 18.8823H18.1295ZM18.468 16.9578L19.0091 16.7114V18.1987C19.0091 18.2619 18.9719 18.3186 18.9138 18.3459L18.5205 18.5269C18.4471 18.5607 18.3869 18.5312 18.365 18.516C18.342 18.5018 18.2894 18.4593 18.2894 18.3797V17.2337C18.2894 17.1148 18.3595 17.0069 18.468 16.9567V16.9578Z" fill="black"/>
<path d="M20.3196 15.6319C20.0566 15.7518 19.8857 16.0157 19.8857 16.3036V17.4496C19.8857 17.6546 19.9898 17.8421 20.1629 17.9522C20.2615 18.0144 20.3732 18.046 20.485 18.046C20.5704 18.046 20.657 18.0275 20.737 17.9904L21.1302 17.8094C21.3417 17.7124 21.4775 17.4997 21.4775 17.2686V15.4422V14.1228L21.0404 14.3234V15.3026L20.3174 15.6319H20.3196ZM21.0415 17.2675C21.0415 17.3307 21.0043 17.3874 20.9473 17.4147L20.554 17.5957C20.4806 17.6295 20.4203 17.6 20.3984 17.5848C20.3754 17.5706 20.3228 17.5281 20.3228 17.4485V16.3025C20.3228 16.1836 20.393 16.0757 20.5014 16.0255L21.0426 15.7791V17.2664L21.0415 17.2675Z" fill="black"/>
<path d="M19.3401 13.2439C19.4135 13.2101 19.4737 13.2407 19.4956 13.2548C19.5186 13.269 19.5701 13.3115 19.5701 13.3911V14.0432L18.1416 14.6963V15.1717L23.5216 12.7118V11.7817C23.5216 11.5778 23.4187 11.3892 23.2456 11.279C23.0725 11.1689 22.8578 11.1536 22.6715 11.2398L21.197 11.9104V12.3901L22.8534 11.6345C22.9268 11.6007 22.987 11.6312 23.0089 11.6454C23.0319 11.6596 23.0834 11.7021 23.0834 11.7817V12.4327L20.0051 13.8436V13.3911C20.0051 13.1872 19.9021 12.9986 19.729 12.8885C19.5559 12.7783 19.3412 12.7631 19.1549 12.8492L18.1394 13.3148V13.7902L19.3379 13.245L19.3401 13.2439Z" fill="black"/>
<path d="M28.7922 14.6113C28.7922 14.439 28.7057 14.2809 28.56 14.1882C28.4143 14.0955 28.2335 14.0835 28.0768 14.1544L25.6634 15.2568C25.6339 15.2699 25.6109 15.2601 25.5988 15.2524C25.5868 15.2448 25.5681 15.2273 25.5681 15.1957V14.1708C25.5681 13.9669 25.4652 13.7782 25.2921 13.6681C25.119 13.558 24.9043 13.5427 24.718 13.6288L24.408 13.7739V10.4471L23.9709 10.651V16.5129L24.408 16.3145V14.2525L24.901 14.0246C24.9744 13.9908 25.0346 14.0214 25.0565 14.0355C25.0795 14.0497 25.131 14.0922 25.131 14.1718V15.1968C25.131 15.3691 25.2176 15.5272 25.3633 15.6199C25.509 15.7126 25.6897 15.7246 25.8464 15.6537L28.2598 14.5513C28.2894 14.5382 28.3124 14.548 28.3244 14.5557C28.3365 14.5633 28.3551 14.5807 28.3551 14.6124V14.9002C28.3551 14.982 28.3069 15.0562 28.2324 15.09L15.8181 20.7633V21.2463L28.4154 15.4847C28.6443 15.38 28.7922 15.1499 28.7922 14.8991V14.6113Z" fill="black"/>
<path d="M21.9266 16.1531V16.514C21.9266 16.7179 22.0307 16.9066 22.2027 17.0167C22.3013 17.0799 22.413 17.1115 22.5259 17.1115C22.6113 17.1115 22.6968 17.093 22.7767 17.057L23.2292 16.8509C23.4078 16.7692 23.5228 16.5903 23.5228 16.3952V15.0954C23.5228 14.8915 23.4198 14.7029 23.2467 14.5927C23.0736 14.4826 22.8589 14.4673 22.6727 14.5535L21.9299 14.8871V15.3669L22.8556 14.9482C22.929 14.9144 22.9893 14.9449 23.0112 14.9591C23.0342 14.9733 23.0857 15.0158 23.0857 15.0954V15.2415L22.275 15.6112C22.0625 15.7082 21.9255 15.9208 21.9255 16.1542L21.9266 16.1531ZM22.459 16.0048L23.0868 15.718V16.393C23.0868 16.4191 23.0714 16.4431 23.0473 16.454L22.5949 16.6601C22.5215 16.6939 22.4612 16.6634 22.4393 16.6492C22.4163 16.635 22.3648 16.5925 22.3648 16.5129V16.152C22.3648 16.0888 22.4021 16.031 22.459 16.0048Z" fill="black"/>
<path d="M13.7388 15.7377V17.1813L14.1759 16.9763V15.8718C14.1759 15.6559 14.2242 15.5806 14.2986 15.5468L14.9439 15.2513V21.0282C14.9439 21.11 14.8957 21.1842 14.8212 21.218L13.9426 21.6203C13.8758 21.6509 13.8024 21.6454 13.741 21.6061C13.6797 21.5669 13.6446 21.5026 13.6446 21.4295V19.3807C13.6446 19.2433 13.7257 19.1179 13.8506 19.0612L14.5156 18.745V18.2652L13.6687 18.6654C13.3883 18.7929 13.2075 19.0743 13.2075 19.3807V21.4295C13.2075 21.6498 13.3193 21.8526 13.5055 21.9714C13.6118 22.039 13.7323 22.0739 13.8539 22.0739C13.9459 22.0739 14.0379 22.0543 14.1245 22.015L15.0031 21.6127C15.232 21.508 15.3799 21.2779 15.3799 21.0272V14.5709L14.1157 15.1499C13.8867 15.2546 13.7388 15.4847 13.7388 15.7355V15.7377Z" fill="black"/>
<path d="M23.0922 13.8567V13.3791L22.6519 13.5798V14.0595L23.0922 13.8567Z" fill="black"/>
<path d="M17.2685 13.245V12.7663L16.8281 12.968V13.4467L17.2685 13.245Z" fill="black"/>
<path d="M16.6748 13.5187V13.04L16.2344 13.2417V13.7204L16.6748 13.5187Z" fill="black"/>
<path d="M8.14406 46.261H7.0376L6.61035 47.117H7.27861V49.0557H6.71333V49.916H8.70934V49.0557H8.14406V46.261Z" fill="black"/>
<path d="M8.70605 47.1214H9.70078V49.9106H10.5662V47.1214H11.5566V46.2567H8.70605V47.1214Z" fill="black"/>
<path d="M11.9893 47.129H12.984V49.9182H13.8494V47.129H14.8398V46.2632H11.9893V47.129Z" fill="black"/>
<path d="M15.3503 47.117H15.9167V49.0557H15.3503V49.916H17.3464V49.0557H16.7811V47.117H17.3464V46.261H15.3503V47.117Z" fill="black"/>
<path d="M20.085 47.6393H18.9073V46.261H18.043V49.916H18.9073V48.4953H20.085V49.916H20.9548V46.261H20.085V47.6393Z" fill="black"/>
<path d="M28.0976 46.8357C27.7656 46.4595 27.2979 46.261 26.7468 46.261H25.373V49.916H26.7468C27.3033 49.916 27.7722 49.7176 28.1041 49.3414C28.3966 49.0099 28.5577 48.5661 28.5577 48.0907C28.5577 47.8606 28.5193 47.636 28.4427 47.4223C28.3638 47.202 28.2477 47.0047 28.0987 46.8357H28.0976ZM27.6966 48.0907C27.6966 48.3371 27.6123 48.577 27.4666 48.7482C27.2957 48.9489 27.047 49.0546 26.7468 49.0546H26.2374V47.1203H26.7468C27.047 47.1203 27.2957 47.2271 27.4666 47.4289C27.6134 47.6011 27.6966 47.8421 27.6966 48.0896V48.0907Z" fill="black"/>
<path d="M35.4912 46.2578H34.6257V49.916H37.038V49.0546H35.4912V46.2578Z" fill="black"/>
<path d="M39.388 48.7395C39.388 48.9652 39.1108 49.0873 38.8501 49.0873C38.711 49.0873 38.574 49.0535 38.4732 48.9947C38.3977 48.9499 38.3078 48.8703 38.3078 48.7439V46.2578H37.438V48.7395C37.438 49.5257 38.1654 49.9487 38.8501 49.9487C39.5348 49.9487 40.2578 49.4984 40.2578 48.7439V46.2578H39.388V48.7395Z" fill="black"/>
<path d="M33.2113 48.4767C33.139 48.6632 33.0196 48.818 32.8662 48.9227C32.7129 49.0274 32.5255 49.083 32.3251 49.083C32.0753 49.083 31.8387 48.9794 31.6579 48.7929C31.475 48.6021 31.3742 48.3546 31.3742 48.0951C31.3742 47.8356 31.4728 47.5815 31.6579 47.3885C31.8376 47.201 32.0742 47.0985 32.3251 47.0985C32.7435 47.0985 33.0623 47.3187 33.2004 47.7036L33.2102 47.7298H34.0801L34.045 47.5946C33.8358 46.7735 33.1609 46.2425 32.3251 46.2425C31.8507 46.2425 31.3851 46.442 31.0466 46.7899C30.7103 47.1475 30.5251 47.6109 30.5251 48.0962C30.5251 48.5814 30.7114 49.035 31.0488 49.3937C31.3862 49.7459 31.8398 49.94 32.3262 49.94C33.1708 49.94 33.8544 49.3926 34.0691 48.5454L34.0932 48.4516H33.2212L33.2113 48.4767Z" fill="black"/>
<path d="M43.3755 47.8846C43.473 47.7592 43.5343 47.6099 43.5552 47.4517C43.5771 47.2795 43.5508 47.0952 43.4796 46.9185C43.3109 46.4987 42.9537 46.2589 42.4991 46.2589H40.9358V49.9171H42.6163C42.9669 49.9171 43.2627 49.7885 43.4741 49.5453C43.6592 49.3327 43.7655 49.0372 43.7655 48.7351C43.7655 48.3895 43.6242 48.082 43.3755 47.8846ZM41.7958 47.6284V47.0156H42.4991C42.5856 47.0156 42.6568 47.0494 42.7061 47.1137C42.75 47.1704 42.7741 47.2489 42.7741 47.3307C42.7741 47.4125 42.7489 47.4943 42.7061 47.551C42.6557 47.6164 42.5867 47.6502 42.4991 47.6502H41.7958V47.6295V47.6284ZM42.8288 48.9663C42.7773 49.0339 42.705 49.0688 42.6152 49.0688H41.7958V48.4146H42.6152C42.7039 48.4146 42.7784 48.4495 42.8288 48.5149C42.8737 48.5727 42.8989 48.6545 42.8989 48.7384C42.8989 48.8224 42.8737 48.9063 42.8288 48.9652V48.9663Z" fill="black"/>
<path d="M24.0585 49.916H24.9853L23.4768 46.2142H22.8644L21.3613 49.916H22.2947L22.5478 49.2847H23.8021L24.0574 49.916H24.0585ZM22.8414 48.5541L23.1733 47.6458L23.5074 48.5541H22.8414Z" fill="black"/>
<path d="M21.2353 25.0758L20.4038 25.4509V24.9166C20.4038 24.7541 20.3797 24.6135 20.3326 24.4924C20.2855 24.3725 20.2066 24.2852 20.0971 24.2296C19.9875 24.1751 19.844 24.1577 19.6665 24.1773C19.4902 24.198 19.2732 24.2656 19.0169 24.3823C18.9194 24.427 18.64 24.5633 18.5732 24.596C18.5064 24.6298 18.4472 24.6614 18.3946 24.692L18.1284 25.3168C18.3738 25.1794 18.8241 24.958 18.9665 24.8937C19.1188 24.8239 19.248 24.7781 19.3532 24.7585C19.4584 24.7388 19.5438 24.7454 19.6118 24.777C19.6786 24.8086 19.7268 24.8675 19.7564 24.9526C19.7859 25.0376 19.8002 25.1521 19.8002 25.2949V25.7235L17.5599 26.7441V23.9461L16.8598 24.2645L16.5947 24.8566L16.9738 24.6832V27.6502L21.817 25.4509V23.1294L21.2353 23.3933V25.0736V25.0758Z" fill="#FFF014"/>
<path d="M24.9896 20.5714L24.7234 21.1634L25.1035 20.9901L25.1024 23.9614L25.6885 23.6953L25.6896 20.2541L24.9896 20.5714Z" fill="#FFF014"/>
<path d="M23.0868 21.4361L22.5073 21.6988V23.8109L23.0868 23.5471V21.4361Z" fill="#FFF014"/>
<path d="M21.2341 22.8394L21.8158 22.5755V22.0129L21.2341 22.2767V22.8394Z" fill="#FFF014"/>
<path d="M20.2734 23.2755L20.8552 23.0117V22.449L20.2734 22.714V23.2755Z" fill="#FFF014"/>
<path d="M15.6997 27.5673C15.6964 27.4583 15.6865 27.2817 15.6504 27.1301C15.6197 27.0014 15.5605 26.9131 15.4674 26.8531C15.3995 26.8095 15.3086 26.7844 15.2275 26.7812C15.073 26.7757 14.9043 26.7942 14.6173 26.9C14.5943 26.9087 14.5735 26.9186 14.5538 26.9262V26.3406C14.5735 26.333 14.5943 26.3243 14.6173 26.3167C14.935 26.1978 15.2056 26.1738 15.4137 26.2043C15.6219 26.2349 15.7906 26.3068 15.9177 26.4202C16.0458 26.5326 16.1379 26.6787 16.1937 26.8564C16.2496 27.0341 16.2781 27.2206 16.2781 27.4169V27.9642L14.3599 28.8344V28.1943L15.6975 27.587C15.6975 27.587 15.6975 27.5761 15.6975 27.5673H15.6997Z" fill="#FFF014"/>
<path d="M30.8593 19.2389C30.7772 19.1811 30.6665 19.1571 30.5274 19.168C30.3883 19.1789 30.2141 19.2313 30.0037 19.3272C29.8657 19.3894 29.7332 19.4581 29.605 19.5311C29.4768 19.6053 29.3508 19.6849 29.2248 19.7699V21.448L28.7812 21.6498C28.5434 21.7577 28.344 21.8253 28.1841 21.8548C28.0242 21.8831 27.896 21.8755 27.7996 21.834C27.7032 21.7915 27.6353 21.7185 27.5958 21.6138C27.5564 21.5102 27.5367 21.3793 27.5367 21.2234C27.5367 21.0904 27.5454 20.9617 27.564 20.8363C27.5827 20.712 27.6123 20.5834 27.6495 20.4656L27.0798 20.7251C27.0415 20.8505 26.9933 21.0828 26.9769 21.2125C26.9593 21.3423 26.9517 21.4589 26.9517 21.5603C26.9517 21.7479 26.979 21.9573 27.0316 22.1045C27.0853 22.2517 27.1697 22.4098 27.3504 22.5155C27.4928 22.5864 27.6221 22.6268 27.8467 22.6017C28.0702 22.5766 28.355 22.485 28.7001 22.328L29.8076 21.8253V19.94C29.8317 19.9258 29.8602 19.9106 29.8898 19.8931C29.9205 19.8757 29.9523 19.8593 29.9862 19.8452C30.1779 19.7579 30.3127 19.7416 30.3883 19.7983C30.465 19.8539 30.5033 19.9924 30.5033 20.2115V21.5113L31.085 21.2474V19.9433C31.085 19.7743 31.0686 19.6293 31.0346 19.5082C31.0007 19.3872 30.9426 19.2978 30.8604 19.24L30.8593 19.2389Z" fill="#FFF014"/>
<path d="M28.9324 23.2734L29.5141 23.0095V22.4468L28.9324 22.7118V23.2734Z" fill="#FFF014"/>
<path d="M27.9717 23.7139L28.5523 23.45V22.8874L27.9717 23.1523V23.7139Z" fill="#FFF014"/>
<path d="M35.9107 18.4157L34.9774 18.8387V16.0386L34.2773 16.3559L34.0122 16.948L34.3913 16.7757V19.7459L36.4913 18.7918V16.4704L35.9107 16.7343V18.4157Z" fill="#FFF014"/>
<path d="M35.9106 16.1771L36.4913 15.9121V15.3506L35.9106 15.6144V16.1771Z" fill="#FFF014"/>
<path d="M33.1182 19.6631C33.115 19.554 33.1051 19.3763 33.0689 19.2247C33.0383 19.0961 32.978 19.0077 32.886 18.9467C32.8181 18.9031 32.7271 18.8769 32.645 18.8747C32.4905 18.8693 32.3207 18.8878 32.0326 18.9936C32.0096 19.0023 31.9888 19.0121 31.969 19.0197V18.432C31.9888 18.4244 32.0096 18.4157 32.0326 18.408C32.3514 18.2881 32.622 18.2652 32.8312 18.2957C33.0405 18.3262 33.2092 18.3982 33.3373 18.5116C33.4655 18.625 33.5575 18.77 33.6145 18.9489C33.6704 19.1266 33.6989 19.3141 33.6989 19.5115V20.06L31.7751 20.9334V20.2911L33.1171 19.6816C33.1171 19.6816 33.1171 19.6707 33.1171 19.662L33.1182 19.6631Z" fill="#FFF014"/>
<path d="M23.7507 21.1351V23.4489C23.7507 23.7411 23.5787 24.0083 23.3114 24.1293L22.5073 24.4946V25.1412L23.5579 24.6636C24.0345 24.4466 24.3423 23.9701 24.3423 23.4478V20.8658L23.7507 21.134V21.1351Z" fill="#FFF014"/>
</g>
<defs>
<clipPath id="clip0_820_27918">
<rect width="52.5" height="60" fill="white"/>
</clipPath>
</defs>
</svg>
