<svg width="116" height="51" viewBox="0 0 116 51" fill="none" xmlns="http://www.w3.org/2000/svg">
<path d="M115.759 43.2691C115.592 43.1005 115.387 43.0066 115.09 43.0066L114.625 43.0441C114.198 43.0441 113.882 42.9318 113.697 42.6883C113.492 42.4447 113.399 42.0323 113.399 41.4516V37.0865H114.867C115.146 37.0865 115.369 36.993 115.554 36.8056C115.74 36.6183 115.833 36.3938 115.833 36.1315C115.833 35.8692 115.74 35.6255 115.554 35.4381C115.369 35.2508 115.146 35.1573 114.886 35.1573H113.418V33.3397C113.418 33.0025 113.306 32.7033 113.065 32.4598C112.823 32.2162 112.545 32.103 112.192 32.103C111.839 32.103 111.56 32.2162 111.337 32.4598C111.114 32.7033 110.984 32.9838 110.984 33.3397V35.1573H110.389C110.129 35.1573 109.906 35.2508 109.721 35.4381C109.535 35.6255 109.442 35.8692 109.442 36.1315C109.442 36.3938 109.535 36.6183 109.721 36.8056C109.906 36.993 110.129 37.0865 110.389 37.0865H110.984V41.8074C110.984 42.9314 111.263 43.7558 111.839 44.2991C112.396 44.8424 113.195 45.105 114.217 45.105C114.644 45.105 114.997 45.0486 115.257 44.9175C115.48 44.8425 115.666 44.7302 115.796 44.5616C115.926 44.393 116 44.1864 116 43.9616C116 43.6618 115.926 43.4373 115.759 43.2499" fill="black"/>
<path d="M71.3352 34.8945C70.6292 34.8945 69.9789 34.988 69.3844 35.1754C68.7898 35.3627 68.2882 35.606 67.8609 35.9245C67.5264 36.1681 67.3592 36.4682 67.3592 36.8429C67.3592 37.1426 67.4521 37.386 67.6379 37.5546C67.8237 37.7419 68.0652 37.8171 68.3624 37.8171C68.5111 37.8171 68.697 37.7612 68.9199 37.6488C69.5144 37.2741 70.1647 37.0862 70.8707 37.0862C71.4653 37.0862 71.9111 37.1609 72.2084 37.3295C72.5242 37.4981 72.7286 37.7232 72.8401 38.0229C72.9516 38.3226 73.0259 38.735 73.0259 39.2221H71.0565C69.7002 39.2221 68.6969 39.4659 68.0466 39.953C67.3963 40.4401 67.0806 41.2264 67.0806 42.2755C67.0806 43.1747 67.3592 43.8676 67.9165 44.3547C68.4739 44.8605 69.2729 45.1047 70.3134 45.1047C71.5582 45.1047 72.4685 44.6735 73.0445 43.793V43.9055C73.0445 44.2427 73.1559 44.5237 73.3975 44.7672C73.639 45.0107 73.9177 45.123 74.2522 45.123C74.5866 45.123 74.8838 45.0107 75.1253 44.7672C75.3669 44.5424 75.4784 44.2427 75.4784 43.9055V38.8663C75.4784 37.48 75.1626 36.4865 74.5123 35.8495C73.862 35.2126 72.803 34.9128 71.3538 34.9128M73.0631 41.2638C73.0445 41.9944 72.8215 42.5187 72.4313 42.8371C72.0226 43.1556 71.5395 43.3055 70.945 43.3055C69.9603 43.3055 69.4773 42.9128 69.4773 42.1447C69.4773 41.6389 69.6073 41.3011 69.886 41.1138C70.1646 40.9264 70.6663 40.833 71.4095 40.833H73.0631V41.2455V41.2638Z" fill="black"/>
<path d="M66.9318 31.4481C66.7089 31.2421 66.4488 31.1289 66.1143 31.1289C65.8728 31.1289 65.6498 31.2041 65.464 31.3539C65.2782 31.5038 65.1296 31.7105 64.9995 31.954L62.3241 37.5741L59.6858 32.0098C59.5744 31.7475 59.4071 31.5417 59.2028 31.3731C58.9984 31.2045 58.7568 31.1289 58.4967 31.1289C58.1623 31.1289 57.8651 31.2421 57.6236 31.4857C57.382 31.7292 57.252 32.0101 57.252 32.3473C57.252 32.5534 57.3078 32.7775 57.4378 33.0023L60.9678 39.8966V43.7933C60.9678 44.1305 61.0979 44.4302 61.3394 44.6925C61.581 44.936 61.8782 45.0675 62.2312 45.0675C62.5842 45.0675 62.8816 44.936 63.1231 44.6925C63.3646 44.449 63.4946 44.1493 63.4946 43.7933V39.9533L67.0805 32.8157C67.192 32.6096 67.2476 32.4222 67.2476 32.2348C67.2476 31.9163 67.1362 31.673 66.9132 31.4481" fill="black"/>
<path d="M95.4887 35.4004C94.8012 35.0632 94.0209 34.8945 93.1477 34.8945C92.2744 34.8945 91.4941 35.0632 90.8066 35.4004C90.1192 35.7376 89.5804 36.2435 89.1903 36.9179C88.8001 37.5923 88.5957 38.4355 88.5957 39.4096V40.5896C88.5957 41.5638 88.8001 42.3877 89.1903 43.0621C89.5804 43.7366 90.1192 44.2425 90.8066 44.5797C91.4941 44.9169 92.2744 45.0855 93.1477 45.0855C94.0209 45.0855 94.8012 44.9169 95.4887 44.5797C96.1761 44.2425 96.7335 43.7366 97.1237 43.0621C97.5324 42.3877 97.7182 41.5638 97.7182 40.5896V39.4096C97.7182 38.4168 97.5138 37.5923 97.1237 36.9179C96.7149 36.2435 96.1761 35.7376 95.4887 35.4004ZM95.2285 40.5896C95.2285 41.4514 95.0428 42.0879 94.6712 42.5188C94.2996 42.9497 93.7979 43.1747 93.1291 43.1747C92.4602 43.1747 91.9586 42.9497 91.6055 42.5188C91.2525 42.0879 91.0668 41.4326 91.0668 40.5896V39.3904C91.0668 38.5287 91.2525 37.8921 91.6055 37.4613C91.9586 37.0304 92.4788 36.8237 93.1291 36.8237C93.7793 36.8237 94.2996 37.0304 94.6712 37.4613C95.0428 37.8921 95.2285 38.5287 95.2285 39.3904V40.5896Z" fill="black"/>
<path d="M106.265 35.4004C105.577 35.0632 104.797 34.8945 103.924 34.8945C103.05 34.8945 102.27 35.0632 101.583 35.4004C100.895 35.7376 100.356 36.2435 99.9661 36.9179C99.576 37.5923 99.3716 38.4355 99.3716 39.4096V40.5896C99.3716 41.5638 99.576 42.3877 99.9661 43.0621C100.356 43.7366 100.895 44.2425 101.583 44.5797C102.27 44.9169 103.05 45.0855 103.924 45.0855C104.797 45.0855 105.577 44.9169 106.265 44.5797C106.952 44.2425 107.509 43.7366 107.9 43.0621C108.308 42.3877 108.494 41.5638 108.494 40.5896V39.4096C108.494 38.4168 108.29 37.5923 107.9 36.9179C107.491 36.2435 106.952 35.7376 106.265 35.4004ZM106.004 40.5896C106.004 41.4514 105.819 42.0879 105.466 42.5188C105.094 42.9497 104.592 43.1747 103.924 43.1747C103.255 43.1747 102.753 42.9497 102.4 42.5188C102.047 42.0879 101.861 41.4326 101.861 40.5896V39.3904C101.861 38.5287 102.047 37.8921 102.4 37.4613C102.753 37.0304 103.273 36.8237 103.924 36.8237C104.574 36.8237 105.094 37.0304 105.466 37.4613C105.837 37.8921 106.004 38.5287 106.004 39.3904V40.5896Z" fill="black"/>
<path d="M85.3069 34.8945C84.9725 34.8945 84.6938 35.0068 84.4522 35.2504C84.2107 35.4939 84.0992 35.7753 84.0992 36.1312V36.2621C83.449 35.3628 82.5386 34.9128 81.3309 34.9128C80.0675 34.9128 79.1014 35.3069 78.4326 36.0937C77.7637 36.8806 77.4292 37.9666 77.4292 39.3529V40.6829C77.4292 42.1442 77.7637 43.2495 78.414 43.9988C79.0828 44.7482 80.0489 45.123 81.3123 45.123C82.5014 45.123 83.4304 44.6359 84.0806 43.643V49.1323C84.0806 49.4695 84.1921 49.7692 84.4336 49.994C84.6752 50.2188 84.9539 50.3498 85.2883 50.3498C85.6228 50.3498 85.92 50.2375 86.1615 49.994C86.403 49.7692 86.5145 49.4695 86.5145 49.1323V36.1312C86.5145 35.794 86.403 35.4939 86.1615 35.2504C85.92 35.0068 85.6413 34.8945 85.2883 34.8945M84.1178 40.7579C84.1178 41.4511 83.9134 42.0317 83.5233 42.4813C83.1145 42.9496 82.6129 43.1747 81.9812 43.1747C81.3495 43.1747 80.8478 42.9684 80.4948 42.5563C80.1418 42.1442 79.9561 41.5448 79.9561 40.7579V39.2404C79.9561 38.4536 80.1418 37.8542 80.5134 37.4421C80.885 37.0299 81.3867 36.8237 82.0184 36.8237C82.5572 36.8237 83.0217 37.0116 83.4304 37.3863C83.8206 37.7609 84.0621 38.2664 84.1364 38.8846V40.7396L84.1178 40.7579Z" fill="black"/>
<path d="M111.151 27.2331C110.946 27.4392 110.854 27.6825 110.854 27.9448C110.854 28.2071 110.946 28.4696 111.151 28.6757C111.355 28.8817 111.597 28.994 111.857 28.994C112.117 28.994 112.377 28.8817 112.581 28.6757C112.786 28.4696 112.879 28.2258 112.879 27.9448C112.879 27.6638 112.767 27.4392 112.563 27.2331C112.358 27.0271 112.117 26.9331 111.838 26.9331C111.559 26.9331 111.337 27.0271 111.132 27.2331" fill="black"/>
<path d="M109.869 24.666H111.95C113.213 24.666 114.179 24.2536 114.866 23.4293C115.554 22.6051 115.907 21.4622 115.907 20.0009C115.907 19.3078 115.851 18.7088 115.758 18.1843C115.61 17.4911 115.257 17.1534 114.736 17.1534C114.476 17.1534 114.253 17.229 114.086 17.3976C113.919 17.5662 113.826 17.7903 113.826 18.0526C113.826 18.1275 113.826 18.2031 113.826 18.2593C113.938 19.0461 114.012 19.6263 114.012 20.0009C114.012 20.6941 113.863 21.2004 113.547 21.5002C113.231 21.7999 112.693 21.9493 111.931 21.9493H109.85C109.311 21.9493 108.903 21.8751 108.624 21.7252C108.345 21.5753 108.178 21.3499 108.085 21.0501C107.992 20.7504 107.955 20.3196 107.955 19.7576V9.88494C107.955 9.56647 107.862 9.30479 107.676 9.07998C107.49 8.85518 107.23 8.76074 106.914 8.76074C106.599 8.76074 106.339 8.87391 106.153 9.07998C105.967 9.28605 105.874 9.54774 105.874 9.88494V20.1134C105.874 21.7058 106.171 22.8679 106.785 23.5986C107.379 24.3292 108.419 24.6843 109.85 24.6843" fill="black"/>
<path d="M101.75 10.766C102.029 10.766 102.289 10.6537 102.493 10.4476C102.697 10.2416 102.809 9.99777 102.809 9.71677C102.809 9.43576 102.697 9.21118 102.493 9.00511C102.289 8.79904 102.047 8.70508 101.75 8.70508C101.453 8.70508 101.248 8.79904 101.044 9.00511C100.839 9.21118 100.747 9.4545 100.747 9.71677C100.747 9.97904 100.839 10.2416 101.044 10.4476C101.248 10.6537 101.471 10.766 101.75 10.766Z" fill="black"/>
<path d="M113.529 27.2331C113.324 27.4392 113.231 27.6825 113.231 27.9448C113.231 28.2071 113.324 28.4696 113.529 28.6757C113.733 28.8817 113.956 28.994 114.235 28.994C114.513 28.994 114.774 28.8817 114.978 28.6757C115.182 28.4696 115.294 28.2258 115.294 27.9448C115.294 27.6638 115.182 27.4392 114.978 27.2331C114.774 27.0271 114.532 26.9331 114.235 26.9331C113.937 26.9331 113.733 27.0271 113.529 27.2331Z" fill="black"/>
<path d="M66.7465 17.1161C67.0251 17.1161 67.2667 17.0039 67.4711 16.7978C67.6754 16.5917 67.7684 16.3488 67.7684 16.0678C67.7684 15.7868 67.6568 15.5613 67.4525 15.3553C67.2481 15.1492 67.0067 15.0562 66.728 15.0562C66.4493 15.0562 66.2263 15.1492 66.0219 15.3553C65.8176 15.5613 65.7246 15.8056 65.7246 16.0678C65.7246 16.3301 65.8176 16.5917 66.0219 16.7978C66.2263 17.0039 66.4679 17.1161 66.728 17.1161" fill="black"/>
<path d="M103.942 19.777V18.7278C103.942 17.3977 103.663 16.292 103.106 15.4302C102.548 14.5685 101.712 14.1377 100.597 14.1377C99.8915 14.1377 99.297 14.3063 98.7767 14.6435C98.2751 14.9807 97.8849 15.4491 97.6062 16.0111C97.3461 16.5918 97.1974 17.2105 97.1974 17.9036C97.1974 18.8028 97.439 19.4953 97.9034 20.0011C98.3679 20.5069 99.0739 20.7695 99.9843 20.7695C101.118 20.7695 101.861 20.3951 102.232 19.627V20.1511C102.232 20.8068 101.991 21.2751 101.526 21.5561C101.062 21.8372 100.245 21.9687 99.1297 21.9687H87.7406C87.722 20.5824 87.4247 19.4583 86.8673 18.5778C86.3099 17.6973 85.4739 17.2661 84.3777 17.2661C83.6531 17.2661 83.0214 17.454 82.5012 17.8286C81.9624 18.2033 81.5536 18.7087 81.2935 19.327C81.0148 19.9452 80.8848 20.6568 80.8848 21.4061C80.8848 22.399 81.1263 23.1675 81.6279 23.692C82.111 24.2353 82.8728 24.4979 83.8947 24.4979H86.1427C85.9569 25.1723 85.5853 25.6586 85.0094 25.977C84.452 26.2955 83.7275 26.4646 82.8728 26.4646C82.4827 26.4646 81.9809 26.3899 81.3678 26.2588C81.2563 26.24 81.1635 26.2213 81.1078 26.2213C80.8291 26.2213 80.5875 26.3143 80.3831 26.5204C80.1788 26.7265 80.0859 26.9891 80.0673 27.3263C80.0116 27.9632 80.3274 28.4315 80.9777 28.7313C81.5165 28.9561 82.1854 29.0688 82.9843 29.0688C84.2105 29.0688 85.2323 28.6747 86.0312 27.8879C86.8301 27.1011 87.369 26.0333 87.6291 24.647H99.0368C100.727 24.647 101.954 24.2543 102.753 23.4487C103.552 22.6619 103.96 21.4251 103.96 19.7578M102.27 18.3528C102.158 18.4652 101.935 18.5591 101.638 18.6153C101.341 18.6715 100.932 18.7086 100.393 18.7086C99.78 18.7086 99.3712 18.6339 99.1482 18.5028C98.9253 18.3716 98.7952 18.1471 98.7952 17.8286C98.7952 17.4727 98.9439 17.173 99.2597 16.9294C99.5755 16.6859 99.9658 16.5736 100.467 16.5736C101.081 16.5736 101.545 16.7601 101.824 17.1161C102.121 17.472 102.251 17.8657 102.251 18.3153V18.3528H102.27ZM86.1799 22.0245H84.1733C83.523 22.0245 83.0772 21.9681 82.8356 21.837C82.5941 21.7058 82.464 21.4813 82.464 21.1628C82.464 20.7507 82.6312 20.4134 82.9471 20.1511C83.2629 19.8701 83.7089 19.7395 84.2477 19.7395C84.9165 19.7395 85.3995 19.9453 85.6968 20.3761C85.9941 20.807 86.1613 21.2754 86.1613 21.7812V22.0245H86.1799Z" fill="black"/>
<path d="M99.39 10.766C99.6687 10.766 99.9103 10.6537 100.115 10.4476C100.319 10.2416 100.412 9.99777 100.412 9.71677C100.412 9.43576 100.3 9.21118 100.096 9.00511C99.8917 8.79904 99.6501 8.70508 99.3714 8.70508C99.0927 8.70508 98.8699 8.79904 98.6655 9.00511C98.4611 9.21118 98.3682 9.4545 98.3682 9.71677C98.3682 9.97904 98.4611 10.2416 98.6655 10.4476C98.8699 10.6537 99.1113 10.766 99.3714 10.766" fill="black"/>
<path d="M78.0612 22.6804C78.5071 21.9872 78.73 21.051 78.73 19.852C78.73 19.29 78.6557 18.6718 78.5071 17.9787C78.3213 17.3605 78.0055 17.042 77.5038 17.042C77.2437 17.042 77.0207 17.135 76.8535 17.3036C76.6677 17.4722 76.5935 17.6972 76.5935 17.9595C76.5935 18.0344 76.5935 18.1091 76.5935 18.1653C76.612 18.2777 76.6677 18.5219 76.7234 18.8779C76.7792 19.2338 76.8164 19.5331 76.8164 19.7953C76.8164 20.3761 76.6678 20.8073 76.3705 21.107C76.0732 21.4068 75.553 21.6126 74.8098 21.7437C74.0666 21.8748 69.4589 21.9495 68.0283 21.9495C66.5977 21.9495 61.9715 21.8931 61.2469 21.762C60.5223 21.6309 60.0207 21.4068 59.7234 21.107C59.4261 20.7886 59.2961 20.3202 59.2961 19.702C59.2961 19.3461 59.3332 18.9896 59.426 18.6336C59.426 18.5774 59.426 18.5032 59.426 18.4095C59.426 18.1472 59.3518 17.9223 59.2217 17.7537C59.0916 17.585 58.8873 17.4911 58.6272 17.4911C58.367 17.4911 58.1441 17.585 57.9769 17.7537C57.7911 17.941 57.661 18.1839 57.5681 18.4836C57.4381 18.9145 57.3638 19.4585 57.3638 20.1329C57.3638 21.2943 57.5682 22.193 57.9955 22.8487C58.4228 23.5044 59.1289 23.9727 60.1136 24.2537C61.1169 24.5347 66.0403 24.6846 67.8425 24.6846C69.7376 24.6846 74.7354 24.5347 75.7944 24.2162C76.8535 23.8977 77.5967 23.3923 78.0426 22.7179" fill="black"/>
<path d="M69.1243 17.1161C69.403 17.1161 69.6632 17.0039 69.8676 16.7978C70.0719 16.5917 70.1834 16.3488 70.1834 16.0678C70.1834 15.7868 70.0719 15.5613 69.8676 15.3553C69.6632 15.1492 69.4216 15.0562 69.1243 15.0562C68.8271 15.0562 68.6227 15.1492 68.4183 15.3553C68.2139 15.5613 68.1211 15.8056 68.1211 16.0678C68.1211 16.3301 68.2139 16.5917 68.4183 16.7978C68.6227 17.0039 68.8456 17.1161 69.1243 17.1161Z" fill="black"/>
<path d="M89.97 48.3459C90.0815 48.2897 90.1744 48.2141 90.2302 48.1391C90.2859 48.0455 90.323 47.9336 90.323 47.8025C90.323 47.5964 90.2487 47.4278 90.1187 47.2967C89.9701 47.1843 89.7657 47.1274 89.4871 47.1274H88.781L88.6696 47.1842L88.6138 47.2967V49.5259L88.6696 49.6384L88.781 49.6942H89.5241C89.8214 49.6942 90.0443 49.6195 90.193 49.4884C90.3416 49.3572 90.3974 49.1694 90.3974 48.9633C90.3974 48.8134 90.3603 48.6824 90.286 48.57C90.2116 48.4763 90.1001 48.4016 89.97 48.3642M88.9482 47.4092H89.4499C89.6171 47.4092 89.7471 47.4463 89.8586 47.5025C89.9515 47.5587 90.0072 47.6709 90.0072 47.8208C90.0072 47.9519 89.9701 48.0646 89.8957 48.1208C89.8214 48.177 89.6913 48.2141 89.5055 48.2141H88.9668V47.4092H88.9482ZM89.9143 49.2825C89.8214 49.3387 89.6729 49.3758 89.4871 49.3758H88.9482V48.5142H89.4871C89.6357 48.5142 89.7472 48.5142 89.8215 48.5517C89.8958 48.5891 89.9515 48.6268 89.9886 48.7017C90.0258 48.7579 90.0444 48.8509 90.0444 48.9633C90.0444 49.1132 89.9886 49.2076 89.8957 49.2825" fill="black"/>
<path d="M92.1627 47.8022L92.0697 47.8397L92.014 47.9331L91.4938 49.3573L90.9922 47.9148L90.9364 47.8397L90.8435 47.8022L90.7321 47.858L90.6763 47.9706L90.6949 48.0456L91.3452 49.7506L91.1594 50.2373L91.1408 50.3123L91.1779 50.4248L91.2894 50.4623L91.3823 50.4248L91.4381 50.3498L91.6982 49.5814L92.2927 48.0264L92.3113 47.9523L92.2556 47.858L92.1627 47.8022Z" fill="black"/>
<path d="M94.6709 48.0084L94.6337 47.8959L94.5222 47.8584H93.3517L93.2402 47.8959L93.2031 48.0084L93.2402 48.1017L93.3517 48.1392H94.2436L93.2402 49.4317L93.2031 49.5259L93.2402 49.6385L93.3517 49.676H94.5408L94.6337 49.6385L94.6709 49.5259L94.6337 49.4317L94.5408 49.3942H93.6118L94.6337 48.1017L94.6709 48.0084Z" fill="black"/>
<path d="M96.1202 47.8958C96.0087 47.8396 95.8601 47.8208 95.6743 47.8208C95.5257 47.8208 95.4142 47.8213 95.3213 47.8775C95.2284 47.915 95.1356 47.9517 95.0612 48.0266L95.0055 48.1391L95.0427 48.2333L95.1355 48.2708L95.2284 48.2333C95.2284 48.2333 95.3399 48.1579 95.4143 48.1391C95.4886 48.1204 95.5443 48.1016 95.6186 48.1016C95.7487 48.1016 95.8415 48.1209 95.9158 48.1583C95.9901 48.1958 96.0273 48.2517 96.0645 48.3266C96.0831 48.4016 96.1017 48.4951 96.1017 48.6075V48.645H95.7301C95.47 48.645 95.2842 48.683 95.1541 48.7767C95.0241 48.8704 94.9683 49.0202 94.9683 49.2075C94.9683 49.3761 95.024 49.5072 95.1169 49.6009C95.2098 49.6945 95.3584 49.7317 95.5628 49.7317C95.8043 49.7317 95.9902 49.657 96.1017 49.4884V49.5817L96.1388 49.6942L96.2502 49.7317L96.3617 49.6942L96.3989 49.5817V48.5892C96.3989 48.4018 96.3804 48.2707 96.3246 48.1583C96.2875 48.0459 96.2132 47.9712 96.1017 47.915M96.1017 49.0008C96.1017 49.1507 96.0459 49.2826 95.953 49.3575C95.8601 49.4325 95.7301 49.4691 95.6 49.4691C95.3771 49.4691 95.2656 49.3761 95.2656 49.2075C95.2656 49.1326 95.2655 49.0758 95.3027 49.0383C95.3213 49.0008 95.377 48.9637 95.4327 48.945C95.4885 48.945 95.5814 48.9258 95.6929 48.9258H96.0831V49.02L96.1017 49.0008Z" fill="black"/>
<path d="M97.0675 47.8022L96.9561 47.858L96.9004 47.9706V49.5631L96.9561 49.6756L97.0675 49.7314L97.179 49.6756L97.2162 49.5631V47.9706L97.179 47.858L97.0675 47.8022Z" fill="black"/>
<path d="M97.0675 47.0522L96.9561 47.109L96.9004 47.2215V47.409L96.9561 47.5206L97.0675 47.5581L97.179 47.5206L97.2162 47.409V47.2215L97.179 47.109L97.0675 47.0522Z" fill="black"/>
<path d="M98.61 47.8022C98.4799 47.8022 98.3871 47.8211 98.2756 47.8773C98.1827 47.9335 98.1084 47.9894 98.034 48.0831V47.9706L97.9968 47.858L97.8854 47.8205L97.7739 47.858L97.7368 47.9706V49.5631L97.7739 49.6756L97.8854 49.7131L97.9968 49.6756L98.034 49.5631V48.6072C98.034 48.4948 98.0526 48.4205 98.1083 48.3456C98.1455 48.2707 98.2199 48.2138 98.2942 48.1764C98.3685 48.1389 98.4428 48.1206 98.5357 48.1206C98.6658 48.1206 98.7586 48.1581 98.8329 48.2331C98.9073 48.308 98.963 48.439 98.963 48.5889V49.5631L99.0002 49.6756L99.1117 49.7131L99.2231 49.6756L99.2602 49.5631V48.5697C99.2602 48.3262 99.2045 48.1392 99.0931 48.0081C98.9816 47.8769 98.8143 47.8205 98.5914 47.8205" fill="black"/>
<path d="M101.954 48.4015L102.084 48.364L102.14 48.2332L102.084 48.1207L101.954 48.064L101.842 48.1207L101.787 48.2332L101.842 48.364L101.954 48.4015Z" fill="black"/>
<path d="M103.756 49.9189L103.645 49.9564L103.607 50.069L103.645 50.1623L103.756 50.219L103.849 50.1623L103.905 50.069L103.849 49.9564L103.756 49.9189Z" fill="black"/>
<path d="M103.403 49.9189L103.292 49.9564L103.254 50.069L103.292 50.1623L103.403 50.219L103.515 50.1623L103.552 50.069L103.515 49.9564L103.403 49.9189Z" fill="black"/>
<path d="M103.942 48.4018L103.849 48.3643L103.756 48.4018L103.719 48.5143C103.738 48.6454 103.756 48.7581 103.756 48.8518C103.756 49.0204 103.719 49.151 103.663 49.2259C103.607 49.3009 103.477 49.3384 103.329 49.3384C103.217 49.3384 103.125 49.3389 103.069 49.3201L102.957 49.2259C102.957 49.2259 102.92 49.1138 102.92 49.0201C102.92 48.9452 102.92 48.8705 102.92 48.8518C102.92 48.7581 102.864 48.7201 102.771 48.7201L102.679 48.7576V48.8701C102.679 49.0762 102.679 49.2824 102.679 49.4885C102.679 49.6383 102.66 49.7506 102.604 49.8443C102.549 49.938 102.474 49.9939 102.381 50.0501C102.27 50.0876 102.14 50.1068 101.954 50.1068C101.768 50.1068 101.62 50.0876 101.508 50.0501C101.397 50.0126 101.322 49.9375 101.285 49.8626C101.229 49.7689 101.211 49.6571 101.211 49.4885C101.211 49.3199 101.229 49.1695 101.285 49.0009V48.9259L101.229 48.8143H101.174H101.099L101.044 48.8893C100.969 49.0579 100.932 49.2449 100.932 49.451C100.932 49.7882 101.006 50.0132 101.155 50.1818C101.304 50.3317 101.564 50.4059 101.898 50.4059C102.233 50.4059 102.493 50.3317 102.66 50.1818C102.827 50.032 102.92 49.8065 102.92 49.5068C102.994 49.6004 103.125 49.6385 103.31 49.6385C103.533 49.6385 103.7 49.5629 103.831 49.4317C103.942 49.3006 104.016 49.0949 104.016 48.8326C104.016 48.7015 104.016 48.5887 103.979 48.4576L103.942 48.3643V48.4018Z" fill="black"/>
<path d="M104.964 48.6826L104.871 48.7201L104.834 48.8143V48.8701C104.889 49.02 104.908 49.2069 104.908 49.3943C104.908 49.5441 104.889 49.6761 104.834 49.7885C104.796 49.9009 104.722 49.9939 104.648 50.0501C104.573 50.1063 104.481 50.1444 104.369 50.1444H104.22H104.183C104.128 50.1444 104.072 50.1815 104.053 50.2377V50.2944V50.3877L104.127 50.4435C104.127 50.4435 104.276 50.5002 104.388 50.5002C104.536 50.5002 104.666 50.4438 104.778 50.3502C104.889 50.2565 104.982 50.1254 105.038 49.9568C105.094 49.7882 105.131 49.6003 105.131 49.3943C105.131 49.1695 105.112 48.9829 105.056 48.8143C105.038 48.7394 105.001 48.6826 104.927 48.6826" fill="black"/>
<path d="M104.945 48.3641L105.076 48.3083L105.131 48.1958L105.076 48.0641L104.945 48.0083L104.834 48.0641L104.778 48.1958L104.834 48.3083L104.945 48.3641Z" fill="black"/>
<path d="M106.487 47.5957L106.599 47.5399L106.654 47.4274L106.599 47.3148L106.487 47.2773L106.376 47.3148L106.338 47.4274L106.376 47.5399L106.487 47.5957Z" fill="black"/>
<path d="M106.859 47.5957L106.971 47.5399L107.026 47.4274L106.971 47.3148L106.859 47.2773L106.748 47.3148L106.71 47.4274L106.748 47.5399L106.859 47.5957Z" fill="black"/>
<path d="M112.433 48.5327L112.34 48.5702L112.303 48.6644V48.7019C112.34 48.8517 112.358 48.9636 112.358 49.0385C112.358 49.1509 112.34 49.2265 112.303 49.2827C112.265 49.3202 112.191 49.3577 112.08 49.3577C111.968 49.3577 111.894 49.3389 111.838 49.2827C111.801 49.2265 111.782 49.1513 111.782 49.0202V48.7769L111.745 48.6827L111.652 48.6452L111.559 48.6827L111.522 48.7769V49.0202C111.522 49.1513 111.504 49.2265 111.448 49.2827C111.392 49.3389 111.299 49.3577 111.169 49.3577C111.039 49.3577 110.946 49.3389 110.909 49.2827C110.853 49.2265 110.835 49.1513 110.835 49.0202V48.7769L110.798 48.6827L110.705 48.6452L110.612 48.6827L110.575 48.7769V49.0202C110.575 49.0202 110.575 49.1698 110.538 49.226C110.519 49.2635 110.463 49.3015 110.408 49.3202C110.333 49.3202 110.24 49.3385 110.11 49.3385C109.98 49.3385 109.869 49.3385 109.813 49.301C109.832 49.2261 109.85 49.1326 109.85 49.0202C109.85 48.7767 109.794 48.5709 109.664 48.4211C109.534 48.2712 109.367 48.196 109.144 48.196C108.958 48.196 108.81 48.2524 108.661 48.346C108.512 48.4397 108.364 48.6079 108.197 48.8327C108.271 48.6828 108.308 48.533 108.308 48.4018V47.3344L108.271 47.2401L108.178 47.2026L108.085 47.2401L108.048 47.3344V49.0952C108.048 49.0952 107.955 49.2449 107.899 49.3385H107.732C107.621 49.3385 107.528 49.3385 107.472 49.301C107.416 49.2636 107.379 49.2259 107.361 49.151C107.342 49.0761 107.323 48.9826 107.323 48.8327V47.9893L107.286 47.8777L107.193 47.8402L107.1 47.8777L107.063 47.9893V48.0835C106.84 48.1585 106.655 48.2144 106.524 48.2893C106.394 48.3643 106.301 48.439 106.227 48.5327C106.171 48.6263 106.134 48.7203 106.134 48.8327C106.134 49.1886 106.302 49.3577 106.655 49.3577C106.878 49.3577 107.026 49.2826 107.082 49.1327C107.1 49.3201 107.175 49.4507 107.286 49.5443C107.398 49.638 107.546 49.6756 107.751 49.6944H109.07C109.349 49.6944 109.553 49.6572 109.683 49.5636C109.72 49.601 109.776 49.6381 109.85 49.6569C109.924 49.6756 110.036 49.6944 110.166 49.6944C110.315 49.6944 110.445 49.6948 110.538 49.6386C110.63 49.6011 110.686 49.5443 110.723 49.4693C110.761 49.5443 110.816 49.6011 110.891 49.6386C110.965 49.676 111.076 49.6944 111.207 49.6944C111.448 49.6944 111.615 49.6192 111.689 49.4693C111.727 49.5443 111.764 49.6011 111.838 49.6386C111.912 49.676 112.005 49.6944 112.117 49.6944C112.284 49.6944 112.433 49.6385 112.526 49.526C112.618 49.4136 112.674 49.2446 112.674 49.0385C112.674 48.9261 112.674 48.7951 112.618 48.6827C112.6 48.6077 112.544 48.5519 112.488 48.5519M107.026 48.8894C106.989 48.9831 106.859 49.0202 106.673 49.0202C106.562 49.0202 106.469 49.0197 106.413 48.9635C106.357 48.926 106.339 48.8701 106.339 48.7952C106.339 48.7202 106.394 48.6451 106.487 48.5702C106.599 48.514 106.766 48.4393 107.026 48.3643V48.8894ZM109.46 49.2827C109.46 49.2827 109.237 49.3385 109.051 49.3385H108.141C108.271 49.1325 108.382 48.9643 108.475 48.8519C108.568 48.7395 108.68 48.6451 108.773 48.6077C108.884 48.5515 108.995 48.5327 109.126 48.5327C109.274 48.5327 109.386 48.589 109.479 48.6827C109.571 48.7763 109.609 48.8886 109.609 49.0385C109.609 49.1696 109.553 49.2453 109.46 49.2827Z" fill="black"/>
<path d="M113.139 47.1841L113.046 47.2216L113.009 47.3149V49.5441L113.046 49.6383L113.139 49.6758L113.25 49.6383L113.288 49.5441V47.3149L113.25 47.2216L113.139 47.1841Z" fill="black"/>
<path d="M115.405 49.9941L115.294 50.0499L115.238 50.1625L115.294 50.2942L115.405 50.35L115.536 50.2942L115.573 50.1625L115.536 50.0499L115.405 49.9941Z" fill="black"/>
<path d="M115.814 48.4951L115.777 48.4018L115.684 48.3643L115.591 48.4018L115.554 48.5143C115.573 48.6454 115.591 48.7581 115.591 48.8518C115.591 49.0204 115.554 49.151 115.499 49.2259C115.424 49.3009 115.313 49.3384 115.164 49.3384H114.923V49.2634C114.923 49.0199 114.867 48.8325 114.774 48.6826C114.681 48.5327 114.532 48.4393 114.347 48.4393C114.235 48.4393 114.124 48.4764 114.031 48.5326C113.938 48.5888 113.864 48.6644 113.808 48.7768C113.752 48.8892 113.734 49.0015 113.734 49.1326C113.734 49.3012 113.771 49.4323 113.864 49.526C113.957 49.6196 114.087 49.6568 114.272 49.6568H114.681C114.644 49.8254 114.57 49.9569 114.477 50.0318C114.365 50.1067 114.235 50.1443 114.049 50.1443C113.975 50.1443 113.882 50.1443 113.789 50.1068H113.752L113.659 50.1443L113.622 50.2568L113.659 50.3501L113.752 50.4251C113.752 50.4251 113.956 50.4809 114.087 50.4809C114.31 50.4809 114.495 50.4063 114.625 50.2751C114.774 50.1253 114.867 49.9383 114.904 49.676H115.164C115.387 49.676 115.554 49.6004 115.684 49.4693C115.796 49.3381 115.87 49.1324 115.87 48.8701C115.87 48.739 115.87 48.6262 115.833 48.4951M114.7 49.3577H114.309C114.179 49.3577 114.105 49.3571 114.049 49.3009C113.994 49.2635 113.975 49.2071 113.975 49.1134C113.975 49.0198 114.012 48.9263 114.068 48.8701C114.142 48.8139 114.217 48.7768 114.328 48.7768C114.458 48.7768 114.551 48.8322 114.607 48.9259C114.662 49.0196 114.7 49.1327 114.7 49.2451V49.3384V49.3577Z" fill="black"/>
<path d="M23.2892 33.9022C22.8061 37.012 21.2268 39.4845 18.7372 41.0582C16.229 42.6505 12.9776 43.2315 9.57759 42.6882C9.05737 42.6133 8.55571 42.4818 8.05407 42.3507C7.77538 42.2757 7.4781 42.4067 7.34805 42.669L4.69122 48.5141C4.54258 48.8326 4.69122 49.2076 5.04423 49.32C6.14041 49.6947 7.25517 49.9751 8.40708 50.1625C9.63332 50.3498 10.841 50.4625 12.0301 50.4625C15.9317 50.4625 19.6289 49.4324 22.7317 47.4841C24.7011 46.229 26.3733 44.6366 27.6739 42.7632C25.6301 39.9719 24.4781 35.3444 24.0137 29.3496L23.2892 33.9388V33.9022ZM33.2477 16.9477C34.9384 13.7068 37.4652 11.7026 40.7909 11.1968C42.8346 10.8784 44.451 11.8521 45.0827 13.5943C45.5286 14.8308 45.3428 16.1419 44.5996 17.1536C44.0051 17.9778 43.1318 18.5212 42.1471 18.6711C38.5613 19.2144 35.1984 19.5146 32.1514 19.6645C32.4115 18.784 32.7832 17.847 33.2477 16.9477ZM11.7327 18.5211C10.5065 18.315 9.4289 17.6039 8.7043 16.5361C7.79392 15.206 7.57095 13.4821 8.10975 11.871C8.8715 9.60422 11.1568 8.44288 13.3863 8.74262C17.5109 9.2859 20.5765 12.0206 22.676 16.2544C23.252 17.4346 23.6978 18.653 24.0323 19.8145C20.2978 19.6084 16.1546 19.2147 11.7327 18.5028M0.306519 10.541C-0.492393 14.1753 0.287872 17.8841 2.44308 20.8628C4.44964 23.6354 7.38524 25.453 10.7481 25.9962C15.2815 26.6707 19.5732 27.0639 23.4563 27.2512H24.4411L25.6673 35.0822C26.0017 37.2553 26.6891 39.2593 27.6739 41.0765C29.0673 43.6617 31.0925 45.8355 33.6193 47.4466C36.6105 49.3387 39.6018 50.0875 43.3176 50.125C43.5406 50.125 43.7821 49.9569 43.875 49.7508L46.3833 43.6057C46.5876 43.0999 46.3089 42.7253 45.7701 42.7815C42.7417 43.0813 39.8804 42.4627 37.6138 41.039C35.1241 39.4653 33.8979 36.9741 33.4148 33.883L32.3744 27.233C35.8115 27.0644 39.2674 26.7265 43.2619 26.127C46.2346 25.6587 48.8543 24.0478 50.6193 21.5936C52.533 18.9522 53.2019 15.674 52.5144 12.4518C51.1953 6.38215 45.1755 2.6352 39.1187 3.79668C36.276 4.33996 33.7122 5.5204 31.5198 7.30009C30.4979 8.12438 29.569 9.06058 28.7329 10.0909C28.6214 9.9036 28.4913 9.71663 28.3613 9.52929C27.135 7.65592 25.6672 6.04468 24.0137 4.69586C21.524 2.69136 18.6442 1.36153 15.43 0.743318C14.5939 0.574715 13.7579 0.5 12.9219 0.5C7.01362 0.5 1.60707 4.50827 0.306519 10.5218" fill="black"/>
<mask id="mask0_823_7145" style="mask-type:luminance" maskUnits="userSpaceOnUse" x="0" y="0" width="53" height="51">
<path d="M23.2892 33.9022C22.8061 37.012 21.2268 39.4845 18.7372 41.0582C16.229 42.6505 12.9776 43.2315 9.57759 42.6882C9.05737 42.6133 8.55571 42.4818 8.05407 42.3507C7.77538 42.2757 7.4781 42.4067 7.34805 42.669L4.69122 48.5141C4.54258 48.8326 4.69122 49.2076 5.04423 49.32C6.14041 49.6947 7.25517 49.9751 8.40708 50.1625C9.63332 50.3498 10.841 50.4625 12.0301 50.4625C15.9317 50.4625 19.6289 49.4324 22.7317 47.4841C24.7011 46.229 26.3733 44.6366 27.6739 42.7632C25.6301 39.9719 24.4781 35.3444 24.0137 29.3496L23.2892 33.9388V33.9022ZM33.2477 16.9477C34.9384 13.7068 37.4652 11.7026 40.7909 11.1968C42.8346 10.8784 44.451 11.8521 45.0827 13.5943C45.5286 14.8308 45.3428 16.1419 44.5996 17.1536C44.0051 17.9778 43.1318 18.5212 42.1471 18.6711C38.5613 19.2144 35.1984 19.5146 32.1514 19.6645C32.4115 18.784 32.7832 17.847 33.2477 16.9477ZM11.7327 18.5211C10.5065 18.315 9.4289 17.6039 8.7043 16.5361C7.79392 15.206 7.57095 13.4821 8.10975 11.871C8.8715 9.60422 11.1568 8.44288 13.3863 8.74262C17.5109 9.2859 20.5765 12.0206 22.676 16.2544C23.252 17.4346 23.6978 18.653 24.0323 19.8145C20.2978 19.6084 16.1546 19.2147 11.7327 18.5028M0.306519 10.541C-0.492393 14.1753 0.287872 17.8841 2.44308 20.8628C4.44964 23.6354 7.38524 25.453 10.7481 25.9962C15.2815 26.6707 19.5732 27.0639 23.4563 27.2512H24.4411L25.6673 35.0822C26.0017 37.2553 26.6891 39.2593 27.6739 41.0765C29.0673 43.6617 31.0925 45.8355 33.6193 47.4466C36.6105 49.3387 39.6018 50.0875 43.3176 50.125C43.5406 50.125 43.7821 49.9569 43.875 49.7508L46.3833 43.6057C46.5876 43.0999 46.3089 42.7253 45.7701 42.7815C42.7417 43.0813 39.8804 42.4627 37.6138 41.039C35.1241 39.4653 33.8979 36.9741 33.4148 33.883L32.3744 27.233C35.8115 27.0644 39.2674 26.7265 43.2619 26.127C46.2346 25.6587 48.8543 24.0478 50.6193 21.5936C52.533 18.9522 53.2019 15.674 52.5144 12.4518C51.1953 6.38215 45.1755 2.6352 39.1187 3.79668C36.276 4.33996 33.7122 5.5204 31.5198 7.30009C30.4979 8.12438 29.569 9.06058 28.7329 10.0909C28.6214 9.9036 28.4913 9.71663 28.3613 9.52929C27.135 7.65592 25.6672 6.04468 24.0137 4.69586C21.524 2.69136 18.6442 1.36153 15.43 0.743318C14.5939 0.574715 13.7579 0.5 12.9219 0.5C7.01362 0.5 1.60707 4.50827 0.306519 10.5218" fill="white"/>
</mask>
<g mask="url(#mask0_823_7145)">
<path d="M39.8039 -22.9297L-21.918 13.0015L12.9555 73.9057L74.6774 37.9746L39.8039 -22.9297Z" fill="black"/>
</g>
</svg>
