<svg width="118" height="51" viewBox="0 0 118 51" fill="none" xmlns="http://www.w3.org/2000/svg">
<path d="M107.385 0.5C107.385 0.63885 107.385 0.73637 107.385 0.833564C107.385 3.41617 107.385 6.01244 107.385 8.59504C107.385 8.65058 107.385 8.71984 107.385 8.77538C107.385 9.01142 107.412 9.03946 107.647 9.05335C107.702 9.05335 107.771 9.05335 107.826 9.05335C110.611 9.05335 113.409 9.05335 116.194 9.05335H116.539C116.511 9.15055 116.511 9.21983 116.484 9.26149C116.318 9.66415 116.153 10.0673 115.987 10.4839C115.932 10.6227 115.849 10.6917 115.684 10.7056C115.326 10.7056 115.326 10.7056 115.326 11.0805C115.326 23.3687 115.326 35.6573 115.326 47.9455C115.326 48.2926 115.326 48.6397 115.326 48.9868V49.2641C115.794 49.3058 116.236 49.2645 116.677 49.2784C117.118 49.2784 117.545 49.2784 118 49.2784V49.4865C117.904 49.4865 117.821 49.4865 117.738 49.4865C101.553 49.4865 85.3683 49.4865 69.1833 49.4865C69.1282 49.4865 69.0593 49.5004 69.0041 49.4865C68.949 49.4587 68.9076 49.4031 68.8662 49.3753C68.8662 49.3475 68.88 49.3339 68.8938 49.3062C68.9765 49.3062 69.073 49.2923 69.1558 49.2784C69.8588 49.2784 70.5757 49.2784 71.2788 49.2784C71.3615 49.2784 71.4442 49.2645 71.5545 49.2506C71.5545 49.1395 71.5545 49.0424 71.5545 48.959C71.5545 44.2382 71.5545 39.5167 71.5407 34.8097C71.5407 30.4359 71.5408 26.0761 71.527 21.7024C71.527 19.689 71.527 17.662 71.5132 15.6487C71.5132 15.3432 71.5959 15.0932 71.7889 14.8433C73.4018 12.7744 75.0148 10.7059 76.6278 8.63707C76.6278 8.63707 76.6554 8.60892 76.6554 8.59504C77.1517 7.9841 76.8898 8.09537 77.6894 8.09537C80.3639 8.09537 83.0522 8.09537 85.7267 8.09537C86.0025 8.09537 86.1817 8.01176 86.3471 7.7896C86.8021 7.17866 87.2845 6.59577 87.7395 5.98483C87.8911 5.77655 88.0703 5.70686 88.3323 5.70686C89.3111 5.72074 90.2899 5.70686 91.2687 5.70686C91.4066 5.70686 91.5031 5.65183 91.5858 5.54075C92.8542 3.94398 94.1362 2.33338 95.4046 0.736614C95.5424 0.569994 95.6803 0.5 95.9009 0.5C99.6232 0.5 103.345 0.5 107.081 0.5C107.164 0.5 107.247 0.5 107.385 0.5ZM71.8165 19.5505C71.8165 19.5505 71.8579 19.523 71.8717 19.5091C72.3266 18.9259 72.7815 18.3563 73.2227 17.7592C73.3192 17.6343 73.3743 17.454 73.3743 17.2874C73.3743 16.01 73.3743 14.7322 73.3743 13.4548C73.3743 13.3992 73.3605 13.3581 73.3467 13.2609C73.264 13.3442 73.2226 13.3992 73.1675 13.4548C72.7677 13.9546 72.3817 14.4688 71.9819 14.9687C71.8578 15.1214 71.8165 15.2597 71.8165 15.4541C71.8165 16.8149 71.8165 18.1758 71.8165 19.5505ZM84.3619 29.4923C84.2103 29.4923 84.1138 29.4923 84.0035 29.4923C83.838 29.5062 83.7553 29.4362 83.7001 29.2835C83.5898 28.9502 83.4795 28.6309 83.3555 28.2977C83.2728 28.0617 83.2728 28.0618 83.0384 28.0618C81.1773 28.0618 79.33 28.0618 77.4688 28.0618C77.3999 28.0618 77.3309 28.0621 77.2482 28.076V49.2506H84.1964C84.1964 49.1534 84.1964 49.0701 84.1964 48.9868C84.1964 47.0013 84.1964 45.0157 84.1964 43.0301C84.1964 42.5025 84.224 41.9744 84.2516 41.4606C84.2792 41.0718 84.3756 40.6975 84.5549 40.3365C85.0649 39.3785 85.8921 38.8508 86.8985 38.6009C87.1191 38.5454 87.3948 38.5728 87.6154 38.6423C87.9601 38.7534 88.3185 38.9058 88.6218 39.0863C89.4214 39.5584 89.9315 40.2666 90.0831 41.1969C90.1796 41.7801 90.1796 42.3636 90.1796 42.9467C90.1796 44.9462 90.1796 46.9457 90.1796 48.959C90.1796 49.0562 90.1796 49.1534 90.1934 49.2506H97.0865C97.0865 48.6396 97.0865 48.0425 97.0865 47.4594C97.0865 46.8762 97.0865 46.2927 97.0865 45.7095C97.0865 45.1124 97.0865 44.5157 97.0865 43.9325C97.0865 43.3355 97.0865 42.738 97.0865 42.1549C97.0865 41.5717 97.0865 40.9889 97.0865 40.4057C97.0865 39.8225 97.0865 39.2254 97.0865 38.6423C97.4312 38.5728 105.827 38.5868 106.034 38.6701V49.2784H107.068V28.1174C106.64 28.0479 104.807 28.0757 104.641 28.1452C104.572 28.5617 104.6 32.3661 104.696 32.5466C104.807 32.5466 104.917 32.5466 105.027 32.5466C105.303 32.5466 105.317 32.5743 105.317 32.8381C105.317 33.5879 105.317 34.3521 105.317 35.1019C105.317 35.1852 105.303 35.2684 105.289 35.3378H97.7896V32.5608C98.024 32.5608 98.2307 32.5469 98.4513 32.533V28.1038H91.5582C91.3377 28.562 91.2549 29.0615 91.0206 29.5059C90.8138 29.5059 90.6346 29.5198 90.4416 29.5337V34.8097C90.1383 34.893 84.5135 34.8794 84.3205 34.7961V29.5201L84.3619 29.4923ZM91.2412 24.8543C90.6208 24.8543 90.0417 24.8543 89.4627 24.8543H80.7362C80.1571 24.8543 79.5781 24.8543 78.9853 24.8543C78.4063 24.8543 77.8272 24.8543 77.2344 24.8543V27.798C77.3447 27.798 77.4275 27.8258 77.524 27.8258C79.5505 27.8258 81.5633 27.798 83.5899 27.798C85.9749 27.798 88.3598 27.7984 90.7448 27.8123C93.2539 27.8123 95.763 27.8262 98.2721 27.8401C98.341 27.8401 98.41 27.8262 98.4927 27.8123C98.4927 27.3124 98.5203 26.8263 98.4789 26.3126C98.3686 26.3126 98.2721 26.3126 98.1894 26.3126C98.0102 26.3265 97.9137 26.2568 97.8585 26.0902C97.7207 25.6876 97.5828 25.2712 97.4312 24.8685C97.4036 24.7991 97.4035 24.7294 97.3898 24.6461C97.5414 24.6322 97.6517 24.6183 97.7758 24.5905C97.7758 24.4795 97.7896 24.3962 97.7896 24.299C97.7896 23.6603 97.7896 23.0214 97.7896 22.3966C97.7896 22.2994 97.8171 22.2022 97.8309 22.0773H98.4927C98.4927 21.9662 98.4927 21.8833 98.4927 21.8C98.4927 19.8283 98.4927 17.8427 98.4927 15.8711C98.4927 15.8155 98.4927 15.7734 98.4927 15.7179C98.4927 15.6068 98.4238 15.5514 98.3135 15.5375C98.2584 15.5375 98.1894 15.5375 98.1343 15.5375C95.9147 15.5375 93.6813 15.5375 91.4617 15.5375C91.3928 15.5375 91.3101 15.5379 91.2136 15.5518V24.8543H91.2412ZM107.44 29.3533V49.2506C107.867 49.32 108.736 49.2922 108.929 49.195C108.929 49.0978 108.929 49.0006 108.929 48.9034C108.929 47.2095 108.929 45.5156 108.929 43.8078C108.929 43.3635 109.094 43.0435 109.466 42.8213C109.963 42.502 110.5 42.322 111.107 42.2803C111.934 42.2386 112.651 42.4883 113.258 43.0437C113.437 43.2103 113.52 43.3911 113.52 43.641C113.52 45.4044 113.52 47.1679 113.52 48.9312C113.52 49.0284 113.52 49.1253 113.52 49.2363H115.105V29.3255H107.467L107.44 29.3533ZM73.6362 35.9066C73.6362 35.9066 73.5949 35.8788 73.5673 35.8788V31.0191C72.947 31.5329 72.3541 32.0053 71.7889 32.4774V49.2641C72.0922 49.3336 76.8208 49.3197 76.9863 49.2641C77.0414 48.8615 77.0138 28.4921 76.9587 28.2977C76.8897 28.3394 76.8347 28.3815 76.7795 28.4231C76.2143 28.8813 75.6628 29.3531 75.0838 29.7974C74.9183 29.9362 74.8494 30.0749 74.8494 30.2971C74.8494 31.8383 74.8494 33.3661 74.8494 34.9073C74.8494 35.0045 74.8494 35.1152 74.8494 35.2402C74.4359 35.4762 74.036 35.7123 73.6224 35.9344L73.6362 35.9066ZM77.2482 15.3016H97.8447C97.6793 14.8295 97.5415 14.3855 97.376 13.8995H98.4927V8.33131H95.7906C95.7906 8.85893 95.7906 9.37249 95.7906 9.87235C95.7906 10.3861 95.7906 10.8861 95.7906 11.3998C95.7906 11.8997 95.8182 12.4135 95.7768 12.8995C95.4322 12.9551 93.5572 12.9411 93.3504 12.8717V8.31775H92.4544V9.87235C92.4544 10.3861 92.4544 10.8861 92.4544 11.3998C92.4544 11.8997 92.4819 12.4135 92.4406 12.8995C92.027 12.9551 90.2761 12.9415 90.0693 12.8582C90.0693 12.4833 90.0693 12.1083 90.0693 11.7334C90.0693 11.3585 90.0693 10.9693 90.0693 10.5944C90.0693 10.2195 90.0693 9.83096 90.0693 9.45607C90.0693 9.08117 90.0693 8.7062 90.0693 8.33131H88.0979V13.0941H77.2482V15.3016ZM97.3346 41.0579V49.2363C97.6655 49.3058 105.661 49.2783 105.827 49.2228V41.0579H97.3346ZM95.8595 8.06757C96.4937 8.12311 98.3134 8.09564 98.5202 8.02622C98.5202 7.90125 98.5202 7.77591 98.5202 7.63706C98.5202 7.4149 98.5616 7.37332 98.7822 7.37332C100.657 7.37332 102.518 7.37332 104.393 7.37332C104.614 7.37332 104.641 7.40134 104.641 7.6235C104.641 7.77623 104.641 7.91516 104.655 8.05401H107.137V0.722376H95.7768V5.95703H88.1393C88.1393 5.95703 88.0979 6.02654 88.0979 6.04042C88.0979 6.65136 88.0979 7.26206 88.0979 7.87299C88.0979 8.01184 88.1669 8.08113 88.3047 8.08113C88.8148 8.08113 89.3387 8.08113 89.8488 8.08113C90.0004 8.08113 90.0693 8.02573 90.0555 7.87299C90.0417 7.65083 90.1383 7.49861 90.2899 7.35977C90.6346 7.02653 91.0619 6.90118 91.5306 6.97061C92.151 7.0678 92.4544 7.47076 92.4544 7.97062C92.4544 7.99839 92.4681 8.02592 92.4819 8.06757H93.2815C93.4194 7.44275 93.7227 6.98482 94.412 6.95705C94.7291 6.94316 95.0461 6.99857 95.3356 7.16519C95.6665 7.35958 95.763 7.70689 95.8457 8.05401L95.8595 8.06757ZM107.44 16.3707V29.1031H108.929C108.929 28.9921 108.929 28.8953 108.929 28.7981C108.929 26.993 108.929 25.2017 108.929 23.3966C108.929 23.2161 108.984 23.0775 109.108 22.9525C110.197 21.8279 112.058 21.7861 113.258 22.8692C113.423 23.0219 113.506 23.1884 113.506 23.4244C113.506 25.2295 113.506 27.0208 113.506 28.8259C113.506 28.923 113.506 29.0202 113.52 29.1174H115.091V16.3985C114.705 16.343 112.83 16.3569 112.651 16.4263C112.651 16.5097 112.651 16.6071 112.651 16.7043C112.651 17.3847 112.651 18.0789 112.651 18.7593C112.651 19.0508 112.651 19.0644 112.362 19.0644C111.727 19.0644 111.093 19.0644 110.459 19.0644C110.39 19.0644 110.307 19.0647 110.197 19.0508V16.385H107.454L107.44 16.3707ZM89.9866 45.418C89.9866 45.418 89.9866 45.418 89.9728 45.418C89.9728 44.2655 90.0004 43.1134 89.9728 41.961C89.9452 41.0723 89.6281 40.2949 89.0216 39.6423C88.0565 38.587 86.5401 38.5171 85.5061 39.5169C84.7892 40.2111 84.4308 41.086 84.417 42.0579C84.3895 44.3628 84.417 46.6681 84.417 48.9868C84.417 49.2645 84.4446 49.2919 84.7203 49.2919C86.3746 49.2919 88.029 49.2919 89.6695 49.2919C89.9453 49.2919 89.9728 49.2507 89.9866 48.9868C89.9866 48.9313 89.9866 48.8614 89.9866 48.8058C89.9866 47.6811 89.9866 46.5427 89.9866 45.418ZM98.7547 22.0217H104.421V15.6209H98.7547V22.0217ZM104.421 13.8297V7.60926H98.7547V13.8297H104.421ZM104.421 26.396H98.7547V32.4632H104.421V26.396ZM115.091 10.7754H107.467C107.399 11.0948 107.426 15.9401 107.481 16.1206C107.785 16.1761 110.004 16.1622 110.183 16.0928C110.183 16.0234 110.197 15.9541 110.197 15.8846C110.197 15.357 110.197 14.8156 110.197 14.288C110.197 14.1769 110.197 14.0662 110.225 13.9551C110.349 13.4691 110.721 13.2604 111.176 13.1632C112.003 13.0105 112.623 13.5241 112.637 14.3572C112.637 14.857 112.637 15.357 112.637 15.8568C112.637 15.9402 112.637 16.0373 112.651 16.1206H115.077V10.7754H115.091ZM90.2623 29.5479H84.5963V34.588H90.2623V29.5479ZM107.095 27.8401V15.5518C106.558 15.4962 104.862 15.5376 104.669 15.6209V22.1051H105.372V24.577C105.524 24.6186 105.648 24.6465 105.813 24.6882C105.62 25.2574 105.455 25.7989 105.234 26.3126C105.027 26.3126 104.848 26.3265 104.683 26.3404C104.628 26.6597 104.641 27.6453 104.696 27.8258H107.095V27.8401ZM113.285 29.1031V28.8259C113.285 27.1597 113.285 25.493 113.285 23.8407C113.285 23.3408 113.078 22.9797 112.679 22.7159C112.072 22.2994 111.397 22.2858 110.707 22.3552C110.404 22.383 110.114 22.4805 109.852 22.6332C109.384 22.9109 109.122 23.2853 109.122 23.8685C109.136 25.5208 109.122 27.1593 109.122 28.8116C109.122 28.9088 109.122 29.0063 109.136 29.1174H113.258L113.285 29.1031ZM109.122 46.4037C109.122 47.2368 109.122 48.0704 109.122 48.9034C109.122 49.2367 109.163 49.2919 109.494 49.2919C110.611 49.2919 111.741 49.2919 112.858 49.2919C112.927 49.2919 113.009 49.2919 113.078 49.2919C113.202 49.2919 113.271 49.2088 113.285 49.0838C113.285 49.0282 113.285 48.959 113.285 48.9034C113.285 47.3067 113.285 45.6961 113.313 44.0993C113.313 43.5717 113.092 43.1824 112.679 42.9047C112.224 42.5992 111.714 42.502 111.162 42.502C110.652 42.502 110.156 42.6274 109.728 42.9189C109.329 43.1828 109.108 43.5439 109.122 44.0437C109.136 44.8352 109.122 45.6262 109.122 46.4037ZM105.841 38.8226H97.3484V40.8084H105.841V38.8226ZM104.655 13.8717C104.779 13.8717 104.862 13.8995 104.931 13.8995C105.096 13.8995 105.262 13.8856 105.441 13.8995C105.565 13.8995 105.703 13.8993 105.772 14.0521C105.634 14.4547 105.482 14.8711 105.331 15.3016C105.648 15.371 106.916 15.3436 107.095 15.288C107.095 15.2325 107.109 15.1768 107.109 15.1212C107.109 12.9413 107.123 10.7614 107.137 8.58148C107.137 8.49817 107.123 8.4285 107.109 8.33131C106.378 8.33131 105.675 8.33131 104.986 8.33131C104.669 8.33131 104.655 8.33163 104.655 8.66487C104.655 10.3172 104.655 11.9557 104.655 13.608C104.655 13.6913 104.655 13.7746 104.655 13.8995V13.8717ZM77.2482 12.8582H80.6258C80.6948 12.5388 80.6672 8.49792 80.612 8.33131H77.2482V12.8582ZM84.4859 8.31775V12.8304C84.7892 12.8859 87.6981 12.8717 87.8774 12.8161V8.31775H84.4859ZM84.2378 8.33131H80.9016C80.8464 8.85893 80.8739 12.6915 80.9291 12.8582H84.2378V8.33131ZM71.8027 29.853V32.0605C71.8027 32.0605 71.8303 32.0886 71.8579 32.1025C73.5811 30.7001 75.3044 29.2977 77.0139 27.9092V25.1322C77.0139 25.1322 76.9725 25.1041 76.9587 25.0902C75.2354 26.687 73.5122 28.2843 71.8027 29.8672V29.853ZM95.57 12.7049C95.57 12.6216 95.5838 12.5384 95.5838 12.469C95.5838 11.025 95.5838 9.58111 95.5838 8.15096C95.5838 8.06765 95.5838 7.9841 95.5563 7.90079C95.4184 7.40093 94.9359 7.10967 94.3982 7.19298C93.9157 7.26241 93.5711 7.65078 93.5711 8.16452C93.5711 9.60856 93.5711 11.0531 93.5711 12.4832C93.5711 12.5527 93.571 12.6216 93.5986 12.7049H95.57ZM71.7889 21.9939C71.8716 21.9106 71.9267 21.8555 71.9681 21.8C73.5949 19.7172 75.2217 17.6481 76.8484 15.5653C76.9725 15.4126 77.0277 15.2319 77.0277 15.0236C77.0277 14.5515 77.0277 14.0797 77.0277 13.5938C77.0277 13.5243 77.0277 13.4689 77.0139 13.3578C76.9449 13.4411 76.8898 13.4826 76.8484 13.5382C75.1941 15.6348 73.5535 17.7454 71.8992 19.842C71.8165 19.9531 71.7752 20.0642 71.7752 20.2169C71.7752 20.7307 71.7752 21.2446 71.7752 21.7722C71.7752 21.8277 71.7752 21.8831 71.7752 21.9803L71.7889 21.9939ZM112.417 18.8149C112.417 18.7177 112.431 18.6616 112.431 18.606C112.431 17.1759 112.431 15.7463 112.431 14.3022C112.431 13.7468 111.989 13.3436 111.41 13.3436C110.845 13.3436 110.418 13.8159 110.418 14.3158C110.431 15.746 110.418 17.1623 110.418 18.5925C110.418 18.6619 110.418 18.7315 110.445 18.8149H112.417ZM92.2476 12.7049V12.4134C92.2476 11.011 92.2476 9.60861 92.2476 8.22012C92.2476 8.16458 92.2476 8.09532 92.2476 8.03978C92.22 7.58157 91.9994 7.28985 91.5444 7.20654C91.3514 7.16489 91.1446 7.16489 90.9379 7.20654C90.6208 7.26208 90.4002 7.45669 90.3313 7.77604C90.3037 7.92878 90.2761 8.08162 90.2761 8.23435C90.2761 9.63674 90.2761 11.0531 90.2761 12.4554C90.2761 12.5387 90.2761 12.622 90.2761 12.7192H92.22L92.2476 12.7049ZM107.44 10.414H115.753C115.891 10.0392 116.042 9.67807 116.194 9.28929H107.44V10.414ZM91.7651 5.7211H95.5838C95.5838 4.19375 95.5838 2.67991 95.5838 1.16645C95.5838 1.13868 95.5838 1.09727 95.5563 1.0695C95.5563 1.0695 95.5562 1.06983 95.5425 1.05594C95.5425 1.05594 95.5286 1.05591 95.4873 1.02814C94.2603 2.56937 93.0334 4.12433 91.7651 5.7211ZM98.0929 26.0624H105.096C105.234 25.6736 105.372 25.2986 105.51 24.8821H97.6793C97.8172 25.2986 97.955 25.6736 98.0929 26.0624ZM91.3101 28.1316H83.5485C83.6864 28.5204 83.8242 28.8675 83.9483 29.2008H90.9793C91.0895 28.8398 91.1998 28.4926 91.3239 28.1316H91.3101ZM98.0791 15.2602H105.096C105.22 14.8992 105.331 14.5517 105.455 14.1768H97.7069C97.831 14.5517 97.955 14.8992 98.0791 15.2602ZM77.0001 8.62284C77.0001 8.62284 76.9449 8.60892 76.9312 8.59504C76.876 8.66446 76.8209 8.73375 76.7657 8.80318C76.4349 9.23361 76.1177 9.69241 75.7593 10.109C75.5111 10.4005 75.4009 10.7195 75.4009 11.1083C75.4009 12.3302 75.4009 13.5522 75.4009 14.7741C75.4009 14.8297 75.4008 14.8854 75.4146 14.9409C75.456 14.927 75.4698 14.927 75.4836 14.9131C75.9524 14.316 76.421 13.7325 76.876 13.1354C76.9863 12.9966 77.0139 12.858 77.0139 12.6914C77.0139 11.414 77.0139 10.1504 77.0139 8.87301C77.0139 8.7897 77.0139 8.7065 77.0001 8.63707V8.62284ZM73.6087 17.2318C73.6914 17.1485 73.7465 17.1209 73.7741 17.0792C74.2152 16.51 74.6702 15.9543 75.1114 15.385C75.1665 15.3155 75.1941 15.2181 75.1941 15.1348C75.1941 13.8018 75.1941 12.469 75.1941 11.1361C75.1941 11.0806 75.1803 11.0252 75.1665 10.9835C75.1527 10.9835 75.1252 10.9696 75.1114 10.9558C75.07 11.0113 75.0286 11.067 75.0011 11.1225C74.5737 11.6779 74.1463 12.2329 73.719 12.7883C73.6225 12.8994 73.5949 13.0244 73.5949 13.1632C73.5949 14.4268 73.5949 15.6903 73.5949 16.9538C73.5949 17.0232 73.5949 17.1065 73.6087 17.2453V17.2318ZM84.2378 22.522V24.6183H87.5189V22.522H84.2378ZM87.5189 17.6481C87.5741 17.2315 87.5602 15.7184 87.4913 15.5518H84.2378V17.6481H87.5189ZM84.2378 17.8982V19.9667C84.5549 20.0362 87.3535 20.0226 87.5189 19.9532C87.5741 19.5366 87.5464 18.0787 87.4775 17.8982H84.224H84.2378ZM91.0206 22.5356H87.7947V24.6183H91.0206V22.5356ZM80.7499 17.8982V19.9667C81.0669 20.0223 83.8104 20.0087 83.9897 19.9532V17.8982H80.7499ZM83.9483 24.6183C84.0172 24.4239 84.0172 22.7442 83.9483 22.522H80.7499V24.6183H83.9483ZM80.7499 15.5518V17.6345H83.9621C84.031 17.3568 84.0172 15.7323 83.9483 15.5518H80.7499ZM87.7671 17.6481H91.0068V15.5653H87.7671V17.6481ZM91.0068 19.9945V17.9118C90.6621 17.8563 87.9463 17.8705 87.7809 17.926V19.981H91.0068V19.9945ZM87.5189 22.2861V20.2447H84.2378V22.2861H87.5189ZM80.5017 22.522H77.3033V24.6183H80.5017V22.522ZM80.5017 15.5653H77.3033V17.6481H80.5017V15.5653ZM80.5017 17.8982H77.3033V19.981H80.5017V17.8982ZM87.7809 20.2305V22.2719H91.0206V20.2305H87.7809ZM80.7362 22.2719H83.9759V20.2447H80.7362V22.2719ZM77.3033 20.2305V22.2719H80.488V20.2305H77.3033ZM73.8155 30.811V35.5182C74.1188 35.3654 74.3807 35.2265 74.6289 35.0876V30.1588C74.3118 30.367 74.0636 30.6166 73.8155 30.811ZM103.401 35.1154V32.7968C102.835 32.7968 102.284 32.7687 101.732 32.8103C101.677 33.3518 101.705 34.9349 101.76 35.1154H103.401ZM101.484 35.1154V32.8103H99.8023C99.8023 33.5879 99.8023 34.3518 99.8023 35.1154H101.484ZM103.401 24.6183V22.3552C102.835 22.3552 102.284 22.3552 101.732 22.3552V24.6048H103.401V24.6183ZM101.484 24.6183V22.3688H99.8437C99.7748 22.6465 99.7886 24.4239 99.8437 24.6183H101.47H101.484ZM99.568 32.8103C99.0579 32.7826 98.5616 32.7551 98.0378 32.7412V35.1019H99.568V32.8103ZM103.649 35.1154H105.124V32.769C104.628 32.769 104.145 32.7412 103.649 32.7968V35.1154ZM99.568 24.6183V22.3552H98.0516V24.6183H99.568ZM103.663 22.3552V24.6183H105.124V22.3552H103.663ZM76.9587 24.7431V22.5912C76.8897 22.6467 76.8484 22.6607 76.807 22.7024C76.3659 23.1745 75.9247 23.6605 75.4973 24.1465C75.4422 24.202 75.4146 24.2994 75.4146 24.3688C75.4146 24.8826 75.4146 25.3958 75.4146 25.9234C75.4146 25.979 75.4147 26.0344 75.4422 26.1594C75.9799 25.6734 76.4624 25.2155 76.9587 24.7573V24.7431ZM75.4146 21.564C75.4146 21.564 75.456 21.5915 75.4698 21.6054C75.525 21.5638 75.5801 21.522 75.6215 21.4664C76.035 20.9943 76.4349 20.5222 76.8484 20.0501C76.9312 19.9668 76.9587 19.8697 76.9587 19.7586C76.9587 19.2587 76.9587 18.7588 76.9587 18.2589C76.9587 18.2034 76.9449 18.1483 76.9312 18.065C76.8622 18.1206 76.8208 18.1339 76.7932 18.1755C76.3521 18.717 75.911 19.2727 75.4836 19.8142C75.4423 19.8697 75.4146 19.939 75.4146 19.9945C75.4146 20.5222 75.4146 21.0503 75.4146 21.564ZM73.5949 23.7437C73.6777 23.716 73.7052 23.702 73.719 23.6881C74.1877 23.1328 74.6702 22.5913 75.139 22.0359C75.1803 21.9943 75.1941 21.9111 75.2079 21.8556C75.2217 21.3418 75.2492 20.8418 75.263 20.3281C75.263 20.2726 75.2492 20.2168 75.2354 20.1057C75.1527 20.2029 75.0976 20.2448 75.0563 20.3003C74.7392 20.703 74.4221 21.1194 74.105 21.522C73.9396 21.7303 73.7328 21.9111 73.65 22.1471C73.5673 22.397 73.6224 22.6748 73.6087 22.9525C73.6087 23.2025 73.6087 23.4522 73.6087 23.7437H73.5949ZM76.9725 20.3281C76.9725 20.3281 76.9449 20.3281 76.9312 20.3281C76.4624 20.8696 75.9937 21.4107 75.5387 21.9661C75.4698 22.0494 75.4284 22.1611 75.4284 22.2583C75.4146 22.7443 75.4146 23.2296 75.4146 23.7017C75.4146 23.7295 75.4146 23.7577 75.4284 23.8271C75.4836 23.7716 75.525 23.7437 75.5525 23.7159C75.8972 23.3549 76.2143 22.9661 76.5727 22.619C76.8898 22.3135 77.0138 21.9802 76.9863 21.5498C76.9587 21.1471 76.9863 20.7443 76.9863 20.3417L76.9725 20.3281ZM73.5949 27.8258C73.5949 27.8258 73.6776 27.798 73.6914 27.7702C74.1601 27.3398 74.615 26.9091 75.0838 26.4787C75.1803 26.3815 75.1941 26.2843 75.1941 26.1594C75.1941 25.6734 75.1941 25.1741 75.1941 24.6882C75.1941 24.6326 75.1941 24.563 75.1941 24.4658C74.6702 25.049 74.1739 25.6043 73.6914 26.1736C73.6362 26.2292 73.6087 26.3266 73.6087 26.396C73.6087 26.8681 73.6087 27.326 73.6087 27.8258H73.5949ZM73.6224 25.7987C73.6224 25.7987 73.6914 25.7848 73.7052 25.7709C74.1739 25.2571 74.6426 24.7294 75.1114 24.2156C75.1527 24.1601 75.1941 24.0769 75.1941 24.0075C75.1941 23.5215 75.1941 23.0216 75.1941 22.5356C75.1941 22.5078 75.1803 22.4799 75.1665 22.4244C75.1113 22.4661 75.07 22.4804 75.0425 22.522C74.5875 23.0497 74.1325 23.5629 73.6914 24.1044C73.6362 24.1739 73.6087 24.2852 73.5949 24.3824C73.5949 24.7989 73.5949 25.2154 73.5949 25.6319C73.5949 25.6874 73.6087 25.7432 73.6224 25.8265V25.7987ZM75.4284 19.4257C75.4284 19.4257 75.5112 19.384 75.5387 19.3701C75.9937 18.8008 76.4486 18.2455 76.9036 17.6623C76.9449 17.6068 76.9725 17.5097 76.9725 17.4264C76.9725 16.9543 76.9725 16.4957 76.9725 16.0236C76.9725 15.982 76.9725 15.9266 76.945 15.8433C76.8622 15.9127 76.8209 15.9545 76.7795 16.0101C76.3522 16.5516 75.9247 17.0927 75.4973 17.6481C75.4422 17.7175 75.4146 17.8288 75.4146 17.926C75.4146 18.3565 75.4146 18.7729 75.4146 19.2033C75.4146 19.2728 75.4146 19.3282 75.4284 19.4115V19.4257ZM73.5949 21.7166C73.5949 21.7166 73.6501 21.7441 73.6776 21.7579C73.7052 21.7163 73.719 21.6606 73.7466 21.619C74.1464 21.1191 74.5599 20.6198 74.946 20.12C75.0562 19.9672 75.1665 19.7727 75.1803 19.6061C75.2079 19.1201 75.1803 18.6205 75.1803 18.1206C75.1527 18.1484 75.1252 18.1478 75.1114 18.1755C74.6289 18.7865 74.1601 19.3975 73.6914 20.0223C73.6362 20.1056 73.6087 20.2309 73.6087 20.3281C73.6087 20.6058 73.6087 20.8836 73.6087 21.1613C73.6087 21.3557 73.6087 21.5358 73.6087 21.7302L73.5949 21.7166ZM73.3743 20.4528C73.3743 20.4528 73.3192 20.4111 73.3054 20.3973C73.3054 20.4389 73.2916 20.481 73.264 20.5227C72.8228 21.092 72.3679 21.6609 71.9268 22.2441C71.8716 22.3274 71.8303 22.4387 71.8303 22.5498C71.8303 22.9525 71.8303 23.3689 71.8303 23.7715C71.8303 23.8271 71.8303 23.8828 71.8441 23.9661C72.2714 23.4385 72.6437 22.9385 73.0573 22.4664C73.3192 22.1749 73.4157 21.883 73.3881 21.4942C73.3605 21.1471 73.3881 20.7864 73.3881 20.4393L73.3743 20.4528ZM71.8165 27.8123C71.8165 27.8123 71.913 27.7563 71.9268 27.7424C72.3679 27.2426 72.8228 26.7569 73.264 26.257C73.3191 26.1876 73.3605 26.0901 73.3605 26.0068C73.3605 25.5209 73.3605 25.0487 73.3605 24.5627C73.3605 24.5627 73.333 24.5492 73.3054 24.5214C72.9607 24.924 72.6437 25.3546 72.2714 25.7295C71.913 26.0905 71.72 26.4928 71.8027 27.0204C71.8302 27.2703 71.8027 27.5343 71.8027 27.8258L71.8165 27.8123ZM71.8165 25.8543C71.8165 25.8543 71.8992 25.7848 71.913 25.7709C72.3541 25.2571 72.8091 24.7432 73.2503 24.2156C73.333 24.1184 73.3605 23.9657 73.3743 23.8407C73.3881 23.438 73.3743 23.0494 73.3743 22.6468C73.3743 22.5912 73.3743 22.5494 73.3467 22.4522C73.2778 22.5494 73.2226 22.6048 73.1813 22.6603C72.8091 23.1185 72.4506 23.5906 72.0784 24.0488C71.8992 24.271 71.8027 24.4935 71.8165 24.7851C71.844 25.1322 71.8165 25.4655 71.8165 25.8543ZM73.3743 26.4929C73.3743 26.4929 73.2779 26.5899 73.2503 26.6177C72.9883 26.9093 72.754 27.2149 72.4645 27.4787C71.9957 27.9091 71.7337 28.395 71.8027 29.0476C71.8165 29.1864 71.8027 29.3253 71.8027 29.4781C71.8578 29.4642 71.8854 29.4642 71.8992 29.4503C72.3679 29.0198 72.8229 28.5898 73.2916 28.1594C73.333 28.1177 73.3743 28.0478 73.3743 27.9784C73.3743 27.4924 73.3743 27.0202 73.3743 26.5065V26.4929ZM87.8912 6.34551C87.8912 6.34551 87.8497 6.33228 87.8222 6.31839C87.7119 6.45724 87.5878 6.59582 87.4775 6.73467C87.3672 6.87352 87.2432 7.02601 87.1329 7.17875C87.0226 7.33148 86.8985 7.47076 86.7882 7.6235C86.6917 7.76235 86.5263 7.87318 86.485 8.06757H87.8912C87.8912 7.4844 87.8912 6.9148 87.8912 6.34551Z" fill="black"/>
<path d="M54.2801 31.7554C54.3215 31.8248 54.3629 31.8941 54.3766 31.9636C54.4594 32.6717 54.7075 33.3106 55.0935 33.8938C55.1073 33.9215 55.1211 33.9491 55.1487 34.0185C54.9557 34.1573 54.7626 34.3098 54.5558 34.4626C54.5558 34.6153 54.5558 34.7542 54.5558 34.8931C54.6523 35.9206 54.6799 36.9619 54.6386 37.9894C54.611 38.5309 54.5558 39.0865 54.349 39.6003C54.0182 40.475 53.384 40.9194 52.4604 41.0166C52.0606 41.0582 51.6746 41.0443 51.2748 40.961C50.8198 40.8638 50.42 40.6559 50.1167 40.281C50.0753 40.2393 50.0477 40.1836 50.0064 40.142C49.6066 40.2947 49.2481 40.4749 48.8759 40.5583C48.2417 40.711 47.5938 40.8082 46.9459 40.9054C46.1876 41.0026 45.4294 41.0861 44.6573 41.1556C44.0783 41.2111 43.4994 41.239 42.9204 41.2667C42.0105 41.3223 41.0868 41.3634 40.1631 41.4051C39.267 41.4328 38.3709 41.461 37.4886 41.4749C34.7727 41.5027 32.0568 41.5305 29.341 41.5305C26.7492 41.5305 24.1711 41.5304 21.5793 41.5027C20.3662 41.5027 19.153 41.4467 17.9398 41.4051C16.768 41.3634 15.5823 41.308 14.4105 41.2525C12.963 41.1831 11.5292 41.0305 10.1093 40.7528C9.61295 40.6556 9.15799 40.4889 8.71684 40.2389C8.63412 40.1973 8.55141 40.1555 8.46869 40.0999C8.39976 40.1694 8.34461 40.2251 8.28947 40.2945C7.79317 40.8777 7.14524 41.0583 6.41457 41.0444C6.24914 41.0444 6.08372 41.0165 5.91829 40.9888C5.29791 40.8638 4.89812 40.4753 4.63619 39.906C4.59483 39.8227 4.55343 39.7253 4.51208 39.6281C4.47072 39.6558 4.44315 39.6559 4.42936 39.6837C3.98821 40.4473 3.27134 40.7805 2.45795 40.961C2.14087 41.0304 1.82379 41.0446 1.5067 40.9752C0.927686 40.8641 0.417619 40.4615 0.321116 39.6423C0.279757 39.3091 0.321116 38.9477 0.321116 38.5867C0.472764 38.5867 0.596822 38.5728 0.734684 38.5589C0.776042 38.6839 0.803624 38.795 0.831197 38.906C0.996631 39.4892 1.45153 39.8361 2.16841 39.7528C2.775 39.6834 3.29894 39.4199 3.78145 39.045C3.98825 38.8784 4.05717 38.698 4.02959 38.4342C3.93309 37.4622 3.67114 36.5176 3.4092 35.5873C3.3127 35.2541 3.35405 34.9905 3.57463 34.7405C3.67113 34.6295 3.75385 34.5049 3.83657 34.4077C3.87793 34.3521 3.94688 34.3103 4.02959 34.2409C4.08474 34.352 4.12612 34.4209 4.13991 34.4904C4.38806 35.6151 4.60858 36.7539 4.85673 37.8925C4.92566 38.2118 5.00837 38.5172 5.10487 38.8226C5.25652 39.2947 5.5874 39.5726 6.06992 39.7115C6.51107 39.8364 6.95225 39.8225 7.37962 39.6559C7.88971 39.4615 8.13784 39.1147 8.13784 38.5731C8.12405 37.4485 8.09649 36.3232 8.05513 35.1846C8.02755 34.4348 7.95864 33.6991 7.9035 32.9493C7.88971 32.6994 7.93103 32.5051 8.12404 32.3385C8.33083 32.1441 8.52386 31.9359 8.74443 31.7276C8.86851 31.8942 8.85476 32.0471 8.86855 32.1859C9.03398 34.2409 9.06153 36.2816 9.02017 38.3365C9.02017 38.3365 9.02017 38.3504 9.02017 38.3643C8.95124 38.8086 9.18564 39.0868 9.57165 39.2118C9.97145 39.3368 10.3988 39.4617 10.8124 39.5311C11.6257 39.67 12.453 39.7811 13.2801 39.8782C13.8316 39.9477 14.383 39.9617 14.9482 39.9894C15.9684 40.045 17.0023 40.0861 18.0225 40.1277C19.0013 40.1555 19.9801 40.1698 20.9589 40.1976C24.7226 40.3225 28.4725 40.2949 32.2361 40.281C33.5458 40.281 34.8416 40.2389 36.1513 40.2111C37.3231 40.1834 38.4949 40.1555 39.6668 40.1277C40.8662 40.0861 42.0793 40.0446 43.2787 39.9752C44.2024 39.9197 45.1261 39.8226 46.0498 39.7393C46.7804 39.6698 47.5111 39.5866 48.228 39.4755C48.6416 39.42 49.0414 39.2948 49.455 39.1976C49.648 39.1559 49.7583 39.0313 49.7858 38.8369C49.8272 38.6425 49.8823 38.4479 49.9237 38.2396C49.965 38.0591 50.0616 37.9063 50.2132 37.8091C50.3924 37.6841 50.5579 37.5317 50.8198 37.4762C50.7922 37.615 50.7647 37.6983 50.7509 37.7955C50.6957 38.0871 50.6268 38.3785 50.613 38.6701C50.5992 39.1561 50.8473 39.4896 51.3161 39.6423C51.8813 39.8228 52.4603 39.8506 53.0255 39.6423C53.6046 39.4479 53.8527 39.1004 53.839 38.5033C53.8114 37.5869 53.7562 36.6705 53.7011 35.7541C53.6597 35.1154 53.5908 34.4765 53.5356 33.8239C53.5218 33.6156 53.4943 33.4213 53.4667 33.2131C53.4391 32.977 53.4667 32.7414 53.5908 32.5608C53.77 32.297 53.963 32.0609 54.156 31.811C54.1836 31.7694 54.2387 31.755 54.3076 31.7134L54.2801 31.7554Z" fill="black"/>
<path d="M53.1637 28.0483C53.467 28.09 53.7014 28.1317 53.9358 28.1595C54.5975 28.215 55.2454 28.215 55.8934 28.1039C56.1002 28.0761 56.3208 28.0062 56.5138 27.9229C56.7757 27.7979 56.817 27.7012 56.7481 27.4096C56.693 27.1875 56.6378 26.9511 56.5413 26.729C56.3759 26.3541 56.1967 25.993 56.0037 25.632C55.8934 25.4376 55.8933 25.2708 56.0312 25.0903C56.1966 24.8681 56.3345 24.646 56.4862 24.4238C56.5275 24.3683 56.5827 24.3129 56.6516 24.2435C56.7067 24.3129 56.7619 24.3683 56.7895 24.4238C57.2307 25.1875 57.5339 26.0068 57.6304 26.8815C57.6994 27.6174 57.4788 28.2845 56.9963 28.8537C56.7619 29.1314 56.4449 29.2697 56.1002 29.3392C54.7905 29.5613 53.5084 29.5339 52.2538 29.0341C52.0746 28.9647 51.9092 28.9647 51.7437 29.0341C50.8752 29.3396 49.9929 29.5617 49.083 29.7005C48.5454 29.7838 48.0077 29.8253 47.4839 29.8809C45.9536 30.0197 44.4233 29.9921 42.893 29.9921C41.6247 29.9921 40.3702 29.9507 39.1019 29.9229C38.7434 29.9229 38.3987 29.8812 38.0403 29.8673C37.9852 29.9923 37.9438 30.0894 37.9025 30.1866C37.6405 30.7837 37.2959 31.3111 36.772 31.7277C36.0827 32.2831 35.3245 32.4498 34.4697 32.2138C33.8769 32.0611 33.3254 31.825 32.8016 31.5195C32.7602 31.4918 32.7188 31.4775 32.6913 31.4497C32.5948 31.3664 32.5672 31.2415 32.6223 31.1304C32.6775 31.0193 32.774 30.9914 32.8981 31.0192C33.4082 31.1719 33.9183 31.228 34.4421 31.2002C35.5037 31.1447 36.4273 30.7693 37.158 29.9778C37.2131 29.9223 37.2407 29.8672 37.3234 29.7561C37.0615 29.7145 36.8547 29.6724 36.6479 29.6307C36.1378 29.5335 35.6415 29.3674 35.1866 29.1175C34.5524 28.7703 34.2353 28.2425 34.2353 27.5066C34.2353 26.6596 34.58 25.9789 35.2004 25.4374C35.738 24.9792 36.4687 24.9931 36.9925 25.4652C37.3785 25.8123 37.5991 26.2569 37.7646 26.729C37.93 27.201 38.0541 27.7007 38.0955 28.2144C38.1093 28.4505 38.1506 28.4927 38.3849 28.5066C39.0605 28.576 39.736 28.6589 40.4253 28.7005C41.1973 28.7422 41.9693 28.7561 42.7551 28.7561C43.927 28.7561 45.0988 28.7283 46.2707 28.7005C46.4223 28.7005 46.505 28.6455 46.5601 28.5066C46.6842 28.215 46.8083 27.9229 46.96 27.6313C47.1668 27.2148 47.2632 26.757 47.2494 26.3127C47.2494 25.2297 47.1943 24.1604 47.1667 23.0774C47.1391 22.4526 47.1116 21.8276 47.0565 21.2028C47.0289 20.8557 47.1254 20.5917 47.3735 20.3695C47.4838 20.2723 47.5803 20.1755 47.7044 20.0645C47.7595 20.1616 47.8147 20.231 47.8285 20.3004C47.9526 20.953 48.2145 21.5637 48.5591 22.133C48.5867 22.1746 48.5867 22.2303 48.6143 22.2997C48.4902 22.3831 48.3799 22.4802 48.2421 22.5635C48.0904 22.6607 48.0353 22.7721 48.0353 22.9526C48.0353 23.4664 48.0628 23.9657 48.0353 24.4794C48.0077 25.0348 47.9526 25.5766 47.8974 26.1181C47.8974 26.2153 47.8974 26.3122 47.8698 26.4788C47.9525 26.3955 47.9939 26.3401 48.0353 26.2984C48.4075 25.8402 48.8073 25.3964 49.276 25.0354C49.9654 24.5077 50.7374 24.2161 51.6197 24.2855C52.2401 24.3411 52.7501 24.6047 53.1223 25.1045C53.7427 25.9376 53.8116 26.8265 53.3567 27.7568C53.3153 27.854 53.2602 27.9512 53.1775 28.1039L53.1637 28.0483ZM47.4149 28.548C47.5114 28.548 47.6079 28.548 47.6906 28.548C48.0766 28.5063 48.4627 28.4645 48.8487 28.409C49.9102 28.2701 50.9442 28.048 51.9644 27.6869C52.1849 27.6036 52.3779 27.4651 52.5847 27.3541C52.7501 27.2569 52.7777 27.1176 52.7364 26.9371C52.5434 26.0485 51.7575 25.6319 51.082 25.5764C50.4479 25.5209 49.8826 25.7019 49.3726 26.0767C48.5178 26.7155 47.9249 27.5763 47.4149 28.5066C47.4149 28.5066 47.4149 28.5199 47.4149 28.5615V28.548ZM37.4199 28.312C37.4199 28.2426 37.4199 28.2008 37.4199 28.1731C37.2683 27.5621 37.0064 27.0069 36.5101 26.6042C36.1103 26.2849 35.5726 26.2848 35.2004 26.5764C34.7592 26.9235 34.7592 27.2147 35.228 27.548C35.8759 28.0062 36.6341 28.1732 37.4337 28.312H37.4199Z" fill="black"/>
<path d="M3.79581 16.4263C3.69931 16.4818 3.61652 16.5236 3.54758 16.5653C2.69284 17.0651 1.81055 17.1067 0.900667 16.7734C0.487083 16.6207 0.29406 16.3567 0.280273 15.9124C0.280273 15.1626 0.597378 14.5379 1.07989 13.9964C1.68648 13.3161 2.41712 12.8163 3.20293 12.372C3.28565 12.3303 3.38217 12.2746 3.47867 12.2052C3.46488 12.0941 3.45114 11.9966 3.43736 11.8995C3.38221 11.6356 3.4098 11.4274 3.63038 11.233C3.82339 11.0803 3.9888 10.8863 4.20938 10.6642C4.25074 10.803 4.27829 10.872 4.27829 10.9415C4.31965 12.2744 4.36102 13.6215 4.3748 14.9544C4.3748 15.607 4.67811 16.0656 5.24334 16.3571C5.64314 16.5654 6.07047 16.6345 6.49784 16.7178C7.9316 16.9816 9.39298 17.0233 10.8543 17.0372C12.1778 17.051 13.5013 17.0511 14.8247 17.065C15.4175 17.065 16.0241 17.0924 16.6169 17.1063C17.1684 17.1063 17.7335 17.0792 18.285 17.0792C19.1397 17.0792 19.9807 17.0788 20.8355 17.065C22.0211 17.0372 23.2067 16.9819 24.3923 16.9402C25.1092 16.9124 25.8398 16.8707 26.5567 16.829C27.3011 16.7735 28.0319 16.7039 28.7763 16.6344C29.6586 16.565 30.5271 16.4264 31.3818 16.2182C31.6713 16.1487 31.9195 16.0237 32.1263 15.8154C32.2091 15.7321 32.2504 15.635 32.2366 15.5239C32.2091 15.2323 32.0988 14.9823 31.9609 14.7463C31.5887 14.1076 31.051 13.5936 30.4996 13.1076C30.086 12.7466 29.6724 12.3856 29.2175 12.0662C28.4592 11.5386 28.7211 10.5526 29.2588 10.1638C29.7137 9.83059 30.2238 9.59517 30.7339 9.41467C31.9333 8.98424 33.1465 8.56712 34.3459 8.13668C34.3735 8.13668 34.4148 8.10889 34.4424 8.10889C34.5113 8.10889 34.6078 8.10891 34.6216 8.13668C34.6492 8.19222 34.6492 8.28996 34.6216 8.3455C34.5527 8.48435 34.4562 8.62293 34.3735 8.76178C33.9461 9.44214 34.1115 9.28911 33.3946 9.49738C32.1677 9.87228 30.9821 10.3308 29.8103 10.8445C29.7413 10.8723 29.6861 10.9137 29.5896 10.9693C29.7137 11.0803 29.8103 11.1497 29.9068 11.233C30.472 11.7051 31.051 12.1494 31.5887 12.6493C31.9195 12.9548 32.2091 13.3161 32.4848 13.6771C32.9949 14.3436 33.0362 15.0796 32.8156 15.871C32.5261 16.8569 31.8781 17.398 30.8717 17.5368C30.0997 17.634 29.3277 17.7593 28.5419 17.8426C27.439 17.9537 26.3361 18.0647 25.2195 18.1341C24.1717 18.2035 23.1102 18.2311 22.0625 18.2589C21.1664 18.2866 20.2703 18.3006 19.3879 18.3145C17.8163 18.3145 16.2309 18.3426 14.6593 18.3287C13.2255 18.3287 11.7917 18.2866 10.3579 18.2311C9.3102 18.1894 8.2763 18.1201 7.22855 18.0229C6.69089 17.9674 6.15317 17.8703 5.61551 17.7314C4.8297 17.537 4.12661 17.1899 3.72681 16.3707L3.79581 16.4263ZM3.52007 13.3713C3.43735 13.3991 3.36839 13.4134 3.31324 13.4412C2.81694 13.7605 2.30683 14.052 1.82432 14.3992C1.60374 14.5519 1.41075 14.7743 1.24532 14.9964C1.02474 15.288 1.13501 15.5237 1.47966 15.6209C2.12761 15.8014 2.76179 15.76 3.39596 15.5795C3.5476 15.5379 3.58898 15.4543 3.58898 15.3015C3.58898 14.9544 3.58896 14.6073 3.56138 14.2602C3.56138 13.9686 3.53384 13.691 3.50627 13.3856L3.52007 13.3713Z" fill="black"/>
<path d="M5.21563 29.006C5.16049 29.2698 5.11915 29.5058 5.06401 29.728C4.91236 30.3389 4.67798 30.9221 4.27819 31.408C3.68538 32.13 2.92712 32.394 2.01724 32.2135C1.50715 32.1163 1.01084 31.9492 0.542108 31.7131C0.486964 31.6853 0.431839 31.6582 0.390481 31.6304C0.293978 31.561 0.266422 31.4082 0.321567 31.2833C0.390498 31.1583 0.487004 31.1857 0.583507 31.2134C0.762727 31.2551 0.941967 31.3108 1.12119 31.3524C1.52099 31.4496 1.92074 31.394 2.27918 31.2412C3.20285 30.8386 3.9473 30.2278 4.42981 29.3253C4.52632 29.1448 4.5263 28.9919 4.41601 28.8114C4.15408 28.4087 3.91974 28.0059 3.67159 27.6032C3.51994 27.3533 3.49242 27.1175 3.63028 26.8676C3.72678 26.6871 3.80942 26.5064 3.89213 26.3259C3.93349 26.2565 3.97491 26.1872 4.04384 26.09C4.11278 26.1872 4.16791 26.2429 4.20927 26.3124C4.52635 27.0066 5.06399 27.451 5.73951 27.7564C6.40125 28.0619 7.09054 28.2145 7.79364 28.3117C8.46916 28.4089 9.15845 28.4779 9.84776 28.5612C10.1511 28.589 10.4544 28.6168 10.7577 28.6168C11.7227 28.6446 12.6739 28.6727 13.639 28.6866C16.0653 28.7005 18.4917 28.7144 20.9181 28.7144C22.1175 28.7144 23.3307 28.6585 24.53 28.6168C25.6192 28.5751 26.6945 28.5062 27.7836 28.4229C28.8589 28.3396 29.948 28.2558 30.9958 27.9781C31.4093 27.8671 31.5748 27.7838 31.3542 27.2839C31.1474 26.8118 30.9544 26.34 30.72 25.8818C30.6097 25.6736 30.6098 25.5067 30.7476 25.3123C30.8855 25.1318 30.9957 24.9372 31.1336 24.7428C31.1749 24.6873 31.2164 24.6458 31.2853 24.5625C31.3404 24.6319 31.3955 24.6602 31.4231 24.7157C31.7678 25.3822 32.0986 26.0619 32.1951 26.8256C32.2641 27.3532 32.2503 27.8671 32.0986 28.3809C31.9608 28.8252 31.6299 29.0891 31.2026 29.1863C30.789 29.2835 30.3616 29.3389 29.9342 29.3944C29.3965 29.4639 28.8727 29.5335 28.335 29.589C27.8525 29.6307 27.3837 29.6724 26.9012 29.7002C26.0878 29.7557 25.2883 29.7975 24.4749 29.8392C23.9786 29.867 23.4823 29.8948 22.986 29.8948C21.759 29.9226 20.5458 29.9497 19.3188 29.9497C16.92 29.9497 14.5213 29.9639 12.1087 29.9361C10.9782 29.9223 9.86155 29.8388 8.73109 29.7416C8.02799 29.686 7.32496 29.6028 6.63565 29.4778C6.24964 29.4084 5.8636 29.2421 5.49137 29.1171C5.40866 29.0894 5.33971 29.0476 5.21563 29.006Z" fill="black"/>
<path d="M52.3502 14.7875C52.3502 15.0791 52.3226 15.357 52.3502 15.6208C52.4191 16.1067 52.8465 16.5093 53.3428 16.5787C53.7426 16.6343 54.2113 16.482 54.4732 15.9821C54.6111 15.7183 54.6801 15.4127 54.7766 15.1211C54.8731 14.8017 55.1901 14.5516 55.5348 14.5794C55.521 14.7044 55.4935 14.8158 55.4797 14.9408C55.4659 15.2046 55.4245 15.4678 55.4521 15.7177C55.4797 16.0093 55.6589 16.2457 55.9071 16.4262C56.0449 16.5234 56.2103 16.5648 56.3895 16.551C56.5825 16.5371 56.6929 16.4399 56.7618 16.2594C56.8583 15.9956 56.7755 15.7317 56.7342 15.4818C56.7066 15.2874 56.6377 15.0934 56.5964 14.8852C56.555 14.7324 56.5964 14.5935 56.7067 14.4824C56.8997 14.2881 57.0927 14.0935 57.2857 13.9129C57.3408 13.8713 57.4097 13.8573 57.52 13.8018C57.5614 14.01 57.6027 14.1626 57.6165 14.3292C57.713 15.0096 57.7406 15.6763 57.5338 16.3428C57.3684 16.8566 57.0788 17.2733 56.6515 17.5788C56.169 17.9259 55.7002 17.9116 55.2453 17.5367C55.0798 17.3979 54.9282 17.2457 54.749 17.0791C54.6801 17.1624 54.6112 17.2178 54.5422 17.2872C53.9632 17.9121 53.0809 18.0509 52.4329 17.6066C52.1572 17.4261 51.978 17.1622 51.8125 16.8567C51.7436 16.8845 51.6747 16.912 51.6058 16.9537C50.6959 17.523 49.7033 17.8423 48.6555 17.995C47.9111 18.1061 47.1804 18.2171 46.436 18.2866C45.0298 18.4115 43.6236 18.4675 42.2174 18.3564C41.5281 18.3009 40.8388 18.2729 40.1495 18.1896C39.4602 18.1063 38.7709 18.0091 38.0816 17.8703C37.7645 17.8009 37.4612 17.6339 37.1441 17.5089C37.0752 17.4812 36.9925 17.4397 36.8822 17.3842C36.8684 17.5092 36.8408 17.6063 36.8408 17.7035C36.7443 18.5505 36.4962 19.3279 35.9171 19.9666C35.3795 20.5637 34.6764 20.7584 33.9043 20.6751C33.2977 20.6195 32.7325 20.3975 32.1811 20.1198C32.0708 20.0643 31.9605 19.9946 31.9743 19.8419C31.9743 19.6475 32.057 19.5782 32.25 19.6337C32.4016 19.6754 32.5533 19.7307 32.7049 19.7585C33.2702 19.8695 33.7941 19.7585 34.2904 19.4947C35.09 19.0782 35.6689 18.4394 36.1239 17.6757C36.2066 17.5369 36.1791 17.4258 36.1102 17.3008C35.8344 16.8565 35.5725 16.3987 35.2967 15.9543C35.1589 15.7322 35.1313 15.5378 35.2691 15.3157C35.3794 15.1213 35.4622 14.8985 35.5725 14.7041C35.6138 14.6347 35.6552 14.5654 35.7103 14.4682C35.7792 14.5376 35.8344 14.5795 35.8619 14.635C36.3445 15.4959 37.1028 16.0096 37.9989 16.3706C38.7571 16.6761 39.5428 16.8287 40.3424 16.9259C41.6108 17.0925 42.8929 17.1482 44.175 17.1205C44.8781 17.1066 45.5675 17.037 46.2705 16.9815C47.3321 16.8982 48.3798 16.7175 49.4275 16.4676C50.1169 16.3009 50.7923 16.0929 51.3714 15.6764C51.6609 15.4681 51.8952 15.2184 52.0607 14.913C52.1572 14.7325 52.1986 14.7185 52.3778 14.8296L52.3502 14.7875Z" fill="black"/>
<path d="M46.3672 33.9351C46.0777 34.421 45.7192 34.7264 45.2091 34.8374C44.4647 34.9902 43.734 35.143 42.9896 35.2958C40.3151 35.8512 37.6681 36.4898 35.0487 37.2673C34.2629 37.5034 33.4771 37.7533 32.6913 37.9894C32.6086 38.0171 32.5258 38.0311 32.4431 38.045C32.4293 38.0172 32.4155 38.0036 32.4155 38.0036C32.5947 37.6148 32.7464 37.1841 33.2013 37.0314C35.6415 36.226 38.123 35.5739 40.6321 35.0463C42.0245 34.7547 43.4307 34.4765 44.8231 34.1988C45.278 34.1016 45.733 34.0323 46.188 33.9629C46.2155 33.9629 46.2569 33.9629 46.3396 33.9629L46.3672 33.9351Z" fill="black"/>
<path d="M23.5371 10.7475C23.5371 10.7475 23.5234 10.8581 23.4958 10.8858C23.482 10.9275 23.4407 10.9557 23.4131 10.9835C22.9444 11.5389 22.9444 11.5389 22.0483 11.7055C18.5466 12.372 15.1 13.2326 11.6811 14.2323C11.0745 14.4128 10.4541 14.5935 9.84749 14.774C9.79235 14.7879 9.73724 14.8015 9.62695 14.8154C9.70967 14.6765 9.75105 14.5658 9.81998 14.4825C10.2474 13.8021 10.0543 13.927 10.8401 13.6771C12.9081 13.0106 15.0174 12.483 17.1404 11.997C18.7258 11.636 20.325 11.3167 21.9242 10.9835C22.3791 10.8863 22.8479 10.803 23.3166 10.7197C23.3855 10.7197 23.4544 10.7197 23.5509 10.7197L23.5371 10.7475Z" fill="black"/>
<path d="M57.4236 31.9638C57.4512 32.1581 57.4925 32.3389 57.5063 32.5333C57.5615 34.7132 57.6166 36.8931 57.658 39.073C57.6717 39.795 57.396 40.4058 56.9135 40.9334C56.8722 40.9889 56.8033 41.0165 56.7068 41.0859C56.7068 40.961 56.6792 40.8916 56.6792 40.8222C56.6654 39.6836 56.6516 38.5451 56.624 37.4065C56.5964 36.5318 56.5413 35.6433 56.4862 34.7685C56.4586 34.2548 56.4034 33.7548 56.3896 33.2411C56.3896 33.1022 56.431 32.9355 56.5 32.8105C56.7068 32.4495 57.0238 32.2001 57.3409 31.9502H57.4098L57.4236 31.9638Z" fill="black"/>
<path d="M5.84974 45.4736C5.84974 45.4736 5.96001 45.418 6.00136 45.418C6.59417 45.418 7.20074 45.418 7.79355 45.4736C8.20713 45.5013 8.46908 45.7651 8.57937 46.1678C8.68966 46.5705 8.5794 46.9179 8.26231 47.1956C8.20717 47.2373 8.15199 47.2923 8.05549 47.3617C8.15199 47.4034 8.20718 47.4451 8.27611 47.4729C8.63455 47.6256 8.81378 47.8899 8.79999 48.2926C8.79999 48.6953 8.64831 49.0141 8.24851 49.1529C8.01415 49.2363 7.75224 49.278 7.50409 49.2919C6.98022 49.3058 6.44251 49.2919 5.90485 49.2919C5.90485 49.2364 5.89107 49.181 5.90485 49.1394C6.02893 48.8478 6.04276 48.5425 6.04276 48.237C6.04276 47.751 6.04276 47.2511 6.04276 46.7651C6.04276 46.3347 6.04273 45.904 5.83594 45.5014L5.84974 45.4736ZM7.03533 47.3895C7.03533 47.3895 7.03533 47.3478 7.03533 47.3339C7.13183 47.3339 7.22835 47.3061 7.31107 47.3061C7.55922 47.3061 7.69704 47.2093 7.79355 46.9732C7.90384 46.7094 7.91762 46.432 7.87626 46.1543C7.80733 45.7794 7.53166 45.543 7.15944 45.5292C6.82857 45.5292 6.78719 45.5569 6.78719 45.8763C6.78719 46.8205 6.78719 47.7505 6.78719 48.6946C6.78719 48.7641 6.78719 48.834 6.78719 48.9034C6.81476 49.1117 6.93883 49.2085 7.13184 49.1807C7.31106 49.153 7.4903 49.0976 7.66952 49.0282C7.8901 48.9449 8.00032 48.7503 8.02789 48.5143C8.02789 48.4171 8.02789 48.3342 8.02789 48.237C8.02789 47.8343 7.80739 47.5701 7.42138 47.4729C7.2973 47.4451 7.1594 47.4176 7.03533 47.4038V47.3895Z" fill="black"/>
<path d="M19.3738 49.2783C19.3738 49.2783 19.3738 49.1667 19.3738 49.1251C19.4979 48.8613 19.4978 48.5699 19.4978 48.2783C19.4978 47.6396 19.5116 46.9868 19.4978 46.3481C19.4978 46.112 19.4151 45.8621 19.3738 45.626C19.3738 45.5705 19.3462 45.5151 19.3462 45.4735C19.3738 45.4457 19.3876 45.4321 19.3876 45.4321C20.0355 45.446 20.6973 45.4319 21.3452 45.5013C22.0207 45.5707 22.4343 46.0287 22.6411 46.6674C22.8341 47.2783 22.8065 47.8893 22.4757 48.4586C22.1862 48.9724 21.7036 49.195 21.1384 49.2505C20.6007 49.2921 20.0631 49.2919 19.5254 49.3196C19.4841 49.3196 19.4289 49.3057 19.3462 49.2918L19.3738 49.2783ZM20.2561 49.1115C20.5732 49.1532 20.8351 49.167 21.0971 49.0837C21.5796 48.9449 21.938 48.4449 21.9518 47.9034C21.9518 47.5423 21.9518 47.1674 21.9518 46.8064C21.9518 46.6814 21.9243 46.5564 21.8967 46.4315C21.6899 45.7233 20.9454 45.3487 20.2698 45.6125V49.0973L20.2561 49.1115Z" fill="black"/>
<path d="M37.4338 47.0981C37.7233 47.0148 37.9853 46.9455 38.261 46.8622C38.261 46.9871 38.2885 47.0847 38.3023 47.2235C38.385 47.168 38.4402 47.1398 38.4953 47.0981C38.9503 46.7093 39.2811 46.7236 39.6947 47.1679C39.6947 47.1679 39.7223 47.1815 39.7636 47.2093C39.805 47.1676 39.8601 47.1262 39.9291 47.0846C40.0669 47.0012 40.191 46.8903 40.3426 46.8486C40.7424 46.7375 41.1009 47.0009 41.1698 47.4452C41.1698 47.5286 41.1974 47.6121 41.1836 47.6954C41.1561 48.2092 41.1423 48.7227 41.2664 49.2643C40.9906 49.3198 40.7286 49.2782 40.4253 49.292C40.4391 49.0977 40.4529 48.917 40.4667 48.7503C40.4667 48.3616 40.4943 47.973 40.4943 47.5842C40.4943 47.2926 40.3978 47.2093 40.2186 47.2093C39.9567 47.2093 39.7774 47.3482 39.7636 47.5842C39.7498 47.9452 39.7636 48.2924 39.7636 48.6534C39.7636 48.8478 39.805 49.0563 39.8188 49.2785H39.0054C39.0054 49.0841 39.033 48.9173 39.033 48.7368C39.033 48.3619 39.0605 47.9734 39.0467 47.5985C39.0467 47.3069 38.9503 47.2097 38.7849 47.2235C38.4954 47.2235 38.3299 47.3624 38.3299 47.6263C38.3299 47.9873 38.3299 48.3477 38.3437 48.7225C38.3437 48.9031 38.3712 49.0838 38.385 49.292H37.5717C37.5717 49.1254 37.5992 48.959 37.5992 48.7924C37.5992 48.4314 37.6406 48.0703 37.6268 47.6954C37.6268 47.5704 37.5578 47.4455 37.5165 47.3205C37.4889 47.265 37.4614 47.2095 37.4062 47.1124L37.4338 47.0981Z" fill="black"/>
<path d="M35.352 49.2364C35.2555 49.6807 35.352 50.0836 35.421 50.5001H34.5938C34.5524 50.2641 34.5938 50.0419 34.5938 49.8059C34.5938 49.07 34.5938 48.3343 34.5938 47.5984C34.5938 47.5012 34.5386 47.4034 34.5248 47.3062C34.5111 47.2367 34.4973 47.1678 34.4697 47.0567C34.7179 47.0011 34.9522 46.9458 35.2279 46.8763C35.2555 47.043 35.2969 47.1951 35.2969 47.334C35.2969 47.6811 35.2969 48.0282 35.2969 48.3753C35.2969 48.542 35.3382 48.7087 35.4072 48.8614C35.4899 49.0697 35.6691 49.1672 35.8897 49.1672C36.0964 49.1672 36.2343 49.0284 36.3032 48.8479C36.4687 48.4452 36.4687 48.0427 36.3722 47.6262C36.3033 47.3207 35.9862 47.154 35.6829 47.2235C35.6002 47.2373 35.5174 47.2652 35.4485 47.279C35.352 47.1819 35.3796 47.098 35.4761 47.0424C36.0827 46.6259 36.6754 46.7512 36.9787 47.376C37.158 47.7648 37.1856 48.1537 37.0339 48.5564C36.8134 49.1534 36.2619 49.3756 35.5864 49.2784C35.5175 49.2784 35.4486 49.2503 35.3383 49.2364H35.352Z" fill="black"/>
<path d="M16.92 45.6681C17.2095 45.5848 17.4439 45.5013 17.7334 45.418C17.7334 45.5429 17.761 45.6401 17.761 45.7373C17.761 46.5843 17.761 47.4314 17.761 48.2784C17.761 48.5144 17.7609 48.7504 17.885 48.9726C17.9126 49.0143 17.8988 49.0696 17.9126 49.1529C17.6644 49.1946 17.4163 49.2225 17.1544 49.2641C17.1544 49.1253 17.1406 49.0142 17.1268 48.8892C17.0716 48.917 17.0302 48.9448 17.0027 48.9726C16.6029 49.3197 16.2031 49.3894 15.8171 49.195C15.4448 49.0006 15.2243 48.5284 15.2794 48.0424C15.3208 47.7092 15.4311 47.4035 15.6792 47.1536C15.8585 46.9731 16.079 46.8763 16.341 46.8763C16.5615 46.8763 16.7959 46.8763 17.0303 46.8763C17.2095 46.4597 17.0165 46.0708 16.92 45.6681ZM17.0992 47.9868C17.0992 47.8202 17.0992 47.6534 17.0992 47.4729C17.0992 47.3063 17.0303 47.1677 16.8924 47.0844C16.6856 46.9595 16.4512 46.9594 16.2444 47.0566C16.0377 47.1538 15.9687 47.3341 15.9687 47.5563C15.9687 47.8479 15.9825 48.1535 16.0101 48.4451C16.0239 48.7506 16.2306 48.917 16.5615 48.917C16.9062 48.917 17.113 48.7502 17.1268 48.4309C17.1268 48.2782 17.1268 48.126 17.1268 47.9733L17.0992 47.9868Z" fill="black"/>
<path d="M28.6378 30.3246C28.9273 30.6023 29.2168 30.8941 29.5339 31.2134C29.8234 30.8941 30.0715 30.6165 30.3472 30.311C30.747 30.6304 31.0642 31.005 31.4364 31.366C31.202 31.6714 30.9814 31.9632 30.7471 32.2826C30.6506 32.2271 30.5679 32.1856 30.5127 32.13C30.3059 31.9495 30.0992 31.7549 29.9061 31.5605C29.851 31.505 29.7958 31.4632 29.7131 31.3938C29.6442 31.4771 29.5752 31.5467 29.5063 31.6161C29.3684 31.7966 29.2306 31.9773 29.0789 32.1578C28.9686 32.2967 28.9135 32.2967 28.7895 32.1856C28.5 31.9357 28.1966 31.6715 27.9071 31.4216C27.8244 31.3521 27.7692 31.2689 27.8519 31.1578C28.0725 30.894 28.307 30.6304 28.5275 30.3666C28.5413 30.3527 28.5688 30.3524 28.6378 30.3246Z" fill="black"/>
<path d="M1.7552 47.8199H0.776434C0.459352 48.2642 0.459315 48.7506 0.652321 49.2782H0.00441251C-0.0369459 49.0144 0.224994 48.8892 0.266353 48.6809C0.307711 48.4726 0.417977 48.2644 0.500694 48.0701C0.583411 47.8618 0.666118 47.6397 0.748834 47.4314C0.831551 47.2231 0.914272 47.0288 1.01077 46.8205C1.01077 47.1121 0.831575 47.3615 0.859147 47.6809C1.17623 47.7225 1.46573 47.6948 1.7966 47.6809C1.76902 47.5698 1.75525 47.5008 1.72768 47.4314C1.61739 47.1259 1.52082 46.8206 1.39674 46.529C1.35538 46.4457 1.28652 46.3618 1.2038 46.2924C1.2038 46.0147 1.28649 45.7512 1.43814 45.529C1.4795 45.4735 1.57602 45.4039 1.63117 45.4178C1.68631 45.4178 1.76902 45.5009 1.7966 45.5704C2.01717 46.1674 2.23771 46.7788 2.4445 47.3758C2.56858 47.709 2.6651 48.0419 2.80296 48.3751C2.89946 48.6112 3.02351 48.8337 3.12001 49.0558C3.14758 49.1114 3.17517 49.1668 3.21653 49.264H2.07234C2.11369 48.7502 2.11364 48.2364 1.7552 47.8199Z" fill="black"/>
<path d="M44.1201 47.0978C44.4234 47.0006 44.6853 46.9035 44.9749 46.8896V47.2367C45.0851 47.1396 45.1678 47.0838 45.2505 47.0144C45.6089 46.7228 46.1466 46.7785 46.381 47.1534C46.4361 47.2367 46.4775 47.3341 46.4775 47.4313C46.5051 47.9867 46.5189 48.5421 46.5327 49.1114C46.5327 49.1669 46.5327 49.2087 46.5327 49.2781H45.802C45.802 49.0143 45.802 48.764 45.802 48.5141C45.802 48.1808 45.8296 47.8476 45.8296 47.5283C45.8296 47.32 45.7468 47.2371 45.54 47.2232C45.4435 47.2232 45.3608 47.2232 45.2643 47.251C45.0851 47.2926 45.03 47.3617 45.03 47.5561C45.03 47.8893 45.0438 48.2225 45.0576 48.5419C45.0576 48.7779 45.0576 49.0143 45.0576 49.2781H44.2993C44.3269 48.9171 44.3545 48.5557 44.3683 48.1947C44.382 47.8337 44.3544 47.473 44.1338 47.112L44.1201 47.0978Z" fill="black"/>
<path d="M53.081 48.0146C53.0534 48.2506 53.0257 48.5006 53.012 48.7366C53.012 48.8755 52.9293 48.9865 52.8052 49.0282C52.6122 49.0976 52.433 49.1811 52.2262 49.1949C51.8402 49.2227 51.4266 49.2644 51.0544 49.1949C50.3099 49.0422 49.8964 48.5142 49.7171 47.7922C49.5241 47.0146 49.855 46.0429 50.7511 45.6125C50.9165 45.5292 51.1095 45.4596 51.275 45.3901C51.3715 45.4873 51.3439 45.5431 51.275 45.5847C50.696 45.8763 50.5581 46.4039 50.503 46.9732C50.4478 47.4453 50.5029 47.9032 50.6408 48.3475C50.7649 48.7362 50.9854 49.0418 51.4128 49.0973C51.854 49.1529 52.2814 49.0973 52.5709 48.6946C52.695 48.5141 52.8052 48.3198 52.9293 48.1393C52.9568 48.0838 52.9982 48.0288 53.0258 47.9732C53.0533 47.9732 53.0671 47.9865 53.0947 48.0003L53.081 48.0146Z" fill="black"/>
<path d="M4.38825 49.2784H3.61623C3.71274 48.0565 3.71268 46.8483 3.56104 45.6403C3.82297 45.5709 4.07112 45.5013 4.33306 45.418C4.34684 46.7232 4.36068 47.9871 4.38825 49.2784Z" fill="black"/>
<path d="M31.1473 49.2783H30.4029C30.4029 49.0839 30.4029 48.9032 30.4029 48.7088C30.4029 47.9174 30.4305 47.1396 30.4167 46.3481C30.4167 46.1398 30.334 45.9316 30.2788 45.6817C30.5132 45.5984 30.7613 45.5012 31.0646 45.3901C31.0784 45.5012 31.106 45.5984 31.1197 45.6817C31.1197 46.2509 31.1197 46.8202 31.1197 47.3895C31.1197 47.9171 31.1473 48.4449 31.1473 48.9726C31.1473 49.0698 31.1473 49.1534 31.1473 49.2783Z" fill="black"/>
<path d="M56.1969 48.0702C56.1969 49.0005 55.1354 49.5836 54.2945 49.1115C53.8671 48.8755 53.6465 48.5006 53.6603 48.0146C53.6741 47.5286 53.936 47.1815 54.3634 46.9732C55.2043 46.5705 56.2107 47.1677 56.1969 48.0702ZM55.5352 48.0424C55.5352 47.7647 55.4938 47.4869 55.3421 47.2369C55.1078 46.8343 54.7218 46.8204 54.5012 47.2369C54.2117 47.7646 54.2117 48.3337 54.5012 48.8614C54.7218 49.2779 55.094 49.264 55.3421 48.8614C55.4938 48.6114 55.549 48.3336 55.5352 48.0281V48.0424Z" fill="black"/>
<path d="M12.9632 47.404C13.0046 47.3207 13.0045 47.2789 13.0321 47.265C13.3492 46.9873 13.7077 46.8345 14.1351 46.8345C14.4935 46.8345 14.7141 47.0565 14.7279 47.4175C14.7279 47.7924 14.7279 48.1674 14.7279 48.5423C14.7279 48.8616 14.7278 48.862 15.0311 48.9315C15.0587 48.9315 15.0863 48.9593 15.1138 48.987C14.8519 49.3342 14.5211 49.4031 14.204 49.1532C14.0799 49.056 13.9971 49.0837 13.8868 49.1532C13.6525 49.3198 13.4044 49.3341 13.1424 49.223C12.8943 49.1119 12.8254 48.9312 12.9357 48.6813C13.0735 48.3342 13.4595 48.0979 13.8593 48.1396C13.7353 48.2507 13.6249 48.3343 13.5422 48.4453C13.4043 48.6258 13.4871 48.8756 13.6801 48.9172C13.8042 48.9311 13.9282 48.9172 14.0661 48.9172C14.0661 48.7923 14.0661 48.709 14.0661 48.6257C14.0661 48.3063 14.0661 48.0006 14.0661 47.6813C14.0661 47.3341 13.9006 47.1681 13.5422 47.2236C13.3905 47.2514 13.2527 47.3203 13.1148 47.3619C13.0873 47.3619 13.0597 47.3762 12.9632 47.404Z" fill="black"/>
<path d="M12.453 49.2784H11.7361C11.7361 49.084 11.7361 48.8894 11.7361 48.7089C11.7361 47.973 11.7361 47.2373 11.7361 46.5014C11.7361 46.2376 11.681 45.9736 11.6396 45.6682C11.8602 45.5571 12.1221 45.5013 12.453 45.4458V49.2784Z" fill="black"/>
<path d="M10.0267 48.1393C9.9302 48.2226 9.84747 48.2922 9.76476 48.3616C9.64068 48.4588 9.58557 48.5699 9.62693 48.7088C9.66829 48.8615 9.80612 48.903 9.94398 48.9169C10.0129 48.9169 10.0956 48.9169 10.1921 48.9169C10.1921 48.8336 10.2197 48.7782 10.2197 48.7088C10.2197 48.3478 10.2197 48.0006 10.2197 47.6396C10.2197 47.2786 10.0267 47.1258 9.68204 47.2091C9.5304 47.2369 9.37878 47.2644 9.19956 47.306C9.42014 46.9311 10.0818 46.7234 10.4403 46.8484C10.716 46.9456 10.8814 47.1534 10.8952 47.445C10.8952 47.9032 10.8952 48.3614 10.8952 48.8335C11.0193 48.8613 11.1158 48.8891 11.2261 48.9169C11.1709 49.1807 10.7849 49.3893 10.5368 49.2227C10.2611 49.0283 10.0543 49.0974 9.80616 49.2362C9.58558 49.3612 9.2961 49.2638 9.14445 49.0695C9.04795 48.9445 9.02031 48.8063 9.07545 48.6674C9.17195 48.3758 9.66827 48.0702 10.0405 48.1257L10.0267 48.1393Z" fill="black"/>
<path d="M34.1528 48.0277C34.1528 48.3749 34.0426 48.6388 33.8358 48.861C33.3395 49.4025 32.4572 49.4167 31.9333 48.8752C31.4508 48.3615 31.5059 47.5558 32.0711 47.1254C32.8156 46.5561 33.8909 46.9032 34.1253 47.7918C34.1529 47.8751 34.1528 47.9725 34.1528 48.0142V48.0277ZM33.4635 48.0555C33.4635 47.9028 33.4636 47.7228 33.436 47.5423C33.4084 47.2091 33.2016 47.0284 32.8569 47.0284C32.5398 47.0284 32.2917 47.223 32.2779 47.5423C32.2641 47.8756 32.2641 48.2227 32.2779 48.5559C32.3055 48.8891 32.5398 49.1108 32.8569 49.0969C33.1878 49.0969 33.4222 48.8752 33.436 48.5281C33.436 48.3754 33.436 48.2225 33.436 48.042L33.4635 48.0555Z" fill="black"/>
<path d="M30.0583 48.5421C29.7413 49.2225 29.1484 49.4585 28.5418 49.2086C27.9766 48.9864 27.6871 48.3337 27.8663 47.7367C28.1007 46.9591 28.7624 46.7514 29.3965 46.9041C29.7826 47.0013 29.9756 47.3062 30.0583 47.6811C29.8791 47.7783 29.6034 47.7926 29.3414 47.7231C29.3414 47.5982 29.3828 47.4589 29.369 47.334C29.3552 47.1396 29.2311 47.0289 29.0657 47.0011C28.8727 46.9733 28.6935 47.0426 28.6245 47.2092C28.4591 47.6119 28.4315 48.0283 28.6521 48.4309C28.8176 48.7225 29.2036 48.8475 29.5345 48.7503C29.631 48.7225 29.7137 48.6675 29.8102 48.6398C29.8791 48.612 29.9481 48.598 30.0583 48.5564V48.5421Z" fill="black"/>
<path d="M43.7755 47.751H43.1275C43.1275 47.751 43.1137 47.654 43.0999 47.5985C43.0999 47.4874 43.0999 47.3763 43.0724 47.2792C43.0172 47.0848 42.8932 46.9869 42.7415 46.9869C42.5761 46.9869 42.4244 47.0569 42.3555 47.2236C42.2176 47.5846 42.1762 47.9592 42.3279 48.3341C42.4657 48.6812 42.8931 48.8614 43.2791 48.7504C43.4307 48.7087 43.5824 48.6259 43.7892 48.5287C43.7203 48.6536 43.6789 48.7508 43.6376 48.8202C43.2102 49.4589 42.2865 49.4728 41.8316 48.848C41.5421 48.4592 41.4593 48.0424 41.6523 47.5842C41.8454 47.126 42.2176 46.9042 42.6863 46.8486C43.1826 46.7792 43.679 47.1535 43.7755 47.6534C43.7755 47.6812 43.7755 47.6955 43.7617 47.751H43.7755Z" fill="black"/>
<path d="M47.0703 46.862C47.3322 46.5426 47.7045 46.2925 47.9113 46.2925V46.862C48.1043 46.8898 48.2835 46.751 48.4765 46.9176C48.3387 46.9453 48.2146 46.9728 48.1043 46.9867C47.9664 46.9867 47.9113 47.0706 47.9113 47.1955C47.9113 47.6676 47.9113 48.1397 47.9113 48.6118C47.9113 48.8479 48.0216 48.9451 48.256 48.959C48.3249 48.959 48.3938 48.959 48.4765 48.9868C48.3387 49.2367 48.0491 49.3474 47.7596 49.2918C47.4563 49.2224 47.2495 49.0139 47.2495 48.7223C47.2495 48.3197 47.2495 47.9033 47.2495 47.5006C47.2495 47.2785 47.2771 47.0425 47.0841 46.862H47.0703Z" fill="black"/>
<path d="M25.3983 48.5699C25.0812 49.1669 24.4608 49.431 23.9094 49.2228C23.289 48.9867 23.0961 48.2786 23.1788 47.8065C23.2615 47.3066 23.7991 46.8624 24.2679 46.9041C24.2265 46.9596 24.1989 47.0011 24.1575 47.0288C23.6612 47.4315 23.8129 48.2092 24.0748 48.5285C24.2127 48.6951 24.4057 48.7644 24.6125 48.7644C24.8331 48.7644 25.0537 48.7504 25.2329 48.5977C25.2605 48.5699 25.3156 48.5838 25.3983 48.5699Z" fill="black"/>
<path d="M26.7357 48.3613C26.9149 48.153 26.9977 47.9031 27.0942 47.6671C27.1907 47.4171 27.3147 47.1536 27.0942 46.9037C27.2872 46.7926 27.4526 46.8203 27.6456 46.8481C27.6181 46.9314 27.5905 46.9864 27.5629 47.042C27.2321 47.6668 26.9564 48.3057 26.722 48.9722C26.6806 49.0832 26.6117 49.1805 26.529 49.3471C26.4463 49.2221 26.3773 49.1524 26.3497 49.0691C26.0602 48.3749 25.7707 47.6671 25.4674 46.9728C25.4674 46.945 25.4674 46.9036 25.4536 46.8481H26.3911C26.3911 46.8481 26.4324 46.9589 26.4187 47.0006C26.3497 47.195 26.4186 47.3896 26.4738 47.5701C26.5703 47.82 26.653 48.0836 26.7495 48.3613H26.7357Z" fill="black"/>
<path d="M53.977 11.3304C53.8392 11.2194 53.7152 11.1219 53.6049 11.0247C53.3843 10.8442 53.1637 10.6499 52.9569 10.4694C52.819 10.3444 52.8052 10.275 52.9293 10.1223C53.0947 9.90013 53.2739 9.69156 53.4532 9.4694C53.4945 9.42774 53.5497 9.40054 53.6049 9.35889C53.66 9.40054 53.7289 9.42809 53.7703 9.48363C54.0322 9.73356 54.2804 9.99711 54.5423 10.247C54.6112 10.3165 54.6802 10.4003 54.625 10.4836C54.432 10.7613 54.2665 11.0527 53.977 11.3026V11.3304Z" fill="black"/>
<path d="M3.27158 9.13689C3.23022 9.20631 3.21642 9.27557 3.17507 9.31723C3.02342 9.49773 2.88553 9.69199 2.7201 9.87249C2.58224 10.0252 2.47196 10.0395 2.30653 9.88673C2.07217 9.66457 1.83779 9.456 1.60342 9.23384C1.4242 9.06722 1.42418 9.0116 1.57582 8.80332C1.6999 8.6367 1.8378 8.47027 1.96188 8.30365C2.09974 8.13703 2.21 8.10921 2.36165 8.24806C2.62358 8.47022 2.88552 8.70626 3.13367 8.94231C3.18881 8.99785 3.21643 9.06711 3.27158 9.12265V9.13689Z" fill="black"/>
<path d="M53.4946 13.2744C53.3843 13.205 53.3291 13.1771 53.2739 13.1354C53.0258 12.9133 52.7639 12.6912 52.5157 12.469C52.3641 12.3301 52.3503 12.2471 52.4744 12.0805C52.6123 11.8861 52.7639 11.7054 52.9018 11.511C53.0258 11.3444 53.1223 11.3444 53.2739 11.4832C53.5359 11.7193 53.7978 11.9553 54.0598 12.2053C54.2114 12.3441 54.2114 12.4139 54.0874 12.5666C53.8943 12.8027 53.7013 13.0245 53.4946 13.2744Z" fill="black"/>
<path d="M50.0758 43.8625C49.9793 43.7931 49.9242 43.7655 49.869 43.71C49.6209 43.4739 49.359 43.2382 49.1108 43.0021C48.9316 42.8355 48.9316 42.7796 49.097 42.5852C49.2487 42.4047 49.3865 42.2386 49.5382 42.072C49.676 41.9192 49.7587 41.9053 49.9103 42.072C50.1585 42.3219 50.4067 42.5716 50.6548 42.8354C50.71 42.8909 50.7513 43.0296 50.7238 43.0713C50.5445 43.349 50.3515 43.6268 50.0758 43.8767V43.8625Z" fill="black"/>
<path d="M56.5829 21.411C56.6518 21.4527 56.7069 21.4809 56.7483 21.5086C57.0102 21.7447 57.286 21.9804 57.5479 22.2165C57.6996 22.3553 57.7133 22.4112 57.5754 22.5778C57.4238 22.7722 57.286 22.9665 57.1344 23.1609C57.0103 23.3136 56.9276 23.3275 56.7759 23.1887C56.514 22.9387 56.2382 22.6888 55.9763 22.4388C55.8384 22.3 55.8384 22.2444 55.9487 22.0917C56.1003 21.9112 56.2382 21.717 56.4037 21.5364C56.445 21.4809 56.5139 21.4391 56.5691 21.3975L56.5829 21.411Z" fill="black"/>
<path d="M54.8872 21.522C55.2319 21.8691 55.5902 22.1888 55.9349 22.5776C55.7143 22.8414 55.5214 23.0914 55.3008 23.3274C55.2181 23.4107 55.1215 23.3968 55.025 23.3274C54.7355 23.0636 54.446 22.7997 54.1703 22.5498C54.0876 22.4665 54.06 22.369 54.1289 22.2718C54.3219 22.0358 54.5287 21.7997 54.7493 21.5776C54.7631 21.5498 54.8045 21.5501 54.8872 21.5362V21.522Z" fill="black"/>
<path d="M54.9009 11.2051C55.2731 11.5522 55.6178 11.8997 55.9762 12.2607C55.9211 12.344 55.8797 12.4136 55.8246 12.4831C55.673 12.6636 55.5075 12.8439 55.3558 13.0105C55.2731 13.1077 55.1767 13.1491 55.0664 13.0519C54.7493 12.7603 54.4184 12.4553 54.0737 12.1359C54.3219 11.8027 54.5701 11.4967 54.8872 11.2051H54.9009Z" fill="black"/>
<path d="M5.00856 9.081C4.80177 9.38647 4.56738 9.67821 4.29166 9.94203C4.22273 9.90037 4.1538 9.88605 4.12623 9.8444C3.85051 9.58058 3.58853 9.31734 3.31281 9.03964C3.21631 8.94245 3.20258 8.84495 3.28529 8.73387C3.45073 8.5256 3.61614 8.33129 3.78158 8.12302C3.86429 8.02582 3.97453 8.01191 4.07103 8.09522C4.36054 8.3868 4.66386 8.67822 4.95336 8.96981C4.98094 8.99758 4.98099 9.02546 5.00856 9.081Z" fill="black"/>
<path d="M53.0945 46.4319C52.9567 46.4597 52.9153 46.3623 52.8464 46.2929C52.7085 46.1402 52.5707 45.9738 52.419 45.821C52.2949 45.6822 52.1296 45.6265 51.9503 45.6265C51.7849 45.6265 51.6194 45.5854 51.4678 45.5437C51.9916 45.4049 52.488 45.4598 52.9843 45.6265C53.0257 45.9042 53.067 46.1542 53.1083 46.4319H53.0945Z" fill="black"/>
<path d="M24.3784 46.8898C24.7782 46.737 25.371 47.2367 25.371 47.7366H24.7231C24.7093 47.5561 24.723 47.39 24.6679 47.2511C24.6127 47.1123 24.4749 47.0147 24.3784 46.8898Z" fill="black"/>
<path d="M57.3684 48.9171C57.3684 49.1253 57.203 49.292 57.0099 49.292C56.8169 49.292 56.6515 49.1253 56.6377 48.9171C56.6377 48.6949 56.8032 48.5147 57.0099 48.5286C57.203 48.5286 57.3684 48.7088 57.3684 48.9171Z" fill="black"/>
<path d="M1.02441 46.7227V46.6675H1.03821V46.7227H1.02441Z" fill="black"/>
<path d="M81.6321 34.8242H79.2333C79.2196 34.727 79.1782 34.6298 79.1782 34.5326C79.1782 33.0053 79.1782 31.464 79.1782 29.9366C79.1782 29.3396 79.4677 28.9511 79.9916 28.7983C80.2673 28.715 80.5569 28.715 80.8326 28.7983C81.3427 28.9511 81.6321 29.3399 81.6459 29.8675C81.6459 30.5617 81.6459 31.256 81.6459 31.9502C81.6459 32.7833 81.6459 33.6297 81.6459 34.4628C81.6459 34.5739 81.6459 34.6853 81.6183 34.8242H81.6321ZM81.3978 34.6018C81.3978 34.5046 81.4254 34.4495 81.4254 34.3801C81.4254 32.8805 81.4254 31.3806 81.4254 29.8811C81.4254 29.7144 81.3426 29.5199 81.2461 29.3671C81.0256 29.02 80.5154 28.8954 80.0605 29.0343C79.6469 29.1592 79.4126 29.4788 79.4126 29.9231C79.4126 31.3949 79.4126 32.8666 79.4126 34.3523C79.4126 34.4356 79.4264 34.5188 79.4402 34.616H81.3978V34.6018Z" fill="black"/>
<path d="M95.6803 34.8098H93.3091C93.3091 34.7126 93.3091 34.6155 93.3091 34.5183C93.3091 32.9632 93.3091 31.3947 93.3091 29.8396C93.3091 29.298 93.6537 28.8676 94.1913 28.7704C94.7152 28.6732 95.1564 28.8257 95.5286 29.1867C95.6389 29.2977 95.6941 29.4228 95.6941 29.5894C95.6941 31.2556 95.6941 32.9077 95.6941 34.5739C95.6941 34.6433 95.694 34.7126 95.6803 34.8098ZM95.4735 34.6017C95.4735 34.4767 95.501 34.3656 95.501 34.2545C95.501 32.8522 95.501 31.4358 95.501 30.0335C95.501 29.9363 95.501 29.8534 95.4872 29.7562C95.4872 29.534 95.3632 29.3533 95.1978 29.2145C94.8393 28.9229 94.4395 28.895 94.0397 29.0755C93.6537 29.2421 93.502 29.5478 93.5158 29.9643C93.5158 31.4083 93.5158 32.8661 93.5158 34.3101C93.5158 34.3934 93.5296 34.4906 93.5434 34.6017H95.4872H95.4735Z" fill="black"/>
<path d="M95.3358 22.0914V24.8406H93.7642C93.6953 24.6601 93.6815 22.6742 93.7367 22.1049C94.2606 22.0633 94.7844 22.1052 95.3358 22.0914ZM95.1015 24.6182V22.3273H93.971C93.9021 22.605 93.9159 24.4377 93.971 24.6182H95.0877H95.1015Z" fill="black"/>
<path d="M102.656 5.95731H100.299C100.285 5.86012 100.257 5.77654 100.257 5.67934C100.257 4.86013 100.285 4.05513 100.285 3.23592C100.285 2.73606 100.74 2.2084 101.346 2.16675C101.746 2.13898 102.091 2.20873 102.394 2.50031C102.615 2.70859 102.725 2.9718 102.725 3.27727C102.725 4.12425 102.711 4.97135 102.698 5.81833C102.698 5.8461 102.684 5.88821 102.67 5.94375L102.656 5.95731ZM102.436 5.73494C102.449 5.66551 102.463 5.62405 102.463 5.58239C102.463 4.80483 102.463 4.02703 102.463 3.24947C102.463 3.12451 102.408 2.98563 102.353 2.87455C102.146 2.49966 101.677 2.3194 101.236 2.43048C100.754 2.55544 100.505 2.94444 100.505 3.3471C100.505 4.06912 100.505 4.79122 100.505 5.51324C100.505 5.59655 100.519 5.67942 100.533 5.76273H102.436V5.73494Z" fill="black"/>
<path d="M106.089 5.95718H103.731C103.718 5.85999 103.69 5.76252 103.69 5.67921C103.69 4.90165 103.69 4.13809 103.69 3.36053C103.69 2.63851 104.172 2.19406 104.889 2.18018C105.289 2.18018 105.62 2.27742 105.882 2.58289C106.034 2.74951 106.13 2.95803 106.13 3.18019C106.13 4.05494 106.13 4.92989 106.13 5.80464C106.13 5.84629 106.116 5.88776 106.103 5.95718H106.089ZM105.882 5.73481C105.882 5.66538 105.909 5.62392 105.909 5.58226C105.909 4.8047 105.909 4.0269 105.909 3.24934C105.909 3.17992 105.896 3.11098 105.868 3.05544C105.73 2.59724 105.275 2.34704 104.738 2.43035C104.255 2.49977 103.938 2.88842 103.938 3.33274C103.938 4.08252 103.938 4.81891 103.938 5.5687C103.938 5.62424 103.952 5.67962 103.966 5.74904H105.868L105.882 5.73481Z" fill="black"/>
<path d="M99.2234 5.95713H96.8659C96.8659 5.8877 96.8384 5.81809 96.8384 5.76255C96.8384 4.94334 96.8384 4.13833 96.8384 3.31912C96.8384 2.74984 97.2382 2.31935 97.7069 2.22216C98.3962 2.08331 98.989 2.34718 99.1958 2.972C99.2233 3.06919 99.2372 3.16633 99.2372 3.26353C99.2372 4.09663 99.2372 4.94369 99.2372 5.77679C99.2372 5.83233 99.2371 5.87414 99.2096 5.94357L99.2234 5.95713ZM97.0589 5.70696C97.3346 5.77638 98.8235 5.76282 99.0165 5.6934C99.0165 5.61009 99.0165 5.51297 99.0165 5.42966C99.0165 4.76319 98.989 4.08255 99.0165 3.41607C99.0441 2.87456 98.603 2.33343 97.8723 2.41674C97.4588 2.45839 97.0727 2.79168 97.0589 3.16658C97.0313 4.01356 97.0589 4.85997 97.0589 5.70696Z" fill="black"/>
</svg>
