<svg width="118" height="41" viewBox="0 0 118 41" fill="none" xmlns="http://www.w3.org/2000/svg">
<path d="M109.294 0.51709L104.52 26.7051C103.818 30.5913 100.08 33.7423 96.1832 33.7423H90.6368L89.4082 40.5H96.8852C104.52 40.5 111.839 34.3199 113.226 26.7051L118 0.51709H109.294Z" fill="black"/>
<path d="M102.238 7.25684H86.4771L81.9137 32.2191H73.208L77.2976 9.79547C78.3682 3.96617 82.4753 0.5 88.32 0.5H106.153L102.221 7.25684H102.238Z" fill="black"/>
<path d="M68.6796 32.2371C66.9419 32.2196 56.8849 32.2196 45.8449 32.2371C40.5794 32.2371 37.0866 27.983 38.052 22.7313L42.1064 0.51709H50.812L46.2486 25.4802H61.2377L65.8012 0.51709H74.4892L68.6971 32.2371H68.6796Z" fill="black"/>
<path d="M23.6246 32.2371H0L3.91405 25.4802H28.0476L28.2582 24.2896C28.5566 22.6966 27.3279 21.6984 24.6952 20.9107L11.9526 17.5327C7.16103 16.2898 4.75649 14.3813 4.75649 10.5476C4.75649 6.95904 7.33664 0.51709 16.6566 0.51709H38.6839L34.7524 7.27393H12.216L11.9352 8.78001C11.6368 10.373 12.9707 10.7754 15.621 11.5631L27.0296 14.5394C31.9441 15.7297 34.6997 17.7947 34.6997 21.7509C34.6997 27.0551 31.242 32.2371 23.607 32.2371H23.6246Z" fill="black"/>
</svg>
