<svg width="118" height="79" viewBox="0 0 118 79" fill="none" xmlns="http://www.w3.org/2000/svg">
<path d="M50.8198 78.0972C50.8198 78.0972 50.879 78.2746 50.8395 78.3531C50.7607 78.5101 50.4453 78.5879 49.9328 78.5879C49.4203 78.5879 49.1247 78.5101 49.0262 78.3531C48.967 78.2746 48.9868 78.1757 49.0459 78.0972C49.0459 78.0383 49.0853 77.9797 49.1247 77.9208C49.2232 77.6656 49.2824 77.3905 49.2824 77.0764V71.1291C49.2824 71.1291 49.2824 71.0697 49.2627 71.0697C49.2233 71.0697 49.2035 71.0697 49.1838 71.0697L46.8383 74.0534C46.7201 74.2104 46.5624 74.2892 46.3456 74.2892C46.1287 74.2892 45.971 74.2104 45.8331 74.0534L43.5269 71.0697C43.5269 71.0697 43.4875 71.05 43.4481 71.0697C43.4087 71.0697 43.389 71.0898 43.389 71.1291V77.0572C43.389 77.3517 43.4481 77.6465 43.5467 77.9017C43.5861 77.9802 43.6058 78.0579 43.6452 78.0972C43.7043 78.1757 43.7043 78.2746 43.6649 78.3531C43.5861 78.5101 43.2707 78.5879 42.7582 78.5879C42.2458 78.5879 41.9501 78.5101 41.8516 78.3531C41.8122 78.2746 41.8318 78.1757 41.8713 78.0972C41.9107 78.0383 41.9304 77.9797 41.9501 77.9208C42.0684 77.6656 42.1275 77.3905 42.1275 77.0764V70.2061C42.1275 69.9117 42.0684 69.6571 41.9698 69.4019C41.9304 69.3038 41.9107 69.2251 41.8713 69.2055C41.8121 69.0877 41.8121 68.9897 41.8713 68.9112C41.9895 68.7934 42.2852 68.7339 42.7385 68.7339H42.8568C43.113 68.7339 43.3298 68.8525 43.4875 69.0684L43.5664 69.1662L46.3061 72.6799L49.1247 69.0684C49.2824 68.8525 49.4795 68.7339 49.7554 68.7339H49.854C50.3271 68.7339 50.6227 68.7934 50.7213 68.9112C50.8001 68.9897 50.8198 69.0877 50.741 69.2055C50.7015 69.2447 50.6818 69.3033 50.6424 69.3818C50.5439 69.637 50.4847 69.9122 50.4847 70.2262V77.0572C50.4847 77.3517 50.5439 77.6268 50.6424 77.9017C50.6818 77.9802 50.7015 78.0579 50.741 78.0972H50.8198Z" fill="black"/>
<path d="M58.4281 77.9399C58.4281 77.9399 58.4873 78.0971 58.5267 78.1364C58.5858 78.2149 58.5858 78.3138 58.5464 78.3923C58.4675 78.5493 58.1522 78.6271 57.6397 78.6271C57.1272 78.6271 56.8316 78.5493 56.733 78.3923C56.6936 78.3138 56.7133 78.2149 56.7528 78.1364C56.7922 78.0775 56.8118 78.0189 56.8316 77.96C56.9498 77.7048 57.0089 77.4297 57.0089 77.1156V70.2846C57.0089 69.9901 56.9498 69.6963 56.8513 69.4411C56.8119 69.3626 56.7922 69.2839 56.7528 69.2446C56.6936 69.1465 56.6936 69.0682 56.733 68.9897C56.8119 68.8327 57.1272 68.7539 57.6397 68.7539C58.1522 68.7539 58.4478 68.8327 58.5464 68.9897C58.5858 69.0486 58.5661 69.1465 58.5267 69.2446C58.4873 69.2839 58.4675 69.3425 58.4281 69.421C58.3296 69.6762 58.2704 69.9513 58.2704 70.2654V77.0964C58.2704 77.3909 58.3296 77.6847 58.4281 77.9399Z" fill="black"/>
<path d="M71.1807 76.9784C71.3581 77.1158 71.437 77.292 71.4173 77.4883C71.4173 77.7042 71.3187 77.8613 71.1216 77.979C70.412 78.4501 69.5448 78.6864 68.5001 78.6864C68.2636 78.6864 68.0074 78.6859 67.7708 78.627C66.9824 78.5484 66.3517 78.5091 65.9181 78.5091C65.7604 78.5483 65.5633 78.5685 65.307 78.5685C64.7946 78.5685 64.4989 78.4897 64.42 78.3327C64.3806 78.2542 64.4004 78.1563 64.4398 78.0778C64.4792 78.0385 64.4989 77.9799 64.5186 77.9014C64.6369 77.6462 64.696 77.3711 64.696 77.057V70.226C64.696 69.9315 64.6369 69.6367 64.5383 69.3816C64.4989 69.303 64.4792 69.2243 64.4398 69.1851C64.3806 69.0869 64.3806 69.0086 64.42 68.9301C64.4989 68.7731 64.8142 68.6943 65.3267 68.6943C65.8392 68.6943 66.1349 68.7731 66.2334 68.9301C66.2729 68.989 66.2531 69.0869 66.2137 69.1851C66.1743 69.2243 66.1546 69.2839 66.1152 69.3624C66.0166 69.6176 65.9575 69.8918 65.9575 70.2058V77.0369C65.9575 77.1743 66.0166 77.253 66.1546 77.2726C66.5882 77.2726 67.1795 77.3316 67.9088 77.3905C68.9731 77.5083 69.8207 77.3513 70.4514 76.9391C70.7077 76.7821 70.9442 76.8012 71.1807 76.9583V76.9784Z" fill="black"/>
<path d="M50.2089 37.7587C52.0222 35.5013 53.5793 32.9886 54.8802 30.2798C55.4124 29.0235 55.8066 27.7866 56.0629 26.6088C56.122 26.2948 56.1811 26.0004 56.2205 25.706C56.4768 24.1356 56.457 22.6831 56.2205 21.3286C55.9052 19.9153 55.3533 18.7177 54.5846 17.7363C53.8356 16.8137 52.7318 16.1664 51.2929 15.7935C50.0511 15.6168 49.1247 15.6163 48.5137 15.8126C47.7647 16.0678 47.134 16.4606 46.6215 17.0299C46.0499 17.7954 45.6557 18.5017 45.3995 19.1299C45.0644 19.974 44.7885 20.858 44.5914 21.8002L44.2563 23.8024C44.2168 24.4109 44.2563 24.9603 44.3548 25.451C44.4928 25.9614 44.7293 26.4132 45.0841 26.7861C45.4586 27.1002 46.0302 27.3547 46.7989 27.5117C47.3705 27.6295 47.8633 27.6103 48.2772 27.4532C48.77 27.3355 49.2628 27.1588 49.7752 26.9232L49.6766 26.9817C49.6766 26.9817 50.1694 26.7666 51.0761 26.3347C51.4506 26.1384 51.8054 26.0395 52.1996 26.0395L52.3573 26.0788C52.7121 26.1573 52.8894 26.4128 52.8894 26.8839C52.8894 27.0409 52.8895 27.2565 52.85 27.4724C52.7712 27.8846 52.5741 28.3557 52.2982 28.9053C51.5097 30.2794 50.2877 31.9091 48.5926 33.7542C46.8384 35.5994 44.9856 37.268 43.0146 38.7402C41.1421 40.2713 38.8754 41.8021 36.175 43.3332C33.3958 44.9035 30.8532 46.1011 28.5471 46.8862C26.1621 47.7892 23.4815 48.437 20.5249 48.8492C17.8246 49.2025 15.2425 49.1242 12.759 48.5942C11.6158 48.3587 10.3346 47.9068 8.93516 47.2591C7.77224 46.7094 6.74732 45.9637 5.88006 45.0019C5.0128 44.0989 4.40175 43.0387 4.06668 41.8217C3.71189 40.585 3.69218 39.2113 4.00755 37.7194C4.42147 35.7368 5.24929 34.0491 6.45162 32.675C7.81164 31.2617 9.32938 30.1227 11.0442 29.259C12.9167 28.2972 14.9863 27.4928 17.2136 26.8254C18.7116 26.4329 21.0374 25.8043 24.2108 24.921C27.0688 24.1162 29.4931 23.3896 31.4642 22.7222C33.6915 22.0745 36.037 21.1324 38.4811 19.8957C40.7281 18.6198 42.7386 17.1677 44.5322 15.5385C46.4244 13.7718 47.9816 11.6907 49.2036 9.25668C49.4598 8.62854 49.8146 7.80407 50.268 6.7637L50.9775 4.60427C51.0761 4.13316 51.0367 3.72117 50.8396 3.36784C50.7411 2.97525 50.5439 2.64109 50.268 2.40554C50.0117 1.97369 49.6964 1.62078 49.3416 1.3656C48.9474 1.01227 48.5729 0.73711 48.1787 0.521186C47.7648 0.266003 47.3705 0.108967 46.9763 0.0304493C46.5427 -0.067698 46.1091 0.07013 45.7149 0.462719C45.4192 0.698273 45.025 1.18851 44.552 1.9148C44.1972 2.54295 43.9015 3.05385 43.7044 3.44644C43.7044 3.42681 43.7438 3.40714 43.7438 3.40714C43.7438 3.48566 43.4482 4.13293 42.9357 5.34996L42.8766 5.62504L42.916 5.66434L42.7386 5.54645L43.665 6.19437C43.8029 6.27289 44.0198 6.41018 44.276 6.56722C44.5125 6.72425 44.7096 6.84191 44.8476 6.94006C44.9265 7.03821 45.1038 7.176 45.3798 7.33303C45.6163 7.5097 45.7937 7.6662 45.8923 7.76435C46.2668 8.07842 46.4836 8.35404 46.5624 8.58959C46.6807 8.78588 46.7201 8.98183 46.6807 9.21739C46.6807 9.33516 46.6807 9.41395 46.6807 9.49247C46.661 9.62987 46.6018 9.70816 46.5033 9.74742C45.2812 11.9263 43.7044 13.7317 41.7728 15.1647C39.7032 16.6369 37.6139 17.7951 35.5443 18.6392C33.3367 19.5617 30.9911 20.3468 28.4879 21.0142C26.7928 21.4068 24.3093 22.0359 21.0177 22.8996C18.3371 23.6651 15.9915 24.4108 14.0008 25.1567C11.5961 25.9812 9.52648 27.0217 7.77225 28.2977C5.93918 29.5343 4.3229 31.1832 2.94317 33.2443C1.78025 34.8932 0.952431 36.9143 0.439959 39.3287C0.361118 39.7409 0.282285 40.1731 0.203443 40.6245C-0.131634 42.6071 -0.052802 44.4131 0.439959 46.0619C0.972142 47.7893 1.78027 49.2423 2.84464 50.4201C3.83016 51.6568 5.13105 52.7165 6.7276 53.6195C8.40299 54.5421 10.0586 55.1701 11.6946 55.5038C14.2373 56.0338 16.8982 56.1318 19.6379 55.7981C22.4171 55.4644 25.1963 54.7974 27.9951 53.816C30.656 52.8541 33.3958 51.5778 36.2144 49.9485C39.0527 48.2211 41.5757 46.396 43.803 44.492C45.8923 42.6861 48.0407 40.4672 50.2483 37.8172" fill="black"/>
<path d="M43.6848 3.42676C43.6848 3.42676 43.6059 3.5846 43.5271 3.76126C43.5665 3.66312 43.6257 3.54453 43.6848 3.42676Z" fill="black"/>
<path d="M117.914 28.2191C117.855 27.6891 117.678 26.9429 117.382 25.9811C117.165 25.2548 117.008 24.4111 116.889 23.4296C116.771 22.4482 116.672 21.3682 116.613 20.1708L115.904 19.8565C115.569 19.9939 115.096 20.2882 114.465 20.72C113.834 21.1519 104.353 26.6681 102.757 27.9047C100.451 29.7499 98.2235 30.7309 96.0948 30.8683C93.966 30.9861 92.1921 30.7508 90.7927 30.1226C90.7335 30.103 90.6744 30.0838 90.6153 30.0642C90.6547 30.0053 89.9057 29.3575 89.7086 29.122C89.6298 28.9649 89.5509 28.7877 89.4918 28.5718C89.5706 28.1596 89.8071 27.3351 90.1816 26.0395C90.2802 25.4114 90.3393 24.9999 90.3984 24.7839C90.4181 24.411 90.3393 24.1747 90.1225 24.0766C89.8268 23.9392 89.5509 24.0573 89.2946 24.4303C88.999 24.8425 88.6837 25.3135 88.3486 25.8239C88.0923 26.2361 87.6587 26.8445 87.0673 27.6689C86.5746 28.3167 85.9636 28.8862 85.2343 29.3769C84.4853 29.8677 83.6377 30.1625 82.6916 30.2606C81.7652 30.3784 80.4052 30.0836 78.6313 29.4162C77.6458 28.7685 76.9362 27.7865 76.4828 26.491C76.0886 25.1758 75.8127 23.7828 75.6944 22.291C75.6353 20.7599 75.931 12.005 75.9901 10.3954C76.2069 8.03986 76.3646 6.60652 76.4434 6.07652C76.6603 4.15284 76.7785 3.0537 76.7588 2.75926C76.8377 1.93482 76.7588 1.48346 76.5814 1.40494C76.3055 1.36568 76.0886 1.50351 75.931 1.83721L75.0637 3.52508C74.6695 4.271 74.3739 4.85965 74.1768 5.25224L72.5014 8.7267C72.2254 9.29595 72.0874 9.62919 72.1071 9.72734C72.1071 9.78623 72.0875 10.1992 72.0283 10.9647C71.9495 12.7706 71.6341 21.4856 71.6538 22.7223C71.6538 22.7419 71.5749 24.4504 71.437 27.8463C71.2596 29.7896 71.023 31.4769 70.688 32.9492C70.4317 34.3232 69.9784 35.9131 69.3083 37.7386L68.8352 38.7009C68.1256 40.1535 67.3569 41.5273 66.4897 42.8032C66.5291 42.6069 66.5685 42.411 66.6079 42.2147C66.8839 40.821 67.0416 39.6042 67.081 38.5639C67.1204 37.5235 67.0613 36.5223 66.9036 35.5409C66.7459 34.5594 66.5685 33.4603 66.332 32.2236L64.1244 21.0344C63.6908 18.8555 63.3951 17.0491 63.2177 15.6162C63.0403 14.2029 62.9615 13.1431 62.9812 12.4561L61.7 12.4168C60.478 17.0886 60.2217 21.3876 60.9313 25.2939L63.2177 38.1709C63.612 40.5461 63.8879 42.4893 64.0653 43.9812C64.1441 44.7467 64.1835 45.3949 64.1835 45.9249C62.9221 47.4757 61.5621 48.8297 60.0838 49.9879C58.1719 51.6171 54.0918 54.9937 43.9015 53.6981C42.64 53.5411 44.6702 57.4664 45.3403 58.0553C45.5769 58.232 45.8725 58.3895 46.2076 58.5662C46.7989 58.8606 47.5479 59.1157 48.4546 59.3905C50.5636 59.9008 52.5938 59.8418 54.5451 59.2333C56.5359 58.6051 58.3492 57.6045 60.0246 56.2304C61.6606 55.0134 63.2572 53.4038 64.8143 51.3623C66.4503 49.1442 67.7905 47.2009 68.8352 45.5128C69.9784 43.5106 70.9836 41.6062 71.8706 39.8003C72.659 37.9748 73.3292 36.4046 73.9008 35.0501C74.0979 35.3053 74.5906 35.6587 75.3791 36.1102C75.3791 36.1102 75.3791 36.1102 75.3988 36.1102C76.5617 36.6598 77.6063 36.9739 78.5721 37.0524C79.1437 37.0327 79.9322 36.9343 80.9374 36.738C81.5879 36.5417 82.2777 36.2665 83.0267 35.8936C83.8151 35.4814 84.4459 35.1673 84.8992 34.9514C85.0964 35.0495 85.3329 35.2066 85.6285 35.4421C86.0424 35.7366 86.6929 36.1101 87.5404 36.5223L87.4813 36.6402C88.6442 37.1113 89.748 37.2088 90.8124 36.9536C91.1672 36.8751 91.4825 36.7772 91.7979 36.6594C91.7585 36.6398 91.7388 36.6004 91.719 36.5808C91.8176 36.5612 91.9162 36.5218 92.0344 36.5022C93.6113 35.9722 95.5232 35.069 97.7504 33.8127C99.347 32.9098 100.806 32.1252 102.166 31.4578C103.526 30.7904 104.511 30.5935 105.142 30.8683C105.694 31.1039 106.285 31.5163 106.916 32.0463C107.547 32.5959 108.197 33.2835 108.867 34.1079C109.045 34.3435 109.261 34.5202 109.498 34.638C109.734 34.7754 109.971 34.8926 110.227 34.9907C111.035 35.344 111.981 35.2653 113.065 34.7549C114.15 34.2445 115.155 33.4994 116.061 32.5571C116.988 31.5953 117.579 30.6527 117.855 29.7105C117.993 29.2394 118.033 28.729 117.973 28.199" fill="black"/>
<path d="M90.4177 43.5501L89.9643 43.4907C89.6096 43.6281 88.9394 44.0996 87.9933 44.8652C87.0472 45.6307 86.18 46.3956 85.3916 47.1415C85.1156 46.5723 84.7017 46.0038 84.1103 45.4345C83.5387 44.8652 82.8095 44.2372 81.9422 43.5501L81.4297 43.4907C81.1144 43.6085 80.5822 43.9614 79.8135 44.57C79.0645 45.1785 78.3155 45.8267 77.5468 46.5137C76.7781 47.2008 76.2064 47.7698 75.7925 48.2016L75.7334 48.7125C76.4036 49.4191 77.0934 50.1644 77.7636 50.9495C78.4534 51.7347 79.1433 52.6187 79.8726 53.5412L80.3851 53.5997C82.9869 52.2256 84.6228 50.9695 85.3127 49.831C86.3179 50.8714 87.3823 52.1275 88.5058 53.5604L89.0183 53.6198C92.3099 51.8728 94.0641 50.2825 94.2415 48.8495C94.3401 48.1036 94.0641 47.3185 93.4334 46.4744C92.8027 45.65 91.7777 44.6685 90.398 43.53" fill="black"/>
<path d="M83.5592 78.47C83.5592 78.47 83.638 78.6474 83.6183 78.7259C83.5592 78.8437 83.3621 78.9018 83.027 78.9214L82.9481 78.9415H82.278C82.1794 78.9415 82.0809 78.942 82.0021 78.8831C81.8247 78.8242 81.7064 78.7061 81.6472 78.5294L80.7406 76.2329C80.7012 76.174 80.6617 76.115 80.6223 76.115C80.3858 76.0561 79.8339 76.1152 78.9667 76.3508C78.1782 76.5667 77.5672 76.6843 77.1927 76.6843C77.0153 76.6843 76.8182 76.6646 76.6605 76.6058C76.6014 76.6058 76.5817 76.6053 76.562 76.6642L75.7538 78.5879C75.6947 78.7645 75.5765 78.8827 75.3991 78.9415C75.3399 78.9808 75.2611 79 75.1626 79C75.064 79 74.9851 79.0004 74.9063 78.9415C74.7486 78.8827 74.65 78.765 74.5712 78.608C74.5121 78.451 74.5121 78.2743 74.5712 78.1173L78.1388 69.4019C78.2373 69.1271 78.4345 68.9897 78.7301 68.9897H78.7498C79.0258 68.9897 79.2229 69.1271 79.3412 69.4019C79.3412 69.4019 79.5974 70.0688 80.1098 71.3447C80.6223 72.6206 81.1545 73.8965 81.667 75.192C82.1992 76.4876 82.4751 77.1752 82.5145 77.2537C82.7116 77.7444 83.027 78.0974 83.4212 78.3329V78.215L83.5395 78.4115C83.5395 78.4508 83.5592 78.4705 83.5592 78.4901V78.47ZM77.0745 75.2907H77.0547C77.0547 75.2907 77.0547 75.3497 77.0547 75.3693C77.0547 75.3693 77.0744 75.3885 77.0941 75.3885C77.3701 75.3885 77.8826 75.3097 78.6119 75.1134C79.282 74.9367 79.7551 74.8589 80.0902 74.8393C80.0902 74.8393 80.1296 74.8388 80.1493 74.7799L78.7301 71.3054H78.7104C77.6855 73.818 77.1336 75.1533 77.0745 75.2907Z" fill="black"/>
<path d="M94.0449 69.5781V69.7353C94.0449 70.2653 93.966 70.5597 93.8083 70.6382C93.7295 70.6775 93.6309 70.6573 93.5521 70.6181C93.5127 70.5788 93.4536 70.5596 93.3747 70.5203C93.1185 70.4222 92.8425 70.3631 92.5272 70.3631H89.3735C89.2749 70.3631 89.2158 70.4025 89.2158 70.481V72.581C89.2158 72.581 89.2158 72.6405 89.2552 72.6797C89.2947 72.719 89.3143 72.719 89.3538 72.719C89.7874 72.719 90.2408 72.7777 90.6941 72.974C91.4431 73.2881 92.0739 73.3073 92.606 73.0325C92.7637 72.9343 92.9214 72.8954 93.0791 72.9347C93.2367 72.974 93.3747 73.0719 93.4536 73.229C93.5521 73.386 93.5718 73.543 93.5127 73.7197C93.4536 73.8964 93.3747 74.014 93.2367 74.0925C92.8228 74.3281 92.3301 74.4462 91.7388 74.4462C91.2263 74.4462 90.7138 74.3483 90.221 74.152C89.9254 74.0146 89.6691 73.9751 89.4129 73.9948C89.2946 73.9948 89.2355 74.0534 89.2355 74.1711V77.4299C89.2355 77.7244 89.2947 77.9995 89.3932 78.2743C89.4326 78.3529 89.4523 78.4306 89.4917 78.4699C89.5509 78.5484 89.5509 78.6271 89.5115 78.7057C89.4326 78.8627 89.1172 78.9414 88.6048 78.9414C88.0923 78.9414 87.7966 78.8627 87.6981 78.7057C87.6587 78.6468 87.6784 78.568 87.7178 78.4699C87.7572 78.411 87.777 78.3524 87.7967 78.2935C87.9149 78.0187 87.9741 77.744 87.9741 77.4299V70.6181C87.9741 70.3236 87.9149 70.0298 87.8163 69.7746C87.7769 69.6961 87.7572 69.6174 87.7178 69.5781C87.6784 69.5193 87.6587 69.4798 87.6587 69.421C87.6587 69.3621 87.6587 69.303 87.7178 69.2638C87.8361 69.146 88.1317 69.0874 88.5851 69.0874H93.5127C93.6507 69.0874 93.7689 69.1263 93.8477 69.2245C93.9463 69.3226 94.0055 69.4412 94.0055 69.559L94.0449 69.5781Z" fill="black"/>
</svg>
