<svg width="72" height="27" viewBox="0 0 72 27" fill="none" xmlns="http://www.w3.org/2000/svg">
<path d="M10.5614 0.5C10.5614 0.5 10.5313 0.559845 10.5213 0.600003C10.1302 1.38308 9.75922 2.16652 9.41828 2.96967C8.84671 4.30493 8.38539 5.68022 8.11464 7.11586C8.01437 7.63792 7.95421 8.17009 7.93415 8.70218C7.9141 9.32463 7.95422 9.94718 8.07455 10.5596C8.22497 11.3427 8.54583 12.0654 8.99708 12.718C9.70904 13.732 10.6717 14.3945 11.8048 14.8563C12.607 15.1775 13.4493 15.3483 14.3117 15.4587C14.8833 15.529 15.4649 15.5389 16.0365 15.5087C16.5679 15.4786 17.0994 15.4187 17.6309 15.3484C18.6537 15.2079 19.6564 14.9668 20.6592 14.7058C21.7422 14.4247 22.8252 14.1234 23.8981 13.8322C25.2719 13.4608 26.6356 13.0894 28.0094 12.718C29.3632 12.3465 30.7169 11.9752 32.0706 11.6037C33.3642 11.2523 34.6677 10.9007 35.9613 10.5493C37.2549 10.1979 38.5384 9.84672 39.832 9.49534C41.1958 9.12388 42.5494 8.7523 43.9132 8.3708C45.287 7.9893 46.6607 7.61796 48.0345 7.23646C49.3782 6.865 50.7219 6.50348 52.0656 6.13201C53.1285 5.84087 54.1915 5.54961 55.2645 5.25846C56.7987 4.8368 58.3329 4.42518 59.8671 4.00353C61.4114 3.58187 62.9556 3.16044 64.4999 2.73879C66.0842 2.30709 67.6686 1.87535 69.2529 1.44365C70.1354 1.20271 71.0078 0.961542 71.8902 0.720594C71.9203 0.720594 71.9604 0.700515 72.0005 0.720594C71.9704 0.740673 71.9404 0.761046 71.9103 0.771086C70.0151 1.60436 68.1298 2.44768 66.2346 3.28096C64.8007 3.91345 63.3667 4.54558 61.9428 5.17807C59.7868 6.13182 57.641 7.0859 55.4851 8.02962C53.7804 8.78258 52.0856 9.53554 50.3809 10.2885C48.4757 11.1318 46.5705 11.9752 44.6653 12.8185C42.7199 13.6819 40.7746 14.5449 38.8192 15.4082C37.1045 16.1712 35.3898 16.9245 33.665 17.6774C32.5219 18.1894 31.3687 18.6914 30.2255 19.2034C28.8618 19.8058 27.498 20.408 26.1242 21.0104C25.0814 21.4722 24.0285 21.9341 22.9856 22.406C22.4541 22.6369 21.9227 22.868 21.3912 23.1089C20.5489 23.5005 19.7066 23.8716 18.8442 24.2129C17.3601 24.8052 15.846 25.3172 14.3017 25.7188C13.299 25.9798 12.2861 26.191 11.2533 26.3316C10.782 26.3918 10.3208 26.4419 9.84946 26.462C9.29794 26.4921 8.74641 26.512 8.20492 26.4919C7.12194 26.4618 6.05903 26.3011 5.02619 25.9497C4.03345 25.6084 3.11091 25.1267 2.32876 24.4139C1.75719 23.8918 1.27583 23.2997 0.914835 22.607C0.503703 21.8339 0.242988 21.0007 0.102602 20.1373C0.0223811 19.5952 -0.00767726 19.0529 0.00235034 18.5108C0.0324331 17.2157 0.323233 15.9608 0.75442 14.746C1.12544 13.7119 1.55662 12.6977 2.058 11.7238C2.52929 10.8102 3.04068 9.907 3.60222 9.03356C4.33424 7.87902 5.13648 6.76454 5.95875 5.67024C6.65065 4.75664 7.36257 3.87327 8.11464 3.00987C8.56588 2.5079 9.02716 2.01575 9.49846 1.53385C9.78926 1.23267 10.0801 0.941639 10.3809 0.650494C10.431 0.600297 10.5012 0.550197 10.5513 0.5C10.5513 0.5 10.5614 0.510059 10.5714 0.520099L10.5614 0.5Z" fill="black"/>
</svg>
