<svg width="118" height="43" viewBox="0 0 118 43" fill="none" xmlns="http://www.w3.org/2000/svg">
<path d="M85.1246 25.4322C83.2007 23.433 82.9794 22.3404 82.9794 22.3404C82.6559 21.114 83.9498 20.4086 84.0008 20.375C84.3584 20.123 86.5036 18.9468 86.5036 18.9468C88.87 17.754 89.5851 16.8805 89.5851 16.8805C91.3727 14.7805 90.6065 12.2104 90.6065 12.2104C90.6065 12.2104 90.232 10.4295 88.24 9.13589C87.1164 8.41349 85.7544 8.06111 84.4265 7.89311C83.1156 7.72511 81.7876 7.77499 80.4596 7.77499C79.2168 7.77499 75.3351 7.77499 74.6371 7.77499C73.9391 7.77499 73.3262 8.34622 73.3262 9.06862V33.9331C73.3262 34.6387 73.905 35.2095 74.6201 35.2095C75.2841 35.2095 76.0502 35.2095 76.4758 35.2095C76.6801 35.2095 76.8503 35.0411 76.8503 34.8395C76.8503 26.3219 76.8503 17.8044 76.8503 9.28682C76.8503 9.23642 76.8845 9.20315 76.9356 9.20315H80.5448C82.5878 9.20315 83.1667 9.40455 83.2007 9.42135C85.8396 10.0262 86.5887 12.2941 86.5887 12.2941C87.508 14.7469 85.9247 16.7631 85.9247 16.7631C84.9713 18.0903 83.5242 18.9805 82.2132 19.9213C81.6514 20.3245 81.0725 20.7787 80.681 21.3667C79.8297 22.6435 80.2043 24.2222 80.9534 25.4486C81.2428 25.919 81.5662 26.3727 81.9408 26.8095L88.6486 34.655C88.938 35.0078 89.3807 35.2095 89.8404 35.2095H92.956C93.2795 35.2095 93.4497 34.8401 93.2283 34.6049L85.1246 25.4322Z" fill="black"/>
<path d="M66.0738 21.7196C66.0738 21.7196 65.0693 21.0138 63.3498 20.2578C62.4134 19.8378 61.4771 19.4174 60.5407 19.0142C58.9234 18.3086 57.2038 17.6873 55.9099 16.4441C55.6375 16.1921 55.3992 15.9065 55.1949 15.6041C54.7692 14.9993 54.4798 14.2934 54.4117 13.5542C54.3266 12.6974 54.5308 11.7398 55.0246 11.0342C55.7907 9.94219 57.0846 9.57269 58.3785 9.45509C60.2853 9.28709 62.2262 9.69055 63.9116 10.5641C64.4905 10.8665 64.9842 11.3199 65.5801 11.5887C66.1419 11.8407 66.7888 11.5891 67.1804 11.1523L67.8614 10.3459C67.9976 10.1779 67.9636 9.92542 67.7763 9.80782C62.5667 6.56542 57.4081 8.17868 57.4081 8.17868C57.4081 8.17868 53.5435 9.03558 52.4539 12.4796C52.4539 12.4796 51.3302 15.789 53.3561 18.5778C54.2925 19.8714 55.7737 20.8963 57.1697 21.6523C58.2423 22.2403 59.4 22.6765 60.5237 23.1469C63.2307 24.2389 67.3677 25.9189 67.2145 29.4469C67.1294 31.2445 66.244 32.7065 64.4224 33.2441C61.1876 34.2185 57.6465 33.0257 55.0076 31.1441C54.6161 30.8753 54.2585 30.5729 53.901 30.2705C53.3732 29.8337 52.5901 29.8674 52.1134 30.3714L51.3302 31.1778C51.194 31.329 51.194 31.5475 51.3302 31.6987C52.3857 32.7067 56.7101 36.2513 63.5882 34.9241C63.5882 34.9241 65.3587 34.6216 66.7377 33.5632C66.7377 33.5632 69.1893 31.9503 69.4107 28.8087C69.4107 28.8087 69.9215 24.3568 66.0738 21.736V21.7196Z" fill="black"/>
<path d="M116.842 29.1445C116.246 28.6909 115.395 28.8589 115.021 29.4973C114.135 30.9925 112.824 32.303 111.19 33.0254C107.53 34.6382 103.205 32.5718 100.89 29.6654C99.3236 27.6998 98.4383 25.2633 98.1148 22.7937C97.8594 20.9457 97.8936 19.0644 98.3022 17.25C98.7108 15.402 99.5449 13.6885 100.822 12.2773C101.928 11.0341 103.324 10.0767 104.925 9.57272C108.023 8.59832 111.377 9.42155 113.659 11.7063C113.727 11.7735 113.812 11.8574 113.88 11.9246C114.391 12.4622 115.259 12.4113 115.719 11.8401L116.553 10.7991C116.672 10.6479 116.638 10.4294 116.485 10.3118C113.42 8.26222 109.743 7.42235 106.083 7.92635C104.823 8.09435 103.597 8.41286 102.422 8.90006C98.8639 10.3449 96.191 13.3017 94.9652 16.8801C94.6418 17.8209 94.4204 18.7952 94.3183 19.7864C93.9437 23.1464 94.5907 26.5908 96.5146 29.43C97.3658 30.6732 98.4043 31.7987 99.6471 32.6891C102.541 34.7555 106.338 35.5618 109.879 35.1082C111.939 34.8394 113.931 33.9995 115.565 32.7227C116.434 32.0507 117.183 31.2441 117.915 30.4209C118.051 30.2697 118.017 30.0513 117.864 29.9337L116.859 29.1609L116.842 29.1445Z" fill="black"/>
<path d="M20.6344 33.2094C20.6344 33.2094 20.4982 33.2094 20.4131 33.2094C19.2043 33.0582 18.0806 32.3522 17.1442 31.1594C16.8548 30.7898 16.6166 30.4039 16.3782 30.0176C16.2931 29.8832 16.2079 29.7484 16.1228 29.614C15.7993 29.11 13.6031 25.5146 11.6623 22.3394C10.794 20.9282 9.99382 19.6184 9.432 18.7112L9.29577 18.4922C8.68287 17.4842 8.85312 16.2081 9.19362 15.4185C9.60222 14.4609 10.3343 13.7215 11.458 13.1167C12.1219 12.7639 12.82 12.4277 13.4839 12.1085C13.7734 11.9741 14.0628 11.8397 14.3352 11.6885C14.4884 11.6213 14.6417 11.5375 14.7779 11.4703C15.2886 11.2183 15.8334 10.9492 16.3612 10.714H16.3951C16.5143 10.6468 16.6165 10.5962 16.7357 10.5458C17.3826 10.2602 18.1147 9.9249 18.8638 9.9921C19.4086 10.0425 19.9704 10.3109 20.5663 10.8149L20.6855 10.9158C21.9283 11.991 23.1711 13.0997 24.3798 14.1749C26.9676 16.4933 29.6576 18.9122 32.5349 21.0122C32.8924 21.281 33.301 21.6003 33.6074 22.0203C34.3055 22.9947 34.2543 24.6917 33.9649 25.9685C33.7436 26.9765 33.2839 27.7155 32.5008 28.3203C31.9219 28.7571 29.7087 29.8832 29.4193 30.0176C28.3637 30.5216 23.0179 32.8393 21.1962 33.1585C21.0089 33.1921 20.8047 33.2258 20.6004 33.2258L20.6344 33.2094ZM18.7277 10.4621C18.1658 10.4621 17.5699 10.731 16.9911 10.983C16.8719 11.0334 16.7527 11.0836 16.6335 11.134H16.5995C16.0718 11.386 15.5439 11.6383 15.0332 11.8903C14.8799 11.9575 14.7267 12.0413 14.5905 12.1085C14.3011 12.2429 14.0117 12.3941 13.7223 12.5285C13.0583 12.8477 12.3773 13.1839 11.7133 13.5367C10.6748 14.0911 10.0279 14.729 9.67037 15.5858C9.3469 16.325 9.24471 17.4171 9.73843 18.2067L9.87466 18.4257C10.4195 19.3161 11.2367 20.6428 12.1049 22.054C14.0458 25.2292 16.259 28.8249 16.5655 29.3121C16.6506 29.4465 16.7356 29.5977 16.8208 29.7321C17.0421 30.1017 17.2805 30.4879 17.5529 30.8239C18.1488 31.5799 19.1362 32.5205 20.4982 32.6885C20.7025 32.7221 20.9239 32.6888 21.1622 32.6384C22.9158 32.336 28.3297 29.9835 29.2491 29.5467C29.7258 29.3115 31.7517 28.2867 32.2455 27.9003C32.9265 27.3795 33.3351 26.7412 33.5223 25.834C33.7607 24.7084 33.8458 23.1122 33.2499 22.2722C32.9945 21.9194 32.62 21.6173 32.2965 21.3821C29.4022 19.2653 26.7123 16.8464 24.1075 14.5112C22.9157 13.436 21.673 12.3273 20.4302 11.2521L20.311 11.1512C19.8002 10.7144 19.3405 10.4793 18.8979 10.4457C18.8468 10.4457 18.7957 10.4457 18.7616 10.4457L18.7277 10.4621Z" fill="black"/>
<path d="M21.0255 34.8229C20.7191 34.8229 20.3956 34.7896 20.0892 34.7056C19.9189 34.6552 19.7316 34.6046 19.5614 34.5374C18.608 34.1678 17.7057 33.5296 16.9055 32.6392C16.6672 32.3704 13.3642 27.9014 12.9897 27.3974C12.513 26.7422 10.7084 24.2391 10.2828 23.6511C9.82311 22.9959 9.44854 22.4578 9.09101 21.9538C8.81861 21.5506 8.47814 21.0633 8.15466 20.5593C8.10359 20.4921 8.06951 20.4251 8.01843 20.3411C7.96736 20.2571 7.8993 20.1569 7.84823 20.0729C6.82673 18.5609 6.74155 16.1585 8.85264 14.1929C9.53364 13.5545 12.7174 11.4371 14.5561 10.2275L14.8795 10.0093C15.7989 9.40448 16.7522 8.76612 17.7907 8.36292C18.4377 8.11092 18.9996 8.02705 19.5444 8.07745C20.2083 8.14465 20.8552 8.42986 21.5022 8.93385C21.5873 9.00105 21.6725 9.06845 21.7576 9.13565C22.9834 10.1269 34.5603 20.3412 34.6284 20.4084C35.1903 20.946 35.5478 21.6521 35.7351 22.6265C35.9224 23.5505 35.8883 24.5244 35.684 25.4484C35.5478 26.0028 35.2753 26.7927 34.6965 27.4311C34.1517 28.0191 33.5048 28.4728 32.9259 28.8592C31.7001 29.6656 30.4062 30.3878 29.0953 31.1102C28.0738 31.6646 27.0523 32.2358 26.0138 32.7902C25.2988 33.1766 23.6644 34.0502 23.5963 34.0838C23.1026 34.319 22.5407 34.588 21.9278 34.7392C21.6384 34.8064 21.332 34.8393 21.0426 34.8393L21.0255 34.8229ZM19.255 8.56471C18.8634 8.56471 18.4378 8.64816 17.9781 8.83296C16.9736 9.21936 16.0542 9.82448 15.1689 10.4293L14.8455 10.6475C11.7469 12.6803 9.6869 14.1084 9.2102 14.562C7.84821 15.822 7.03103 17.939 8.27385 19.8038C8.34195 19.9046 8.393 19.9885 8.4611 20.0893C8.49515 20.1565 8.54625 20.2239 8.59733 20.2911C8.9208 20.7951 9.24426 21.2652 9.53368 21.6684C9.87418 22.1724 10.2658 22.7104 10.7084 23.3656C11.134 23.9704 12.9386 26.4568 13.4153 27.112C13.909 27.8008 17.0928 32.1009 17.2971 32.3193C18.0461 33.1593 18.8804 33.7478 19.7657 34.0838C19.9189 34.1342 20.0721 34.1843 20.2253 34.2347C20.7531 34.3691 21.315 34.3691 21.8087 34.2347C22.3705 34.1003 22.8983 33.8481 23.375 33.6129C23.4431 33.5793 25.0263 32.7397 25.7754 32.3365C26.7969 31.7821 27.8184 31.2277 28.857 30.6565C30.1679 29.9341 31.4448 29.2284 32.6536 28.422C33.1984 28.0524 33.8283 27.6159 34.339 27.0783C34.8498 26.5239 35.0882 25.8178 35.2073 25.3138C35.4116 24.457 35.4286 23.5497 35.2584 22.6929C35.0881 21.8193 34.7816 21.1983 34.2879 20.7447C34.2028 20.6607 22.694 10.4964 21.4511 9.48839C21.366 9.42119 21.2809 9.35379 21.2128 9.28659C20.6509 8.84979 20.0891 8.59789 19.5273 8.54749C19.4422 8.54749 19.3741 8.54749 19.2889 8.54749L19.255 8.56471Z" fill="black"/>
<path d="M21.2134 36.5522C20.941 36.5522 20.6686 36.5189 20.3962 36.4685C19.0172 36.1997 17.7403 35.4609 16.6677 34.3185C15.7314 33.3273 12.1731 28.9758 11.1176 27.6822C10.3685 26.7582 9.36406 25.5485 8.37661 24.2885C7.78074 23.5325 6.48681 21.752 6.43574 21.6512C6.36764 21.5504 6.31659 21.4498 6.24849 21.3658C6.04419 21.0466 5.83986 20.7104 5.68664 20.324C5.51639 19.8536 5.41428 19.3493 5.41428 18.8285C5.39726 17.8373 5.68667 16.7962 6.24849 15.9058C7.04866 14.6458 8.25741 13.738 9.41511 12.8476C9.67048 12.646 9.94293 12.4443 10.2153 12.2259C11.3901 11.3019 12.6328 10.3111 13.9097 9.30308C14.0629 9.18548 14.2162 9.06795 14.3694 8.95035C15.4079 8.12715 16.4805 7.28662 17.7062 6.73222C18.6596 6.31222 19.4428 6.14495 20.209 6.21214C21.3667 6.32974 22.2519 6.96818 22.8988 7.50578C23.4436 7.95938 35.9741 19.3495 36.0592 19.4167C36.6891 20.0047 37.0977 20.7938 37.3361 21.8186C37.5744 22.8266 37.5574 23.9019 37.302 24.9267C36.9445 26.3547 35.9229 27.6485 34.1864 28.9085C26.7976 34.2173 24.4652 35.4435 23.6991 35.8467L23.614 35.8976C23.614 35.8976 23.4437 35.9813 23.3756 36.0149L23.1372 36.1322C22.8818 36.2498 22.7116 36.3341 22.4563 36.4013C22.0306 36.5189 21.622 36.5694 21.2304 36.5694L21.2134 36.5522ZM19.8173 6.69859C19.2385 6.69859 18.6256 6.84986 17.8935 7.18586C16.7188 7.72345 15.6803 8.54711 14.6588 9.33671C14.5056 9.45431 14.3523 9.57145 14.1991 9.70585C12.9222 10.6971 11.6794 11.6886 10.5047 12.6294C10.2494 12.831 9.95987 13.0496 9.7045 13.2512C8.58085 14.108 7.40617 14.9984 6.65707 16.1912C6.14632 16.9976 5.8739 17.9381 5.89093 18.8285C5.89093 19.2821 5.99312 19.7354 6.14634 20.1722C6.26552 20.5082 6.45277 20.8107 6.65707 21.1131C6.72517 21.2139 6.77622 21.315 6.84432 21.4158C6.91242 21.5166 8.13821 23.2135 8.75111 24.0031C9.73855 25.2631 10.7261 26.4727 11.4752 27.3967C12.2413 28.3207 16.0719 33.0078 17.0083 34.0158C18.0127 35.091 19.1704 35.7629 20.4643 36.0149C21.0602 36.1325 21.656 36.0992 22.286 35.9312C22.4903 35.8808 22.6265 35.8134 22.8819 35.6958L23.1202 35.5785C23.1202 35.5785 23.2734 35.5112 23.3415 35.4776L23.4266 35.4267C24.1927 35.0235 26.4911 33.8142 33.8629 28.5222C35.5143 27.3462 36.4678 26.1362 36.7913 24.8258C37.0296 23.885 37.0295 22.8939 36.8252 21.9531C36.6209 21.0291 36.2464 20.3239 35.6846 19.8031C35.5995 19.7191 23.0521 8.32855 22.5414 7.90855C21.6561 7.16935 20.907 6.81622 20.1068 6.73222C20.0047 6.73222 19.9024 6.73222 19.8003 6.73222L19.8173 6.69859Z" fill="black"/>
<path d="M21.4002 38.468C21.4002 38.468 21.2811 38.468 21.23 38.468C20.1574 38.4344 19.102 38.1493 18.1996 37.6453C17.3995 37.1917 16.7695 36.536 16.1737 35.9144L16.0033 35.7298C14.9989 34.6882 11.3044 30.5719 9.90839 29.0263L9.61899 28.6907C8.58047 27.5315 5.77136 24.2216 5.36276 23.7344C5.27763 23.6336 5.20951 23.5498 5.12438 23.449C4.83496 23.0962 4.52853 22.7431 4.29018 22.3399C3.98373 21.8191 3.76241 21.2146 3.66026 20.5762C3.50704 19.6018 3.60918 18.5766 3.9667 17.619C4.35827 16.5942 5.00521 15.8217 5.87348 14.9481C6.77581 14.0241 7.78028 13.184 8.7507 12.3608C9.14228 12.0248 9.53386 11.6886 9.92543 11.3526L11.1342 10.2944C11.8833 9.62243 12.6494 8.96776 13.4155 8.31256C13.6028 8.14456 13.7901 7.97607 13.9774 7.80807C14.386 7.43847 14.8286 7.0686 15.2542 6.699C16.2587 5.84221 17.6378 4.80126 19.3232 4.43166C19.834 4.31406 20.3448 4.28036 20.8385 4.33076C21.9111 4.44836 22.9325 4.9354 24.0561 5.8426C25.0265 6.6322 36.9441 17.8882 37.557 18.4762C38.255 19.1314 38.7317 20.0051 39.0041 21.0635C39.2935 22.1723 39.2935 23.3483 39.0041 24.4571C38.6295 25.8851 37.7442 26.8261 36.8589 27.6325C34.5946 29.6653 32.16 31.5969 29.8276 33.4617L29.4531 33.7644C29.0956 34.05 26.661 35.9651 26.3205 36.2171C26.0481 36.4187 24.8393 37.2751 24.4988 37.4935C24.2094 37.6615 23.8348 37.8973 23.4432 38.0653C22.9155 38.3005 22.3707 38.4349 21.7919 38.4853C21.6727 38.4853 21.5364 38.4853 21.4173 38.4853L21.4002 38.468ZM20.3788 4.76717C20.0723 4.76717 19.7659 4.80087 19.4424 4.86807C17.8591 5.22087 16.5481 6.21213 15.5777 7.03533C15.1521 7.40493 14.7265 7.77437 14.3179 8.12717C14.1306 8.29517 13.9433 8.46366 13.739 8.63166C12.9729 9.28686 12.2239 9.95833 11.4748 10.6135L10.266 11.6726C9.87438 12.0086 9.46577 12.3607 9.09122 12.6799C8.13783 13.5031 7.13338 14.3436 6.24809 15.2508C5.43089 16.074 4.81801 16.8127 4.46049 17.7535C4.11999 18.6271 4.01777 19.5685 4.17099 20.4589C4.27314 21.0469 4.46044 21.6008 4.73284 22.0544C4.95417 22.424 5.2266 22.7434 5.51603 23.0962C5.60115 23.197 5.6862 23.2977 5.7543 23.3817C6.14587 23.8689 8.95507 27.1784 9.9936 28.3208L10.283 28.6571C11.679 30.2027 15.3735 34.3187 16.3609 35.3435L16.5311 35.528C17.11 36.1328 17.7229 36.7544 18.4549 37.1744C19.2892 37.6448 20.2426 37.8967 21.2471 37.9471C21.4173 37.9471 21.5705 37.9471 21.7407 37.9471C22.2515 37.9135 22.7452 37.7796 23.2219 37.578C23.5965 37.41 23.937 37.2079 24.2094 37.0399C24.5329 36.8383 25.7416 35.9815 25.997 35.7799C26.3034 35.5447 28.721 33.6636 29.1296 33.3444L29.5041 33.0417C31.8365 31.1769 34.2711 29.2617 36.5184 27.2289C37.4888 26.3554 38.1869 25.5326 38.5104 24.3062C38.7828 23.2814 38.7828 22.1892 38.5104 21.1644C38.255 20.19 37.8293 19.4173 37.1994 18.8126C36.6036 18.2414 24.6691 6.95133 23.7327 6.19533C22.6942 5.33853 21.7407 4.9016 20.7703 4.8008C20.6341 4.8008 20.4979 4.7844 20.3617 4.7844L20.3788 4.76717Z" fill="black"/>
<path d="M21.2979 40.4173C19.4762 40.4173 17.7908 39.7287 16.582 38.4855L16.4969 38.401C16.3948 38.3002 16.3096 38.1995 16.2074 38.1155C15.3902 37.3091 4.28994 25.9352 3.0982 24.3392C2.04265 22.928 1.63405 21.2146 1.92347 19.5346C2.09372 18.577 2.48535 17.6532 3.04718 16.83C3.6771 15.906 8.12055 11.7904 10.0103 10.0264L10.3338 9.72368C10.9297 9.16928 11.5427 8.58125 12.1215 8.01005C13.7729 6.39725 15.4754 4.73408 17.4333 3.42369C18.4377 2.75169 19.8337 2.36512 21.0936 2.41552C21.2128 2.41552 21.349 2.41556 21.4682 2.44916C22.711 2.58355 23.8857 3.15485 25.1626 4.23005C25.8606 4.81805 34.9349 13.5709 38.8166 17.3173L38.9868 17.4855C39.7529 18.2079 40.2978 19.1481 40.6042 20.2401C40.9447 21.4329 40.9618 22.7096 40.6213 23.9192C40.1786 25.5488 39.14 26.6075 38.0164 27.6491C37.5737 28.0523 26.7458 37.8133 26.184 38.2837C26.0138 38.4181 25.5371 38.8215 25.2988 38.9727C25.0094 39.2079 24.7199 39.4261 24.3964 39.6109C23.6303 40.0477 22.8302 40.3161 22.013 40.4001C21.7576 40.4337 21.5022 40.4337 21.2469 40.4337L21.2979 40.4173ZM20.8893 2.90279C19.7827 2.90279 18.5909 3.25526 17.7056 3.82646C15.7818 5.10326 14.0963 6.75038 12.4619 8.34638C11.8831 8.91758 11.2702 9.50522 10.6573 10.0764L10.3338 10.3791C8.61428 11.9751 4.03459 16.2255 3.43872 17.0991C2.91094 17.8551 2.55344 18.7283 2.40022 19.6019C2.12782 21.1475 2.51942 22.7269 3.48984 24.0373C4.61349 25.5493 15.6456 36.8728 16.5479 37.7464C16.6501 37.8472 16.7522 37.9474 16.8373 38.0482L16.9226 38.1327C18.1824 39.4431 20.021 40.064 21.9789 39.8792C22.728 39.7952 23.4601 39.5605 24.1582 39.1573C24.4476 38.9893 24.7199 38.8048 24.9753 38.5864L25.0434 38.5355C25.1796 38.4347 25.6223 38.0817 25.8436 37.8801C26.3884 37.4097 37.2163 27.666 37.6589 27.2628C38.7145 26.2884 39.7019 25.2802 40.1105 23.7682C40.417 22.6426 40.3999 21.467 40.0935 20.3582C39.8041 19.3334 39.3103 18.4762 38.6123 17.821L38.442 17.6528C35.4286 14.7296 25.5201 5.17079 24.822 4.58279C23.6303 3.57479 22.5408 3.03679 21.3831 2.91919C21.2639 2.91919 21.1617 2.90279 21.0426 2.90279C20.9915 2.90279 20.9234 2.90279 20.8553 2.90279H20.8893Z" fill="black"/>
<path d="M21.2812 42.5C19.4425 42.5 17.6038 41.8112 16.2077 40.4336L2.09407 26.5064C-0.698023 23.7512 -0.698023 19.2489 2.09407 16.4937L16.2077 2.5664C18.9998 -0.188799 23.5625 -0.188799 26.3546 2.5664L40.4683 16.4937C43.2604 19.2489 43.2604 23.7512 40.4683 26.5064L26.3546 40.4336C24.9586 41.8112 23.1199 42.5 21.2812 42.5ZM21.2812 0.987298C19.5787 0.987298 17.8592 1.62553 16.5653 2.91913L2.45163 16.8464C-0.153187 19.4168 -0.153187 23.5832 2.45163 26.1536L16.5653 40.0809C19.1701 42.6513 23.3922 42.6513 25.9971 40.0809L40.1108 26.1536C42.7156 23.5832 42.7156 19.4168 40.1108 16.8464L25.9971 2.91913C24.7032 1.64233 22.9837 0.987298 21.2812 0.987298Z" fill="black"/>
</svg>
