<svg width="66" height="80" viewBox="0 0 66 80" fill="none" xmlns="http://www.w3.org/2000/svg">
<g clip-path="url(#clip0_823_15005)">
<path d="M32.6108 78.0382C21.7786 71.2818 14.0625 64.1061 9.0224 56.0998C3.93751 48.0226 1.46533 38.9035 1.46533 28.2218V9.26707L1.85909 9.0621C11.4081 4.09032 22.1708 1.46265 32.9876 1.46265C43.8043 1.46265 54.5701 4.09032 64.1161 9.06056L64.5098 9.26553L64.5345 28.2233C64.5345 38.9036 62.0624 48.0226 56.9775 56.0998C51.9374 64.1061 44.2213 71.2818 33.3891 78.0382L33.0015 78.2802L32.6139 78.0382H32.6108Z" fill="#FFF014"/>
<path d="M11.0438 24.9806C11.0438 25.3875 11.2491 25.762 11.5919 25.9808C11.788 26.1057 12.0104 26.1689 12.2327 26.1689C12.4011 26.1689 12.5709 26.1334 12.7315 26.0594L14.8038 25.1086V23.9773L12.3007 25.1255C12.2312 25.1563 12.1756 25.1332 12.1478 25.1147C12.12 25.0978 12.0752 25.0562 12.0752 24.9806V24.2779L13.9792 23.4056C14.481 23.1759 14.8038 22.672 14.8038 22.1218V21.2726C14.8038 20.7887 14.5598 20.3448 14.1521 20.0844C13.7445 19.8239 13.238 19.7885 12.7979 19.9904L12.0644 20.3263C11.4452 20.6115 11.0438 21.2341 11.0438 21.9153V23.6183V24.9806ZM12.0752 21.9137C12.0752 21.6332 12.2405 21.3774 12.4953 21.2603L13.2287 20.9243C13.2859 20.8981 13.3399 20.8889 13.3893 20.8889C13.4866 20.8889 13.5607 20.9274 13.5962 20.9505C13.6487 20.9844 13.7723 21.0846 13.7723 21.2726V22.1218C13.7723 22.2713 13.6842 22.4084 13.5484 22.4701L12.0752 23.1451V21.9137ZM12.3377 16.6245C12.5416 16.6245 12.7408 16.5813 12.9292 16.4935L14.5088 15.7676C15.0091 15.538 15.3334 15.034 15.3334 14.4838L15.3303 10.9869L11.7479 12.6329C11.2476 12.8625 10.9249 13.3665 10.9249 13.9167V15.2112C10.9249 15.9911 11.5595 16.6245 12.3393 16.6245H12.3377ZM11.9548 13.9151C11.9548 13.7656 12.0428 13.63 12.1787 13.5668L14.3004 12.5913V14.4838C14.3019 14.6333 14.2139 14.7705 14.078 14.8321L12.4983 15.558C12.4458 15.5827 12.3918 15.5934 12.3377 15.5934C12.154 15.5934 11.9548 15.447 11.9548 15.2097V13.9151ZM16.3772 23.6722C16.6089 23.8201 16.8729 23.8957 17.1385 23.8957C17.3408 23.8957 17.5431 23.8525 17.7345 23.7647L18.6626 23.3362C19.1613 23.1066 19.4825 22.6026 19.4825 22.0555V17.7341L19.4841 14.6133L18.4526 15.0879V17.4043L16.7463 18.1841C16.124 18.4677 15.7225 19.0919 15.7241 19.7746V22.4855C15.7241 22.9694 15.9696 23.4148 16.3772 23.6753V23.6722ZM17.1756 19.1165L18.4526 18.5324V22.0524C18.4526 22.2004 18.3646 22.3375 18.2287 22.3992L17.3006 22.8276C17.1292 22.9078 16.9856 22.8369 16.9331 22.803C16.8806 22.7691 16.7556 22.6689 16.7556 22.4809V19.77C16.7556 19.4895 16.9208 19.2321 17.1756 19.115V19.1165ZM21.5455 15.9787C20.9232 16.2623 20.5217 16.8865 20.5233 17.5692V20.2801C20.5233 20.764 20.7688 21.2094 21.1765 21.4699C21.4081 21.6178 21.6721 21.6933 21.9377 21.6933C22.14 21.6933 22.3423 21.6502 22.5338 21.5623L23.4618 21.1339C23.9606 20.9043 24.2817 20.4003 24.2817 19.8532V15.5318L24.2833 12.4109L23.2518 12.8856V15.202L21.5455 15.9818V15.9787ZM23.2502 19.8501C23.2502 19.9981 23.1622 20.1352 23.0279 20.1969L22.0999 20.6253C21.9285 20.7055 21.7848 20.6346 21.7323 20.6007C21.6798 20.5668 21.5548 20.4666 21.5548 20.2786V17.5677C21.5548 17.2872 21.72 17.0298 21.9748 16.9127L23.2518 16.3286V19.8486L23.2502 19.8501ZM16.4081 11.6203L16.405 10.4968L18.8031 9.3949C19.2432 9.19301 19.7497 9.22846 20.1573 9.48891C20.565 9.74937 20.8089 10.1948 20.8089 10.6787V11.7483L28.0742 8.40856V6.8674C28.0742 6.67784 27.9506 6.57921 27.8981 6.5453C27.8456 6.51139 27.702 6.4405 27.5306 6.5191L23.6208 8.30684V7.17101L27.0998 5.58362C27.5399 5.38173 28.0464 5.41717 28.454 5.67763C28.8617 5.93808 29.1057 6.38348 29.1057 6.8674V9.06818L16.4097 14.8907V13.7672L19.7775 12.2214V10.6787C19.7775 10.4891 19.6539 10.3905 19.6014 10.3566C19.5489 10.3227 19.4053 10.2518 19.2339 10.3304L16.4081 11.6203ZM41.5391 14.2465C41.5391 14.8398 41.1902 15.3838 40.6497 15.632L10.9202 29.2651V28.1215L40.2189 14.6949C40.3949 14.6148 40.5076 14.4376 40.5076 14.2449V13.5622C40.5076 13.4867 40.4613 13.4466 40.4335 13.4281C40.4057 13.4112 40.3501 13.3865 40.2807 13.4173L34.5858 16.0265C34.2152 16.196 33.7891 16.1668 33.4463 15.9479C33.1035 15.7291 32.8981 15.3546 32.8981 14.9477V12.5219C32.8981 12.3323 32.7746 12.2337 32.7205 12.1998C32.668 12.1659 32.5259 12.095 32.353 12.1736L31.1903 12.713V17.5923L30.1588 18.0624V4.19195L31.1903 3.70957V11.5818L31.9222 11.2397C32.3623 11.0378 32.8687 11.0732 33.2764 11.3337C33.6841 11.5941 33.928 12.0395 33.928 12.5235V14.9492C33.928 15.0248 33.9744 15.0648 34.0006 15.0833C34.0284 15.1003 34.084 15.1249 34.1535 15.0941L39.8483 12.4849C40.2189 12.3154 40.6451 12.3447 40.9879 12.5635C41.3307 12.7824 41.5361 13.1569 41.5361 13.5637V14.2465H41.5391ZM25.3379 17.2117V18.0655C25.3379 18.5494 25.5835 18.9932 25.9911 19.2537C26.2227 19.4016 26.4868 19.4772 26.7539 19.4772C26.9547 19.4772 27.1569 19.434 27.3453 19.3477L28.4139 18.8592C28.8354 18.6665 29.1072 18.2427 29.1072 17.7803V14.7042C29.1072 14.2203 28.8632 13.7764 28.4556 13.5144C28.0479 13.254 27.5414 13.2185 27.1014 13.4204L25.3487 14.2095V15.3453L27.5322 14.3543C27.7036 14.2758 27.8472 14.3451 27.8997 14.3805C27.9522 14.4145 28.0757 14.5146 28.0757 14.7027V15.0494L26.1625 15.9248C25.6622 16.1544 25.3379 16.6584 25.3395 17.2086L25.3379 17.2117ZM26.5933 16.8634L28.0757 16.1852V17.7819C28.0757 17.8435 28.0402 17.9006 27.9831 17.9268L26.9145 18.4153C26.7431 18.4939 26.601 18.4245 26.547 18.3906C26.4945 18.3567 26.371 18.2566 26.3694 18.0685V17.2147C26.3694 17.0652 26.4559 16.9281 26.5918 16.8664L26.5933 16.8634ZM6.90389 14.8444L9.88873 13.4759V28.7534C9.88873 29.3467 9.53975 29.8908 8.9993 30.1389L6.92551 31.0913C6.72168 31.1853 6.50241 31.2316 6.28623 31.2316C5.99902 31.2316 5.71335 31.1499 5.4632 30.9896C5.02312 30.7076 4.75907 30.2283 4.75907 29.7058V24.8558C4.75907 24.1299 5.18525 23.4657 5.84615 23.1636L7.84427 22.2158V23.3516L6.27542 24.0991C5.98049 24.2347 5.78901 24.5306 5.78901 24.8558V29.7058C5.78901 29.8784 5.8724 30.0295 6.01755 30.1235C6.1627 30.216 6.33564 30.2283 6.49314 30.1558L8.56694 29.2034C8.74297 29.1233 8.85569 28.946 8.85569 28.7534V15.0818L7.33316 15.7799C7.15713 15.8601 7.04441 16.0373 7.04441 16.549V19.1628L6.01446 19.6482V16.2299C6.01446 15.6366 6.36344 15.0926 6.90389 14.8444ZM27.0504 12.2568V11.1241L28.0896 10.6463V11.7791L27.0504 12.2568ZM13.3059 10.8097V9.67693L14.3451 9.19917V10.3319L13.3059 10.8097ZM11.9038 11.457V10.3242L12.9431 9.84646V10.9792L11.9038 11.457ZM65.9753 8.38853L65.3082 8.03406C55.4226 2.77871 44.246 0 32.9876 0C21.7293 0 10.5543 2.77871 0.668616 8.03406L0 8.38853V28.2217C0 49.9474 9.97211 65.7905 32.336 79.5885L33 79.9985L33.664 79.5885C56.0279 65.789 66 49.9474 66 28.2202L65.9753 8.38698V8.38853ZM2.52159 28.2217V9.90348C11.8776 5.06887 22.3948 2.51671 32.9876 2.51671C42.7374 2.51671 52.4192 4.68512 61.1931 8.79847L2.92771 35.3018C2.65902 33.0132 2.52159 30.6583 2.52159 28.2232V28.2217ZM59.7107 15.313V16.643L58.3395 17.2687V15.9371L59.7107 15.3114V15.313ZM28.6084 36.0878C29.2369 35.8011 29.6446 35.1692 29.6446 34.4788V29.0031L31.0405 28.3681V34.4788C31.0405 35.7133 30.3132 36.8414 29.189 37.3546L26.7107 38.4843V36.9539L28.61 36.0893L28.6084 36.0878ZM26.7091 35.3341V30.3362L28.0757 29.7151V34.7115L26.7091 35.3341ZM22.8086 32.1131V33.4431L21.4359 34.0688V32.7373L22.8086 32.1116V32.1131ZM7.48294 45.7077L10.6407 44.2698C10.6407 44.2698 10.6407 44.2451 10.6407 44.2235C10.633 43.9662 10.6098 43.547 10.5249 43.1894C10.4539 42.8858 10.3118 42.6762 10.0926 42.5344C9.93351 42.4312 9.71733 42.3711 9.52585 42.3649C9.16143 42.3526 8.76304 42.3957 8.08671 42.6469C8.03266 42.667 7.98325 42.6901 7.93692 42.7086V41.3231C7.98325 41.3046 8.03266 41.2846 8.08671 41.2661C8.83716 40.984 9.47335 40.9285 9.96748 41.001C10.4585 41.0734 10.8569 41.2429 11.158 41.5111C11.4591 41.7777 11.6769 42.1214 11.8096 42.5421C11.9424 42.9613 12.0088 43.4052 12.0088 43.8691V45.1636L7.48294 47.2242V45.7092V45.7077ZM17.7623 65.1987C14.2278 61.6725 11.3387 57.9753 9.06415 54.0577L17.7623 50.1015V65.2002V65.1987ZM25.077 39.2194L13.6472 44.4223V37.3993L12.7516 37.8108L13.3785 36.4099L15.0307 35.6547V42.274L20.3179 39.8605V38.8464C20.3179 38.5074 20.2839 38.2377 20.2145 38.0358C20.1465 37.8339 20.0322 37.6952 19.8747 37.6212C19.7157 37.5472 19.5134 37.5318 19.2648 37.5765C19.0162 37.6228 18.712 37.7306 18.3522 37.8955C18.0171 38.0481 16.9548 38.5706 16.3757 38.8958L17.0026 37.4178C17.1246 37.3469 17.2651 37.2714 17.4242 37.1912C17.5832 37.1126 18.241 36.7905 18.4711 36.6857C19.0764 36.4114 19.5875 36.2496 20.0044 36.2018C20.4229 36.1556 20.7611 36.1972 21.0205 36.3266C21.2799 36.4576 21.4652 36.6642 21.5764 36.9477C21.6876 37.2313 21.7447 37.5657 21.7447 37.9495V39.2132L23.7073 38.324V34.3493L25.0785 33.7252V39.2179L25.077 39.2194ZM25.077 32.4106L23.7058 33.0363V31.7047L25.077 31.079V32.409V32.4106ZM32.9938 77.0333C30.2591 75.321 27.7252 73.5764 25.3796 71.7933V46.6385L32.9938 43.1756V77.0333ZM34.2168 35.0614L32.8348 35.6901V28.6578L31.9407 29.0678L32.5676 27.6684L34.2199 26.9179V35.0614H34.2168ZM38.1374 32.2703C37.7097 32.0206 37.512 31.6477 37.3854 31.2994C37.2603 30.9511 37.1955 30.4564 37.1955 30.0125C37.1955 29.7721 37.2155 29.4978 37.2557 29.1895C37.2958 28.8813 37.4085 28.3327 37.4996 28.0352L38.8446 27.4218C38.7581 27.6992 38.6871 28.0044 38.6423 28.2987C38.6006 28.5931 38.579 28.8983 38.579 29.2142C38.579 29.5825 38.6253 29.8908 38.7195 30.1374C38.8122 30.3855 38.9728 30.5581 39.1998 30.6583C39.4267 30.7584 39.7294 30.7754 40.1077 30.7076C40.486 30.6398 40.9555 30.4795 41.5175 30.2237L42.566 29.7474V25.7759C42.8609 25.5724 43.159 25.3844 43.4632 25.2103C43.7658 25.0361 44.0777 24.8743 44.4035 24.7263C44.8992 24.4998 45.3115 24.3734 45.6389 24.3488C45.9678 24.3241 46.2272 24.3796 46.4217 24.5167C46.6163 24.6539 46.7537 24.8666 46.8325 25.1532C46.9112 25.4414 46.9514 25.7851 46.9514 26.1827V29.2681L45.5802 29.8923V26.8177C45.5802 26.2983 45.4906 25.9731 45.31 25.8406C45.1308 25.7081 44.8143 25.7451 44.3603 25.9516C44.2816 25.987 44.2043 26.0255 44.1333 26.0656C44.0607 26.1057 43.9959 26.1427 43.9387 26.1766V30.6382L41.326 31.828C40.5123 32.1994 39.8406 32.4136 39.3125 32.4753C38.7828 32.5354 38.4786 32.4383 38.142 32.2703H38.1374ZM43.2423 32.107V33.4385L41.8696 34.0627V32.7311L43.2423 32.1054V32.107ZM39.6028 33.7745L40.9755 33.1488V34.4803L39.6028 35.1045V33.7745ZM48.2253 65.211C45.9554 67.4735 43.4199 69.6665 40.6096 71.801V39.7095L48.2253 36.2465V65.211ZM53.1203 26.4601L48.5805 28.5268V27.0088L51.7475 25.5663C51.7475 25.5663 51.7475 25.5416 51.7475 25.5185C51.7398 25.2596 51.7166 24.8404 51.6317 24.4813C51.5607 24.1777 51.4186 23.9666 51.1993 23.8248C51.0387 23.7215 50.8241 23.6614 50.6311 23.6537C50.2667 23.6414 49.8667 23.6845 49.1873 23.9357C49.1317 23.9558 49.0839 23.9789 49.0375 23.9974V22.6073C49.0839 22.5888 49.1333 22.5687 49.1873 22.5502C49.9393 22.2667 50.5786 22.2112 51.0727 22.2836C51.5653 22.356 51.9637 22.5256 52.2663 22.7953C52.569 23.0634 52.7867 23.4071 52.9195 23.8294C53.0523 24.2501 53.1187 24.694 53.1187 25.161V26.4586L53.1203 26.4601ZM53.8599 19.095L54.4868 17.6925L56.136 16.9404V23.5674L58.3379 22.5656V18.5879L59.7091 17.9622V23.4564L54.7524 25.7142V18.6865L53.8584 19.0934L53.8599 19.095ZM55.841 55.847V32.7835L63.4614 29.3175C63.2947 39.3242 60.8441 48.0271 55.841 55.847Z" fill="black"/>
</g>
<defs>
<clipPath id="clip0_823_15005">
<rect width="66" height="80" fill="white"/>
</clipPath>
</defs>
</svg>
